<?xml version="1.0" standalone="no"?>
<!DOCTYPE svg PUBLIC "-//W3C//DTD SVG 1.1//EN" "http://www.w3.org/Graphics/SVG/1.1/DTD/svg11.dtd" >
<svg xmlns="http://www.w3.org/2000/svg">
<metadata>
This is a custom SVG webfont generated by Font Squirrel.
</metadata>
<defs>
<font id="webfontqvZVtB63" horiz-adv-x="717" >
<font-face units-per-em="1000" ascent="800" descent="-200" />
<missing-glyph horiz-adv-x="250" />
<glyph unicode=" "  horiz-adv-x="250" />
<glyph unicode="&#x09;" horiz-adv-x="250" />
<glyph unicode="&#xa0;" horiz-adv-x="250" />
<glyph unicode="!" horiz-adv-x="314" d="M235 777q-15 0 -25.5 -6t-17 -15.5t-10 -22t-6.5 -25.5q-6 -29 -8 -67l-5 -68q-5 -57 -8 -112.5t-7 -112.5q-2 -26 -3.5 -51.5t-3.5 -51.5q0 -4 -0.5 -7t-0.5 -7q0 -7 2 -18.5t13 -11.5q17 0 22.5 11.5t7.5 25.5l16 78l16 78l29 133l29 133l6 30q3 15 3 31q0 27 -10 41.5 t-39 14.5zM141 0q24 0 30.5 15.5t6.5 35.5q0 17 -13.5 28.5t-29.5 11.5q-20 0 -27.5 -17t-7.5 -34q0 -18 12 -29t29 -11z" />
<glyph unicode="&#x22;" horiz-adv-x="307" d="M242 452q11 0 14.5 9t4.5 18q1 15 3.5 44t5.5 58t5 51t2 23q0 14 -10 24.5t-24 10.5t-23.5 -10.5t-9.5 -24.5q0 -1 2 -23l4 -52l6 -56l3 -44q1 -8 3.5 -18t13.5 -10zM132 452q11 0 14.5 9t4.5 18l3 40l6 58t5 53.5t2 24.5q0 14 -10 24.5t-24 10.5t-23.5 -10.5t-9.5 -24.5 q0 -1 1 -12.5t2 -29t3 -37.5l2 -40l3.5 -34.5t2.5 -21.5l4 -18q3 -10 14 -10z" />
<glyph unicode="$" horiz-adv-x="632" d="M364 54l3 75q2 29 3 57l2 56q31 -26 50.5 -51.5t19.5 -51.5q0 -29 -22 -50t-56 -35zM317 643v-233q-35 31 -58.5 62.5t-23.5 64.5q0 34 24.5 61t57.5 45zM602 655q0 19 -11.5 30.5t-28.5 17.5t-35.5 8t-32.5 2q-23 0 -50 -1.5t-56 -5.5q1 16 1 31v31q0 14 -8 23.5 t-22 9.5q-23 0 -32.5 -17t-9.5 -37v-55q-34 -9 -66 -23t-56.5 -34t-39 -47.5t-14.5 -62.5q0 -37 16 -70t41 -62.5t56 -56.5l63 -50v-248q-45 -12 -88.5 -16t-68.5 -4q-26 0 -49.5 6.5t-48.5 6.5q-11 0 -21.5 -2t-10.5 -16v-6q2 -9 11 -14.5t20.5 -8t23.5 -3t20 -1.5 q27 -3 53 -3q32 0 73.5 3t85.5 13v-65q0 -9 6 -15.5t15 -6.5q10 0 14.5 6t6.5 15q2 14 1.5 29t0.5 29l1 20q31 9 58.5 23t48.5 33t33 43.5t12 55.5q0 29 -12 55.5t-31.5 51.5t-44 48t-50.5 45l4 112l4 113q1 22 1.5 43t1.5 43q5 2 9 2.5t8 1.5q17 3 34 4t34 1q5 0 13 -0.5 t16 -2t14 -5.5t6 -12q0 -11 -10.5 -22.5t-22.5 -23t-22.5 -23.5t-10.5 -24q0 -11 7.5 -18t18.5 -7t23.5 4.5t25 11.5t24 15t18.5 15q14 12 22 30.5t8 36.5z" />
<glyph unicode="%" horiz-adv-x="808" d="M218 -41q8 0 11.5 3.5t7.5 8.5q8 12 13.5 25.5t11.5 26.5l64 129l100 205l101 205l27 56l28 57l12 25q7 14 12 27q4 10 4 17q0 14 -10.5 21.5t-24.5 7.5q-15 0 -26.5 -11.5t-16.5 -24.5l-333 -748q-2 -6 -2 -10q0 -8 6.5 -14t14.5 -6zM161 369q41 0 75.5 22.5t59.5 57 t38.5 75.5t13.5 78q0 24 -5 49.5t-16.5 46.5t-30.5 34.5t-48 13.5q-43 0 -77.5 -23.5t-59 -59t-38 -77.5t-13.5 -80q0 -24 5 -48t17 -44t31.5 -32.5t47.5 -12.5zM251 699q15 0 26.5 -9.5t18.5 -23t10.5 -29t3.5 -28.5q0 -27 -11 -62.5t-30.5 -67.5t-46 -54.5t-57.5 -22.5 q-16 0 -25 10.5t-14 25t-6.5 30.5t-1.5 28q0 25 9.5 59.5t27 66.5t42 54.5t54.5 22.5zM561 -1q41 0 75.5 22.5t59.5 57t38.5 75.5t13.5 78q0 24 -5 49.5t-16.5 46.5t-30.5 34.5t-48 13.5q-43 0 -77.5 -23.5t-59 -59t-38 -77.5t-13.5 -80q0 -24 5 -48t17 -44t31.5 -32.5 t47.5 -12.5zM651 329q15 0 26.5 -9.5t18.5 -23t10.5 -29t3.5 -28.5q0 -27 -11 -62.5t-30.5 -67.5t-46 -54.5t-57.5 -22.5q-16 0 -25 10.5t-14 25t-6.5 30.5t-1.5 28q0 25 9.5 59.5t27 66.5t42 54.5t54.5 22.5z" />
<glyph unicode="&#x26;" horiz-adv-x="493" d="M450 117q8 8 14.5 18t6.5 19q0 8 -7 16t-16 8q-7 0 -14 -4.5t-13.5 -11t-12.5 -13.5l-9 -12l-55 108l-53 108q26 16 53.5 36t50 44.5t36.5 54t14 64.5q0 27 -11 48t-29.5 35.5t-41.5 22t-47 7.5q-34 0 -62 -13.5t-48 -36.5t-31 -52.5t-11 -62.5q0 -32 10 -62.5t24 -58.5 q-26 -19 -53.5 -44.5t-49.5 -55t-36 -63t-14 -68.5q0 -34 13 -61t34.5 -46.5t50.5 -30t61 -10.5q43 0 88.5 17t77.5 46l31 -61q5 -9 12.5 -11t15.5 -2q11 0 21 4.5t10 15.5q0 3 -6 15l-12 24q-6 14 -12.5 26t-9.5 17q8 6 15.5 12.5t14.5 13.5zM326 626q45 0 45 -46 q0 -29 -10.5 -54t-28 -46.5t-39.5 -39.5t-45 -33q-10 24 -16 48.5t-6 50.5q0 22 7 43.5t20 38.5t31.5 27.5t41.5 10.5zM239 328l55 -112l55 -113q-33 -24 -69 -43.5t-78 -19.5q-43 0 -66 20.5t-23 64.5q0 30 11 58.5t29 54.5t40.5 49t45.5 41z" />
<glyph unicode="'" horiz-adv-x="197" d="M132 452q11 0 14.5 9t4.5 18l3 40l6 58t5 53.5t2 24.5q0 14 -10 24.5t-24 10.5t-23.5 -10.5t-9.5 -24.5q0 -1 1 -12.5t2 -29t3 -37.5l2 -40l3.5 -34.5t2.5 -21.5l4 -18q3 -10 14 -10z" />
<glyph unicode="(" horiz-adv-x="366" d="M113 328q0 112 46 212t122 180q11 11 23 21.5t23 21.5q4 4 6.5 7.5t2.5 9.5q0 9 -4.5 16.5t-13.5 7.5q-6 0 -14 -6q-52 -38 -101.5 -88t-87.5 -109t-61.5 -125t-23.5 -135q0 -42 9 -91.5t31 -100.5t59.5 -100.5t94.5 -91.5q8 -6 14 -6q9 0 13.5 7.5t4.5 16.5 q0 6 -2.5 9.5t-6.5 7.5q-11 10 -21 20l-19 21q-25 30 -42.5 65.5t-29 73.5t-17 77.5t-5.5 78.5z" />
<glyph unicode=")" horiz-adv-x="366" d="M253 427q0 -112 -46 -212t-122 -180q-11 -11 -23 -21.5t-23 -21.5q-4 -4 -6.5 -7.5t-2.5 -9.5q0 -9 4.5 -16.5t13.5 -7.5q6 0 14 6q52 38 101.5 88t87.5 109t61.5 125t23.5 135q0 42 -9 91.5t-31 100.5t-59.5 100.5t-94.5 91.5q-8 6 -14 6q-9 0 -13.5 -7.5t-4.5 -16.5 q0 -6 2.5 -9.5t6.5 -7.5q11 -10 21 -20l19 -21q25 -30 42.5 -65.5t29 -73.5t17 -77.5t5.5 -78.5z" />
<glyph unicode="*" horiz-adv-x="492" d="M416 408q0 8 -7 15l-77 77h109q9 0 15 6t6 15t-6 15t-15 6h-109l77 77q7 7 7 15t-7 15t-15 7t-15 -7l-77 -77v109q0 9 -6 15t-15 6t-15 -6t-6 -15v-109l-77 77q-7 7 -15 7t-15 -7t-7 -15t7 -15l77 -77h-109q-9 0 -15 -6t-6 -15t6 -15t15 -6h109l-77 -77q-7 -7 -7 -15 t7 -15t15 -7t15 7l77 77v-109q0 -9 6 -15t15 -6t15 6t6 15v109l77 -77q7 -7 15 -7t15 7t7 15z" />
<glyph unicode="+" horiz-adv-x="429" d="M233 140h136v34h-136v140h-37v-140h-136v-34h136v-142h37v142z" />
<glyph unicode="," horiz-adv-x="282" d="M100 -103q0 -9 9 -9q14 0 30 17t30 40t24.5 46.5t11.5 36.5q1 5 1.5 13t0.5 13q0 32 -34 32q-17 0 -29 -13t-12 -30q0 -10 2.5 -20.5t2.5 -21.5q0 -23 -6 -40.5t-12.5 -30t-12.5 -21t-6 -12.5z" />
<glyph unicode="-" horiz-adv-x="481" d="M100 206q0 -9 1.5 -13.5t10.5 -7.5t28.5 -3.5t29.5 -0.5q25 0 56 1t63.5 3t63 6t54.5 10q5 2 9.5 3t4.5 8q0 12 -8.5 14.5t-17.5 2.5q-33 0 -66.5 -1.5t-66.5 -1.5q-43 0 -87 3l-21 2q-10 1 -21 1t-22 -6t-11 -20z" />
<glyph unicode="." horiz-adv-x="253" d="M141 0q24 0 30.5 15.5t6.5 35.5q0 17 -13.5 28.5t-29.5 11.5q-20 0 -27.5 -17t-7.5 -34q0 -18 12 -29t29 -11z" />
<glyph unicode="/" horiz-adv-x="442" d="M51 -41q8 0 11.5 3.5t7.5 8.5q8 12 13.5 25.5t11.5 26.5l64 129l101 205l100 205l27 56l27 57l13 25q7 14 12 27q3 8 3 17q0 14 -10 21.5t-24 7.5q-15 0 -26.5 -11.5t-16.5 -24.5l-333 -748q-2 -6 -2 -10q0 -8 6.5 -14t14.5 -6z" />
<glyph unicode="0" horiz-adv-x="515" d="M35 186q0 -36 8 -73.5t26 -68t47.5 -49.5t72.5 -19q64 0 117.5 35t92 88t60 117t21.5 121q0 36 -7.5 75t-25 71.5t-47 53t-73.5 20.5q-66 0 -120 -36t-92 -91t-59 -120t-21 -124zM114 170q0 41 15.5 97t44 107t68.5 86.5t89 35.5q26 0 45 -15t31.5 -37.5t18.5 -48.5 t6 -47q0 -29 -8 -65t-23 -73t-36.5 -72t-47.5 -62.5t-57 -44t-65 -16.5q-26 0 -42 17t-24.5 41.5t-11.5 51t-3 45.5z" />
<glyph unicode="1" horiz-adv-x="346" d="M79 -17q0 -8 2.5 -14t11.5 -6q5 0 7 1q12 3 25.5 4.5t25 6t19.5 13t11 23.5q4 20 6.5 40.5t6.5 40.5q13 70 27.5 138.5t33.5 137.5q9 34 20 69t28 66q5 8 9 15.5t4 16.5q0 8 -5 13t-12 8t-15 4t-14 1q-18 0 -31.5 -6t-24.5 -21q-27 -38 -60.5 -70.5t-71.5 -59.5 q-10 -7 -20.5 -13t-19.5 -14q-12 -10 -12 -24q0 -8 3 -13.5t13 -5.5q12 0 31.5 10.5t40 24.5t38.5 29l29 22q-5 -62 -19 -121.5t-31 -119.5q-4 -15 -13 -43l-20 -58q-9 -30 -16 -56.5t-7 -38.5z" />
<glyph unicode="2" horiz-adv-x="498" d="M144 66q23 10 51 10q23 0 46 -4.5t45.5 -9.5t45 -9.5t44.5 -4.5q14 0 28.5 2t26.5 9q8 5 14 15t13 10q8 0 13.5 -5.5t5.5 -13.5q0 -17 -11.5 -31.5t-28.5 -25t-35.5 -16t-33.5 -5.5q-42 0 -81.5 11t-81.5 11q-26 0 -51 -4.5t-50 -9.5q-12 -2 -24.5 -5.5t-25.5 -3.5 q-10 0 -18 4.5t-8 15.5q0 9 23 32l58 55l75 74q40 41 75 87t58 95t23 97q0 18 -7 35.5t-19 30.5t-28.5 21t-35.5 8q-22 0 -44.5 -8t-42 -22.5t-33.5 -33.5t-19 -41q-2 -11 -5 -23t-18 -12q-13 0 -17 7t-4 19q0 36 19 65.5t48.5 51t64.5 33.5t67 12q33 0 63 -11t52.5 -31 t36 -48t13.5 -63q0 -29 -15 -63t-40 -69t-56 -70t-63 -66.5l-61 -57.5z" />
<glyph unicode="3" horiz-adv-x="468" d="M58 -217q39 0 83 11t87.5 31t83 48.5t69.5 63t48 74.5t18 84q0 50 -19.5 86.5t-52 61t-74 39t-85.5 18.5q21 11 43 26.5t40.5 35t30 43t11.5 49.5q0 24 -12 39.5t-30.5 24.5t-40 12.5t-40.5 3.5t-41 -4.5t-43.5 -13t-40 -20t-31.5 -26.5q-7 -8 -11 -15.5t-4 -18.5 q0 -12 7.5 -20t19.5 -8q10 0 14.5 4.5t9.5 12.5q17 27 40.5 48.5t58.5 21.5q22 0 34.5 -15t12.5 -36q0 -26 -14.5 -49.5t-36.5 -43t-47 -35.5t-45 -27l-19 -11q-7 -4 -12 -18q-1 -2 -1 -6q0 -11 9 -14.5t17 -3.5q15 0 29.5 2t29.5 2q35 0 71.5 -10t66 -30t48.5 -50t19 -70 q0 -58 -28.5 -104.5t-73.5 -79.5t-99.5 -51t-106.5 -18q-13 0 -25 1t-24 6q-13 5 -24.5 10t-25.5 5q-9 0 -15.5 -3.5t-6.5 -14.5q0 -16 16 -25.5t37 -14.5t42.5 -6.5t32.5 -1.5z" />
<glyph unicode="4" horiz-adv-x="546" d="M371 116q13 0 39.5 1.5t53.5 6.5t47 15t20 28q0 11 -8.5 16t-18.5 5q-29 0 -58.5 -4t-58.5 -6l13 48l18 70q10 36 17.5 68t7.5 42q0 25 -26 25q-19 0 -27 -12t-12 -28q-13 -56 -29.5 -111t-27.5 -109q-17 -1 -33.5 -1.5t-33.5 -0.5q-7 0 -26.5 -0.5t-40.5 0.5t-37 3.5 t-16 8.5q0 9 15.5 37.5t39.5 67.5l53 82l55 82l48 68q21 29 30 38q7 8 16 17t9 20q0 13 -9 21t-22 8q-14 0 -28.5 -12t-22.5 -22l-36 -48l-56 -75l-62 -89l-61 -88q-28 -42 -47.5 -74t-22.5 -45q-3 -9 -3 -19q0 -18 11 -27t27 -13.5t33 -5t29 -0.5q45 0 90 1t90 4 q-7 -47 -18 -93l-21 -91q-1 -3 -1 -10q0 -11 6.5 -18.5t18.5 -7.5q15 0 23 15q3 5 4 11t3 12q10 48 22 95z" />
<glyph unicode="5" horiz-adv-x="483" d="M91 333q2 10 7.5 28t12.5 37.5t14 36.5t13 24q30 0 60 3t60 3q18 0 39 -0.5t42 -0.5q22 0 42.5 1.5t38.5 5.5q15 3 24.5 6t15.5 7.5t9 12.5t5 22v2q0 8 -4 10t-12 2q-26 0 -51.5 -4.5t-51.5 -4.5q-29 0 -59 1t-59 1h-26q-19 0 -39 -1t-37 -4t-21 -9t-11.5 -23t-16 -39.5 t-16.5 -47.5l-16 -48q-7 -22 -11.5 -40t-4.5 -26q0 -15 10 -18t22 -3q14 0 28 0.5t28 0.5q39 0 78.5 -8.5t71 -28t51.5 -51.5t20 -78q0 -26 -7 -51t-20 -48q-20 -36 -49.5 -62.5t-64.5 -44.5t-74.5 -26.5t-79.5 -8.5q-14 0 -26.5 4t-23 9t-20 9t-18.5 4q-10 0 -20 -5.5 t-10 -16.5q0 -17 11.5 -26t27.5 -13.5t33.5 -5.5t29.5 -1h11q81 0 160 28q40 14 83 39.5t79 60t59 77t23 89.5q0 45 -17 78t-46 57t-66 40t-77 25.5t-80 14t-74 5.5z" />
<glyph unicode="6" horiz-adv-x="517" d="M50 174q0 134 54.5 243t150.5 200l27 24q16 15 35 28.5t37.5 23.5t31.5 10q8 0 14.5 -3t6.5 -13q0 -9 -8 -13.5t-15 -7.5q-23 -10 -41 -24t-35 -31q-35 -37 -66 -86.5t-54 -104t-36.5 -111.5t-13.5 -108q0 -25 6 -56t19.5 -58.5t35 -46t52.5 -18.5q76 0 122 46t46 122 q0 64 -38 97t-100 33q-16 0 -29.5 -3t-28.5 -9q-6 -2 -11.5 -4.5t-12.5 -2.5q-3 0 -6 1.5t-3 5.5q0 10 12 19.5t28 17.5t32.5 13.5t24.5 7.5q14 3 28 5t28 2q32 0 60 -12.5t49 -33.5t33 -49.5t12 -60.5q0 -43 -25 -87t-64 -79t-85 -57.5t-88 -22.5q-40 0 -74 17.5t-58.5 46 t-38.5 65t-14 74.5z" />
<glyph unicode="7" horiz-adv-x="460" d="M100 -239q23 0 36 17.5t20 37.5l32 92q16 45 34 90q44 109 95.5 212t110.5 204q11 20 22 44t11 47q0 12 -6 18.5t-15 10.5t-19 5t-19 1q-5 0 -9 -0.5t-9 -0.5q-59 -5 -117 -6.5t-117 -1.5q-20 0 -38.5 0.5t-38.5 0.5q-16 0 -26.5 -8.5t-10.5 -25.5t11.5 -21.5t25.5 -4.5 q69 0 136 9t136 9q7 0 12.5 -1t5.5 -10q0 -6 -2 -14q-4 -16 -12.5 -35t-18.5 -38l-20 -39l-17 -34l-36 -69l-47 -93l-50 -105q-25 -54 -45.5 -104.5t-33.5 -93t-13 -69.5q0 -13 10.5 -18.5t21.5 -5.5z" />
<glyph unicode="8" horiz-adv-x="509" d="M486 501q14 0 23.5 12t9.5 25q0 32 -20 53t-49.5 33.5t-62 18t-56.5 5.5q-30 0 -70.5 -5.5t-78 -19.5t-63.5 -39t-26 -64q0 -24 12 -50.5t29.5 -53t37.5 -50.5l35 -40q-27 -20 -55.5 -43.5t-52 -51.5t-39 -59.5t-15.5 -68.5q0 -66 42 -100.5t105 -34.5q38 0 74.5 12 t65.5 35t47 55.5t18 72.5q0 24 -9 49t-22.5 49t-29 46.5t-29.5 40.5l53 38l53 39l24 17q12 9 23 19l10 11q6 5 6 13q0 7 -5.5 10t-11.5 3q-10 0 -22 -7q-14 -7 -26 -15l-25 -15l-111 -69l-27 32q-16 21 -31.5 44t-27 45t-11.5 38q0 24 16.5 40.5t39.5 26.5t48.5 14.5 t44.5 4.5q24 0 45.5 -2t38.5 -9.5t29.5 -23t19.5 -42.5q2 -10 7.5 -24.5t18.5 -14.5zM248 282q12 -13 25 -30.5t23.5 -37t17.5 -40t7 -39.5q0 -24 -8 -47.5t-23 -42t-36.5 -29.5t-47.5 -11q-20 0 -36.5 8t-28.5 21.5t-18.5 31.5t-6.5 37q0 29 13.5 54t33.5 47t43 42z" />
<glyph unicode="9" horiz-adv-x="512" d="M477 327q0 -134 -54.5 -243t-150.5 -200l-26 -24q-17 -15 -36 -28.5t-37.5 -23.5t-31.5 -10q-8 0 -14.5 3t-6.5 13q0 9 8 13.5t15 7.5q23 10 41 24t35 31q35 37 66 86.5t54 104t36.5 111.5t13.5 108q0 25 -6 56t-19.5 58.5t-35 46t-52.5 18.5q-76 0 -122 -46t-46 -122 q0 -64 38 -97t100 -33q16 0 29.5 3t28.5 9q6 2 11.5 4.5t12.5 2.5q3 0 6 -1.5t3 -5.5q0 -10 -12 -19.5t-28 -17t-32.5 -13t-24.5 -7.5q-14 -3 -28 -5.5t-28 -2.5q-32 0 -60 12.5t-49 33.5t-33 49.5t-12 60.5q0 43 25 87t64 79t85 57.5t88 22.5q40 0 74 -17.5t58.5 -46 t38.5 -65t14 -74.5z" />
<glyph unicode=":" horiz-adv-x="293" d="M141 0q24 0 30.5 15.5t6.5 35.5q0 17 -13.5 28.5t-29.5 11.5q-20 0 -27.5 -17t-7.5 -34q0 -18 12 -29t29 -11zM181 260q24 0 30.5 15.5t6.5 35.5q0 17 -13.5 28.5t-29.5 11.5q-20 0 -27.5 -17t-7.5 -34q0 -18 12 -29t29 -11z" />
<glyph unicode=";" horiz-adv-x="317" d="M205 260q24 0 30.5 15.5t6.5 35.5q0 17 -13.5 28.5t-29.5 11.5q-20 0 -27.5 -17t-7.5 -34q0 -18 12 -29t29 -11zM100 -103q0 -9 9 -9q14 0 30 17t30 40t24.5 46.5t11.5 36.5q1 5 1.5 13t0.5 13q0 32 -34 32q-17 0 -29 -13t-12 -30q0 -10 2.5 -20.5t2.5 -21.5 q0 -23 -6 -40.5t-12.5 -30t-12.5 -21t-6 -12.5z" />
<glyph unicode="&#x37e;" horiz-adv-x="317" d="M205 260q24 0 30.5 15.5t6.5 35.5q0 17 -13.5 28.5t-29.5 11.5q-20 0 -27.5 -17t-7.5 -34q0 -18 12 -29t29 -11zM100 -103q0 -9 9 -9q14 0 30 17t30 40t24.5 46.5t11.5 36.5q1 5 1.5 13t0.5 13q0 32 -34 32q-17 0 -29 -13t-12 -30q0 -10 2.5 -20.5t2.5 -21.5 q0 -23 -6 -40.5t-12.5 -30t-12.5 -21t-6 -12.5z" />
<glyph unicode="&#x3c;" horiz-adv-x="469" d="M60 152l349 -143v38l-291 117l291 118v38l-349 -143v-25z" />
<glyph unicode="=" horiz-adv-x="475" d="M60 192h355v33h-355v-33zM60 87h355v34h-355v-34z" />
<glyph unicode="&#x3e;" horiz-adv-x="469" d="M60 10l349 143v25l-349 144v-39l292 -118l-292 -118v-37z" />
<glyph unicode="?" horiz-adv-x="502" d="M198 51q0 17 -13.5 28.5t-29.5 11.5q-20 0 -27.5 -17t-7.5 -34q0 -18 12 -29t29 -11q24 0 30.5 15.5t6.5 35.5zM171 166q8 0 12 3.5t5.5 8.5t1.5 11t1 11q4 35 26 67t53 63l68 65q35 33 64.5 69.5t49.5 78t20 90.5q0 37 -13 63t-35 43t-51.5 25t-62.5 8q-29 0 -58 -11 t-51.5 -30.5t-36.5 -46t-14 -57.5q0 -10 3.5 -27t10 -33t16.5 -27.5t23 -11.5q8 0 14.5 5t6.5 13q0 4 -4.5 11t-9.5 17.5t-9.5 24t-4.5 29.5q0 19 8.5 35.5t22 29t31 20t35.5 7.5t33 -7.5t26.5 -20t18 -28.5t6.5 -33q0 -48 -16.5 -87t-42 -72.5t-54.5 -64t-54.5 -61.5 t-42 -65t-16.5 -75q0 -4 0.5 -11t2.5 -13.5t6 -11t11 -4.5z" />
<glyph unicode="A" d="M393 305q-29 -4 -58 -7t-58 -8q17 36 31 72l29 74q2 5 6.5 18t10 27t10.5 25t7 11t3 -2.5t1 -3.5q5 -17 5 -37t1 -38q5 -67 12 -131zM575 -16q28 0 56.5 16.5t54 40.5t46.5 52t33 50q3 6 5.5 12t2.5 13q0 6 -6 10t-11 4q-8 0 -13 -6t-10 -11l-29 -39q-17 -21 -36 -39 t-41 -30t-47 -12q-15 0 -27.5 14t-22.5 36.5t-17.5 49.5t-13 53t-8.5 48t-4 33q20 3 44 5t42 9q9 3 17 9t8 17q0 8 -6 11t-13 3q-24 0 -48 -4.5t-48 -7.5q-5 44 -6 87t-1 87q0 55 4.5 110t4.5 110q0 11 -4.5 25t-18.5 14q-9 0 -24 -4t-30 -11t-25.5 -16.5t-10.5 -20.5 q0 -30 -6 -56t-17 -54l-36 -93q-23 -61 -53 -133t-65.5 -147.5t-73.5 -137t-77.5 -100.5t-78.5 -39q-14 0 -26.5 4.5t-26.5 4.5q-8 0 -15 -4t-7 -13q0 -10 8.5 -16t20 -9t23.5 -4t19 -1q60 0 106 36t81 89t62 111l47 104q36 4 71.5 10.5t71.5 11.5q5 -35 15.5 -83.5 t30.5 -92.5t51.5 -75t77.5 -31z" />
<glyph unicode="B" horiz-adv-x="529" d="M246 371q17 4 41 14t50 24t51 31.5t45.5 37t33 39.5t12.5 40q0 22 -16.5 37t-42 25.5t-57 16.5t-62.5 9t-57.5 4t-41.5 1q5 25 10.5 55.5t15.5 53.5q2 4 2 7q0 6 -6.5 7t-10.5 1q-18 0 -37 -8q-36 -15 -47 -50q-10 -34 -18 -69q-26 -2 -52 -5.5t-52 -7.5 q-11 -2 -25.5 -5.5t-14.5 -18.5q0 -13 15 -13q8 0 15.5 1.5t15.5 2.5q22 3 44 4.5t45 3.5q-23 -106 -40 -211.5t-29 -213.5q-4 -33 -7 -66l-6 -67q-2 -19 -3.5 -38t-1.5 -38q0 -11 12.5 -13.5t20.5 -2.5q27 0 39 6.5t22 32.5q27 0 65 6.5t79 19t81.5 30.5t72 42t51.5 53 t20 63q0 35 -26 62t-63 46.5t-76.5 32t-66.5 18.5zM146 348q19 -3 46 -8.5t57.5 -14t60.5 -20t54 -27t39 -35.5t15 -44q0 -22 -17.5 -40.5t-45.5 -34t-62 -28t-67.5 -21t-62.5 -14t-46 -6.5q-1 10 -1 19v20q0 64 10 128zM420 545q0 -30 -32.5 -55t-76.5 -44.5t-88 -32.5 t-68 -19l18 108q9 55 20 109q11 0 31.5 -1t46 -3t52 -6.5t48 -12t35.5 -18t14 -25.5z" />
<glyph unicode="C" horiz-adv-x="605" d="M185 291q0 29 6.5 69.5t19.5 84.5t32.5 87t44.5 77.5t56 55.5t67 21q37 0 56.5 -25.5t19.5 -60.5q0 -21 -3.5 -43.5t-9.5 -42.5q-2 -6 -6 -15l-7 -19q-4 -9 -6.5 -17.5t-2.5 -14.5q0 -11 8 -14.5t17 -3.5q14 0 24 7q11 8 18.5 29.5t12 47t6.5 50t2 37.5q0 30 -10 56 t-28 44.5t-43.5 29.5t-55.5 11q-53 0 -98.5 -20.5t-82 -55.5t-64.5 -81t-47 -96t-28.5 -101t-9.5 -97q0 -62 17.5 -120.5t52 -103.5t86 -72.5t119.5 -27.5q47 0 92.5 14t86 39t74.5 59t57 74q4 6 8.5 15.5t4.5 16.5t-4.5 12t-11.5 5q-9 0 -15.5 -8t-11.5 -15q-8 -12 -15 -24 t-16 -23q-41 -51 -98.5 -79.5t-123.5 -28.5q-59 0 -96 23.5t-58 61.5t-28.5 85.5t-7.5 96.5z" />
<glyph unicode="D" horiz-adv-x="612" d="M135 -2q31 0 69 11t67 22q52 21 107 52.5t100.5 74t74.5 95.5t29 116q0 80 -26 139.5t-72.5 98t-110 57.5t-139.5 18q4 17 7.5 35t11.5 34q2 6 2 8q0 7 -5 11t-11 4q-18 0 -37 -8t-29.5 -19.5t-17.5 -30.5q-3 -9 -6.5 -18t-5.5 -19q-8 0 -26 -1t-36.5 -4t-32.5 -9 t-14 -17q0 -13 16 -13q8 0 14.5 1t14.5 3q14 2 28.5 3.5t28.5 3.5q-23 -102 -40 -204t-31 -205q-9 -66 -16.5 -132.5t-7.5 -133.5q0 -11 13 -13.5t21 -2.5q18 0 27.5 0.5t15 4.5t9 12.5t8.5 25.5zM139 59q0 54 7 106.5t15 105.5q29 191 66 377q60 -1 114 -20t95 -54 t65 -85.5t24 -113.5q0 -53 -23.5 -97t-60.5 -79t-82.5 -61t-89.5 -44q-32 -13 -64 -22.5t-66 -12.5z" />
<glyph unicode="E" horiz-adv-x="515" d="M399 746q51 0 80.5 -28t29.5 -79q0 -11 -2.5 -22.5t-17.5 -11.5q-11 0 -15.5 14t-12 31t-21.5 31t-44 14q-29 0 -55.5 -18t-49 -47t-41 -65.5t-33.5 -73.5t-25 -70.5t-16 -56.5q16 5 49 8.5t70.5 6t72 3.5t53.5 1h9q7 0 14 -0.5t12.5 -1.5t5.5 -3q0 -14 -10 -24t-23 -13 q-6 1 -25.5 -2.5l-45.5 -8.5l-55 -13l-57 -13l-49 -12q-22 -5 -32 -8q-3 -18 -3 -35q0 -36 6.5 -77t23 -76t45.5 -58t74 -23q29 0 55.5 8.5t51 23t45.5 34t38 41.5q10 12 17.5 25t16.5 25q4 5 7.5 8t10.5 3q8 0 12.5 -5t4.5 -13q0 -10 -7.5 -23t-13.5 -21 q-24 -34 -55.5 -64.5t-69 -53.5t-79 -36.5t-84.5 -13.5q-57 0 -95.5 26t-61.5 66.5t-33 90t-10 97.5q0 7 0.5 13.5t0.5 13.5h-22q-12 0 -23 3t-18.5 10t-7.5 21t8.5 22.5t21 13.5t25.5 8l24 4q8 37 23.5 81.5t37 89t49.5 87t61.5 75t73 52t84.5 19.5z" />
<glyph unicode="F" horiz-adv-x="576" d="M493 631q16 3 36 6t40.5 7t40 10t32.5 13t17.5 16t4.5 23q0 7 -1.5 15.5t-11.5 8.5q-6 0 -16 -2.5t-20.5 -6.5t-21 -7.5t-17.5 -5.5q-44 -11 -89 -17.5t-90.5 -11.5t-91 -9.5t-90.5 -10.5q-23 -3 -54 -9t-59.5 -17.5t-48.5 -31t-20 -49.5q0 -17 5 -36t13.5 -37 t20.5 -33.5t26 -25.5q7 -5 11 -6t12 0h2q8 4 8 12q0 5 -7 16l-16 24q-9 15 -16 33t-7 38q0 18 13.5 29t32.5 17.5t39 9.5l32 5q48 8 96.5 11.5t96.5 10.5q0 -5 0.5 -9t0.5 -9q0 -69 -9.5 -136.5t-22.5 -135.5q-20 -4 -41 -6.5t-41 -4.5q-8 -1 -19 -1q-10 0 -18 -2 q-9 -3 -13.5 -11t-4.5 -17q0 -17 17 -17q28 0 56 5l56 11q-3 -22 -9.5 -53.5t-17 -66t-25 -68t-33.5 -60.5t-42.5 -44t-51.5 -17q-21 0 -34.5 9t-22.5 19l-18 20q-7 9 -17 9t-16 -11q0 -12 5.5 -21.5t12.5 -18.5q19 -23 41 -34t52 -11q44 0 79.5 17.5t63.5 46.5t48.5 66.5 t36 78.5t25.5 81.5t16 75.5q6 2 22.5 6t34 10t30.5 13t13 14q0 8 -5 11t-12 3q-19 0 -37.5 -5t-36.5 -9q8 43 14.5 85.5t11.5 86.5l6 56q3 27 3 55z" />
<glyph unicode="G" horiz-adv-x="575" d="M78 140q0 55 21 120t55.5 126t80 112t93.5 77q20 11 41 17t44 8q8 1 15 1h16q18 0 29.5 -3.5t19.5 -8t13.5 -8t10.5 -3.5q11 0 13.5 12t2.5 19q0 20 -14 33.5t-34.5 22t-42.5 12.5t-37 4q-56 0 -108.5 -24.5t-98.5 -65t-83.5 -94t-65 -111t-42.5 -115.5t-15 -108 q0 -25 4.5 -53t16 -51.5t31.5 -39t51 -15.5q47 0 93 31t86.5 75.5t73 94t52.5 86.5q-1 -29 -5.5 -78t-13.5 -105t-24 -113t-37 -103t-52.5 -75t-71.5 -29q-25 0 -43 8.5t-31 19t-23 19.5t-18 9q-7 0 -11 -6t-4 -12q0 -11 8.5 -21.5t16.5 -17.5q19 -18 49.5 -28t56.5 -10 q54 0 95.5 31.5t72.5 82t53.5 114t37.5 127.5t23.5 122t13.5 98l9 93q5 46 5 93q0 13 -5 23.5t-21 10.5q-18 0 -27.5 -5t-15 -13.5t-8 -20t-6.5 -25.5q-12 -45 -41 -102.5t-66.5 -114t-80 -104t-81.5 -73.5q-9 -6 -19.5 -11.5t-21.5 -5.5q-12 0 -19.5 8t-11 19t-4.5 23 t-1 21z" />
<glyph unicode="H" horiz-adv-x="710" d="M195 212q-24 -13 -52 -37.5t-52.5 -54t-40.5 -61.5t-16 -61q0 -8 6.5 -14t14.5 -6q10 0 18.5 5t15.5 12q11 11 28 40.5t34 63.5t29.5 66t14.5 47zM751 312q-26 0 -51 10.5t-53 10.5q-19 0 -37.5 -1.5t-37.5 -3.5q-12 -24 -21 -54.5t-15.5 -62t-10 -63t-3.5 -58.5 q0 -15 3.5 -28t8 -23.5t8 -17.5t3.5 -10q0 -8 -7.5 -13.5t-14.5 -5.5q-11 0 -21 9t-15 18q-12 20 -15.5 47t-3.5 50q0 51 10 102.5t27 99.5q-57 -11 -112.5 -28.5t-109.5 -41.5l-17 -58q-11 -34 -25 -72t-32 -75.5t-39.5 -67.5t-48 -48.5t-56.5 -18.5q-43 0 -64.5 25.5 t-21.5 66.5q0 34 14 66.5t36.5 62t49.5 55t52 44.5q17 13 36 24t36 24q2 2 6 21.5t9 49.5l10 65q5 35 9 67t6.5 56t2.5 31q0 15 -2.5 36.5t-9 41.5t-19 34.5t-32.5 14.5q-9 0 -16.5 -3.5t-16.5 -3.5q-6 0 -13.5 5.5t-7.5 12.5q0 9 13 16t29.5 12.5t33 8.5t23.5 3 q33 0 54 -16t33 -40t16.5 -53t4.5 -55q0 -69 -12 -137t-29 -134q56 18 112 33.5t114 21.5q35 92 80.5 179t102.5 168q5 8 14.5 20.5t20 25t22 21.5t21.5 9q13 0 13 -11q0 -10 -5 -19.5t-12.5 -18.5t-15.5 -17t-13 -16q-25 -36 -48.5 -77t-44.5 -84t-39 -87t-32 -85 q25 2 49 2h49q15 0 30 -0.5t30 -4.5q14 -3 24 -8.5t10 -22.5q0 -11 -7.5 -18.5t-18.5 -7.5z" />
<glyph unicode="I" horiz-adv-x="456" d="M421 588q0 27 -2.5 56t-12.5 53.5t-30 40.5t-55 16q-34 0 -70 -20t-67.5 -50t-57 -64.5t-38.5 -63.5q-16 -35 -26.5 -72t-10.5 -75q0 -10 1 -25.5t5 -30t12 -25t22 -10.5q20 0 20 22q0 8 -3 15l-6 15q-4 8 -7 18.5t-3 25.5q0 32 9 69t23 65q9 17 27.5 41t41 46t46.5 37.5 t45 15.5q14 0 22.5 -9t13 -21.5t6 -26.5t1.5 -24q0 -31 -6.5 -88t-19 -124.5t-32 -137.5t-45.5 -127.5t-59.5 -94t-73.5 -36.5q-17 0 -28 4.5t-19 10.5l-13 10q-6 5 -14 5q-5 0 -11 -4t-6 -10q0 -14 10 -24t24.5 -17t30 -10t26.5 -3q61 0 109.5 33.5t85 88t62.5 123t42 138 t23.5 134t7.5 110.5z" />
<glyph unicode="J" horiz-adv-x="467" d="M363 270q20 70 32 140t12 143q0 24 -1.5 58.5t-10.5 66t-27.5 54t-53.5 22.5t-72 -19.5t-69.5 -49.5t-58 -64.5t-39.5 -64.5q-16 -35 -26.5 -72t-10.5 -75q0 -10 1 -26t5.5 -30t13 -24.5t23.5 -10.5q20 0 20 22q0 8 -3 15t-6 15t-6 17.5t-3 22.5q0 16 2.5 34.5t7.5 37 t11.5 36t13.5 31.5q9 18 27 42t39.5 45.5t45.5 36.5t46 15q18 0 27.5 -12.5t14 -30.5t5 -36.5t0.5 -30.5q0 -87 -17.5 -170.5t-38.5 -166.5q-41 -31 -87.5 -82.5t-86.5 -111t-66.5 -121.5t-26.5 -116v-14q0 -17 1.5 -37t8 -37t19.5 -28.5t36 -11.5q20 0 39 10.5t33 24.5 q41 37 74 98t58.5 129.5t43.5 137t30 122.5q9 4 19.5 9.5t20 13t16 17t6.5 20.5q0 7 -5 9t-10 2q-7 0 -13 -2.5t-13 -2.5h-1zM251 173q-4 -16 -15 -53l-28 -84q-15 -46 -34 -96t-38.5 -91.5t-37.5 -68t-33 -26.5q-6 0 -10 5.5t-5.5 13t-2 15.5t-0.5 12q0 41 20.5 94.5 t51 106.5t66 99t66.5 73z" />
<glyph unicode="K" horiz-adv-x="465" d="M147 714q20 0 35 -5.5t15 -29.5q0 -10 -4 -26t-9 -33l-12 -35l-8 -28q-19 -69 -32.5 -139t-20.5 -142l293 377q12 15 29 15q8 0 16 -4t8 -13q0 -10 -13.5 -33.5t-34.5 -54.5t-47 -65l-50 -64l-42 -55l-27 -34l-49 -62l-47 -63q49 -37 106.5 -64.5t115.5 -45.5l13 -4 q7 -2 15 -3q4 -1 12 -1q9 0 18 -1.5t15.5 -5t6.5 -9.5q0 -23 -14.5 -37t-37.5 -14q-20 0 -63 15t-90.5 35.5t-89 41.5t-58.5 34q-3 -12 -6.5 -33t-5.5 -44t-3.5 -44.5t-1.5 -33.5q0 -13 1 -24.5t-1 -21t-8.5 -17.5t-21.5 -15q-12 -5 -23 -5q-16 0 -21 11.5t-5 24.5 q0 165 19 325.5t62 319.5q2 9 6.5 25t10 32.5t12.5 30.5t15 18q5 3 11 3.5t11 0.5z" />
<glyph unicode="L" horiz-adv-x="572" d="M68 -34q6 0 14 4q30 14 61.5 25.5t65.5 11.5q29 0 57.5 -4.5t56.5 -10t56.5 -10t57.5 -4.5q30 0 57 13t50.5 34t42 46.5t31.5 49.5q3 6 5.5 12t2.5 13q0 6 -6 10t-11 4q-11 0 -25.5 -21.5t-35.5 -47t-49.5 -47t-68.5 -21.5q-30 0 -58.5 8t-56.5 17t-56.5 17t-58.5 8 q10 24 19 81l19 127l23 147q12 76 27.5 139.5t34.5 104t44 40.5q27 0 37 -20.5t14 -45.5l9 -44q4 -21 18 -21q12 0 16 6t4 17q0 23 -5.5 51t-18.5 52t-32.5 40.5t-48.5 16.5q-24 0 -46 -13t-39 -30q-35 -36 -56.5 -95t-34.5 -127.5t-21 -139.5t-16.5 -132t-21 -104.5 t-34.5 -57.5q-9 -5 -20 -7.5t-21.5 -6t-17.5 -11t-7 -22.5q0 -7 4 -16t10 -17t14 -13.5t15 -5.5z" />
<glyph unicode="M" horiz-adv-x="833" d="M628 301q0 -18 0.5 -45.5t3.5 -59t9.5 -63.5t18 -57.5t29 -41.5t43.5 -16q24 0 49.5 17.5t49 42t42 52t27.5 47.5q3 6 5.5 12t2.5 13q0 6 -5.5 10t-10.5 4q-8 0 -13.5 -5.5t-9.5 -11.5q-10 -14 -22.5 -35t-27 -40.5t-32 -33.5t-38.5 -14q-15 0 -24 15t-14 35.5t-6.5 41 t-1.5 31.5q0 69 6.5 136t17.5 134q4 23 7 45t3 45q0 13 -3 27.5t-20 14.5q-12 0 -24 -5q-9 -4 -14.5 -12.5t-9 -19t-5.5 -21.5t-4 -20q-6 -27 -19 -52.5t-24 -51.5l-51 -108l-54 -107l-38 -72q-19 -35 -41 -70q-3 -4 -7.5 -11t-10 -14t-11 -12t-10.5 -5q-8 0 -11.5 18.5 t-5 42t-1 45.5t0.5 28q0 100 2.5 197t2.5 197q0 9 -0.5 29t-2.5 41t-7 38.5t-14 21.5q-12 6 -28 6q-7 0 -20 -4t-25 -10.5t-21 -15t-9 -17.5q0 -4 1 -6q7 -20 9 -40.5t2 -41.5q0 -31 -9 -88.5t-26 -124.5t-41 -137t-54.5 -127t-66 -93t-75.5 -36q-11 0 -21.5 2.5t-21.5 2.5 q-8 0 -13.5 -6t-5.5 -14q0 -9 4.5 -14t11.5 -8t15 -3.5t15 -0.5q42 0 76.5 20t63 52.5t50.5 74.5t39 85t30 84l23 74q1 2 2 6t3 4t2 -4v-5q0 -36 0.5 -79.5t4 -88.5t11 -87t20.5 -75q7 -17 20.5 -30.5t33.5 -13.5q26 0 55 28t57.5 70.5t55.5 92.5l49 92l36 71q15 29 19 31 q1 -1 1 -3z" />
<glyph unicode="N" horiz-adv-x="752" d="M14 -98q44 0 77 20t57.5 53t42 74.5t29.5 85.5t19 85.5t12 74.5q1 6 2.5 22.5t3.5 34.5t5.5 31.5t7.5 13.5q5 0 7 -4.5t3 -7.5l23 -70q13 -41 30.5 -86t39 -89.5t48 -80t59 -57.5t70.5 -22q29 0 51 40t38 102t26 136.5t16 144.5t8.5 126t2.5 80q0 10 -2.5 22t-16.5 12 q-17 0 -23 -8t-6 -24q0 -5 0.5 -10t0.5 -10q0 -42 -2.5 -83t-6.5 -83l-6 -79q-4 -42 -9.5 -83.5t-13.5 -82t-20 -76.5q-1 -4 -4 -12t-7 -15t-9 -12.5t-11 -5.5q-19 0 -40 26.5t-41.5 68t-40 92t-35 98t-27 86t-16.5 56.5q-6 22 -11 44t-9 45l-3 24q-2 14 -8.5 27.5 t-23.5 13.5q-9 0 -21.5 -4.5t-24 -12t-19.5 -17t-8 -20.5q0 -12 4 -23.5t4 -24.5q0 -22 -3 -43q-3 -32 -8.5 -85t-15 -114t-25 -123.5t-39 -113t-56 -82.5t-77.5 -32q-11 0 -22.5 1.5t-22.5 1.5q-9 0 -16 -5t-7 -15q0 -9 8.5 -14t20 -8t23.5 -3.5t18 -0.5z" />
<glyph unicode="O" horiz-adv-x="613" d="M218 -40q55 0 102 22t85.5 58.5t68 85t49.5 101t30 106t10 100.5q0 20 -3 49.5t-9.5 62t-17.5 64.5t-26.5 57.5t-36.5 41.5t-48 16q-11 0 -22.5 -1.5t-22.5 -1.5q-17 0 -32 5t-32 5q-43 0 -79 -19.5t-65 -48.5q-38 -38 -66.5 -89t-47 -107t-28 -114t-9.5 -111 q0 -48 9.5 -98.5t32 -91t61.5 -66.5t97 -26zM373 665q41 0 67 -27.5t42 -67t22 -82.5t6 -74q0 -34 -8 -76.5t-23 -85.5t-37.5 -83.5t-51.5 -72.5t-64.5 -51t-76.5 -19q-42 0 -69 17t-42.5 44.5t-21.5 62t-6 69.5q0 48 11 102t30.5 106.5t47.5 99.5t62 81q23 23 51 40t61 17z " />
<glyph unicode="P" horiz-adv-x="452" d="M452 454q0 -62 -35.5 -113.5t-88.5 -90t-115 -63t-115 -33.5q-4 -11 -7 -29.5t-5.5 -38.5t-4 -39t-1.5 -31q0 -13 1 -24.5t-1 -21t-8.5 -17.5t-21.5 -15q-12 -5 -23 -5q-16 0 -21 11.5t-5 24.5q0 75 3 143t11 134t21 132.5t32 139.5q3 10 7 25.5t10 31.5t13.5 29t16.5 18 q6 4 13 5t14 1q18 0 30 -7.5t12 -27.5q0 -10 -3 -24.5t-7.5 -30t-9.5 -30t-8 -25.5q-20 -72 -33.5 -145.5t-20.5 -148.5q42 10 92 29t92.5 48t71.5 69t29 91q0 46 -23.5 85t-60 68.5t-80.5 47.5t-86 22q-6 1 -18.5 1.5t-25 3t-21.5 7.5t-9 15q0 6 4 16q8 19 16.5 23t28.5 4 q53 0 112.5 -19t110 -54t84 -83.5t33.5 -108.5z" />
<glyph unicode="Q" horiz-adv-x="613" d="M177 430q0 21 5 46q6 30 24.5 63.5t44 61.5t57.5 46t65 18q41 0 67 -27.5t42 -67t22 -82.5t6 -74q0 -48 -8.5 -94t-25.5 -90q-4 -11 -11 -25.5t-15 -29t-17.5 -26.5t-19.5 -19q-30 35 -70.5 66.5t-77.5 66t-62.5 75t-25.5 92.5zM368 87q-10 -13 -25.5 -23t-33.5 -17.5 t-37 -11.5t-35 -4q-36 0 -60.5 18.5t-40.5 46t-23 60.5t-7 63q0 66 21 126q6 -34 23 -62.5t40.5 -52.5t51 -45t53.5 -39l39 -28q20 -14 34 -31zM445 -41q0 -7 -0.5 -15.5t0.5 -16t6 -12.5t15 -5q8 0 12.5 7t7 17t3.5 19.5t1 15.5q0 33 -11.5 64t-31.5 57l37 51q17 25 30 54 q25 56 37.5 116.5t12.5 121.5q0 60 -12.5 121.5t-46.5 112.5q-14 20 -35.5 39t-47.5 19q-11 0 -22.5 -1.5t-22.5 -1.5q-17 0 -32 5t-32 5q-22 0 -44 -7.5t-41.5 -20t-37 -28t-31.5 -31.5q-33 -37 -60 -81.5t-45.5 -93t-29 -99.5t-10.5 -101q0 -47 9 -101t31.5 -100 t60.5 -76.5t97 -30.5q27 0 53.5 7.5t51.5 20t47.5 29t40.5 35.5q20 -23 30 -43t10 -52z" />
<glyph unicode="R" horiz-adv-x="451" d="M451 482q0 -56 -32 -106t-80.5 -90t-105 -66.5t-106.5 -35.5q53 -39 113.5 -65.5t123.5 -45.5l14 -4q6 -2 13 -3q4 -1 13 -1t18 -1.5t15.5 -5t6.5 -9.5q0 -23 -14.5 -37t-37.5 -14q-20 0 -63 15t-90.5 35.5t-89 41.5t-58.5 34q-3 -10 -5.5 -24t-4 -29t-2 -29.5 t-0.5 -25.5q0 -13 1 -24.5t-1 -21t-8.5 -17.5t-21.5 -15q-12 -5 -23 -5q-16 0 -21 11.5t-5 24.5q0 75 3 143t11 134t21 132.5t32 139.5q3 10 7 26t10 31.5t13.5 29t17.5 18.5t26 5q18 0 30 -7.5t12 -27.5q0 -10 -4.5 -26t-10 -33.5t-11.5 -34.5t-9 -28q-35 -127 -47 -254 q42 10 92 29t92.5 48t71.5 69t29 91q0 45 -24.5 79.5t-62 59t-81.5 38.5t-82 18q-6 1 -18.5 1.5t-25 3t-21.5 7.5t-9 15q0 6 4 16q8 19 16.5 23t28.5 4q8 0 16.5 -0.5t16.5 -1.5q48 -6 102 -21.5t99.5 -43.5t75.5 -70t30 -100z" />
<glyph unicode="S" horiz-adv-x="557" d="M425 567q0 -11 7.5 -18t18.5 -7q10 0 23 4.5t25.5 11.5t24 15t18.5 15q14 13 22 30.5t8 36.5t-11.5 30.5t-28.5 17.5t-35.5 8t-32.5 2q-29 0 -67 -3t-77 -10.5t-76.5 -21t-67 -34.5t-47.5 -50.5t-18 -68.5q0 -45 22.5 -83.5t55.5 -72t72.5 -63t72.5 -57.5t55.5 -55 t22.5 -55q0 -25 -16 -43.5t-41 -32t-57 -22t-63 -14t-59 -7.5t-46 -2q-25 0 -49 6.5t-49 6.5q-14 0 -23 -2.5t-9 -19.5q0 -10 9.5 -15.5t22 -8t25 -3.5t18.5 -2q27 -3 53 -3q29 0 66 3t77 10.5t78 20.5t68 33t48.5 49t18.5 67q0 39 -20.5 73.5t-51.5 66.5t-67.5 61t-67.5 58 t-51.5 58t-20.5 60q0 28 17.5 51.5t43.5 41.5t55 29.5t53 15.5q17 3 34 4t34 1q5 0 13 -0.5t16 -2t14 -5.5t6 -12q0 -12 -11 -23l-22 -23q-12 -11 -22.5 -23t-10.5 -24z" />
<glyph unicode="T" horiz-adv-x="567" d="M455 631q14 5 34.5 8.5t41.5 7.5t40 9t30 11q10 6 14.5 13t4.5 19q0 8 -2 19.5t-13 11.5q-6 0 -15.5 -2.5t-19.5 -6.5l-21 -7q-10 -4 -17 -6q-43 -11 -88 -18t-90 -12l-90 -8q-45 -5 -89 -11q-23 -3 -53 -9t-57 -17.5t-46 -30.5t-19 -50q0 -18 6 -37t16.5 -37t24 -33 t28.5 -25q9 -6 20 -6h6q7 4 7 11q0 6 -8.5 16.5t-19 26t-19 35.5t-8.5 44q0 13 14 22t33 15t38 9.5t28 4.5q48 8 95.5 11.5t95.5 10.5q3 -20 3.5 -40.5t0.5 -40.5q0 -27 -2.5 -79.5t-9 -115t-18.5 -127.5t-31.5 -118t-47 -87t-65.5 -34q-21 0 -35 9t-24 19l-20 20 q-8 9 -17 9t-15 -11q1 -12 7 -22t14 -18q20 -23 42.5 -34t53.5 -11q58 0 99.5 35.5t71 92.5t48 128.5t28.5 142t13.5 133.5t3.5 104v28q0 14 -2 28z" />
<glyph unicode="U" horiz-adv-x="595" d="M581 608q0 -7 -5 -26l-12 -42l-14 -44l-9 -32q-24 -106 -40 -212t-22 -215v-10q0 -11 0.5 -21.5t0.5 -21.5q0 -13 -4.5 -25.5t-21.5 -12.5q-12 0 -18 19t-8.5 43.5t-3 47.5t-0.5 31q0 60 3 119.5t11 119.5l-32 -58q-18 -34 -41.5 -69t-50.5 -69t-56.5 -61t-61.5 -43.5 t-64 -16.5q-38 0 -59.5 22t-32 54t-12.5 68t-2 63q0 81 8.5 164.5t31.5 161.5q3 11 8 26.5t12 30.5t16 27.5t20 17.5q6 3 12.5 3.5t13.5 0.5q14 0 26 -4.5t12 -22.5q0 -5 -1 -9.5t-3 -9.5q-14 -45 -25 -96.5t-19 -105t-12 -106t-4 -99.5q0 -12 0.5 -30.5t4.5 -35.5 t13.5 -29.5t26.5 -12.5q26 0 55.5 25t60 63.5t60 86.5t55 94t45 85t29.5 61l17 34q10 19 13 34l6 23q3 11 8.5 20t15 14.5t24.5 5.5q25 0 25 -25z" />
<glyph unicode="V" horiz-adv-x="601" d="M0 600q0 8 5 17.5t12.5 18.5t16 15t16.5 6q11 0 22 -11l20 -19q16 -17 28.5 -35.5t24.5 -38.5q57 -95 94.5 -198.5t60.5 -211.5q8 27 22 52l27 50l53 95l53 93l61 107q31 54 64 104q3 5 7.5 11.5t10 13t11 11t11.5 4.5q11 0 21 -8.5t10 -19.5q0 -5 -3 -10l-7 -8 q-29 -36 -51 -76l-46 -81l-84 -149l-81 -149l-18 -33l-20 -37q-10 -19 -18.5 -37.5t-12.5 -33.5q-4 -13 -5.5 -24.5t-5.5 -19.5t-12.5 -13t-26.5 -5q-12 0 -18 6t-9 15t-3.5 19t-2.5 18q-18 112 -58.5 225t-91.5 215l-25 47q-13 24 -30 44q-5 5 -13.5 14.5t-8.5 16.5z" />
<glyph unicode="W" horiz-adv-x="854" d="M72 325q0 81 -10 162t-40 156l-6 15q-2 7 -2 15q0 17 12.5 21.5t25.5 4.5q23 0 36 -13.5t21 -33.5q5 -12 8 -25t7 -26q17 -66 27.5 -131.5t10.5 -133.5q0 -21 -1.5 -42t-3.5 -42q20 47 48 90l56 85l40 60l40 60l21 30q10 15 22 29q10 11 21 21.5t28 10.5q18 0 35 -9 t17 -30q0 -14 -3 -26.5t-5 -26.5q-10 -56 -10 -117q0 -70 11.5 -144t34.5 -140l9 -25q5 -15 12.5 -28t18 -22t25.5 -9q18 0 31.5 8.5t24 22t18.5 28.5l14 30q22 46 41.5 97.5t34 105t23 107.5t8.5 106t-11 107q-2 6 -3 11.5t-1 11.5q0 10 7 14.5t16 4.5q14 0 22.5 -19 t13 -43.5t5.5 -48.5t1 -34q0 -63 -11.5 -138t-34.5 -149t-56 -140.5t-77 -113.5q-17 -19 -42 -33.5t-51 -14.5t-46.5 14t-36.5 34q-28 36 -47 87t-30.5 107t-16 112t-4.5 101q0 17 0.5 33t3.5 32q-25 -24 -54 -68t-57 -93l-53 -98l-42 -81l-30 -58q-15 -29 -26 -59l-8 -23 q-5 -12 -11.5 -21.5t-16 -15.5t-24.5 -6t-27 5.5t-12 23.5q0 7 2.5 12.5t5.5 11.5q32 66 41.5 143.5t9.5 150.5z" />
<glyph unicode="X" horiz-adv-x="630" d="M393 374q38 55 78.5 108t88.5 99q14 14 30 24.5t30 24.5q7 7 10 12.5t3 15.5q0 8 -3 12.5t-12 4.5q-18 0 -40 -13.5t-46 -35t-48 -48.5l-44 -52q-22 -26 -39 -50l-27 -37q-7 36 -18.5 78.5t-31 79.5t-50 62t-76.5 25q-53 0 -93 -23t-75 -61q-11 -11 -22 -24t-11 -30 q0 -8 5 -15t14 -7t20 11.5t28 25.5t42.5 25.5t62.5 11.5q26 0 43.5 -17t29.5 -42t19.5 -51.5t11.5 -46.5q6 -27 11 -55l11 -54l-27 -40l-42 -62l-50 -71q-27 -37 -51.5 -67.5t-44.5 -50t-31 -19.5q-9 0 -20 -1t-20.5 -4.5t-16 -10.5t-6.5 -19q0 -17 13 -28t29 -11 q20 0 45.5 18.5t53 48t55.5 65.5l53 71l45 65l33 48q4 -18 12 -45t19.5 -57.5t26 -62t31 -58t34.5 -45.5t37 -24q5 -2 9 -2h10q11 0 25.5 2t27.5 7t22.5 14.5t9.5 23.5q0 8 -4.5 13t-12.5 5q-6 0 -11.5 -3t-11.5 -3q-17 0 -34 21.5t-32 54.5t-28.5 74t-23.5 79t-17 69.5 t-9 46.5z" />
<glyph unicode="Y" horiz-adv-x="588" d="M432 367q-2 -36 -7.5 -82t-14 -95.5t-20.5 -100.5t-27.5 -98t-34.5 -87.5t-41 -69.5q-17 -22 -41 -35.5t-52 -13.5q-24 0 -42 8.5t-31.5 18.5t-23.5 18.5t-18 8.5q-16 0 -16 -15q0 -10 9.5 -22.5t17.5 -19.5q20 -18 47 -29t55 -11q46 0 85 24.5t71 66.5t58 97.5t46.5 117 t36 125.5t26.5 122.5t18.5 108.5t11.5 83q3 23 5.5 45.5t4.5 45.5q2 12 3.5 24.5t1.5 24.5q0 14 -4 24t-21 10h-8q-4 0 -8 -2q-14 -5 -21.5 -10.5t-11 -12.5t-4.5 -16l-4 -23q-1 -7 -4 -17l-8 -19q-4 -10 -8.5 -19.5t-7.5 -16.5l-27 -62q-18 -41 -41.5 -89t-51.5 -98.5 t-57.5 -91.5t-58.5 -67t-55 -26q-19 0 -29.5 15.5t-15 37t-5.5 44t-1 35.5q0 100 11 204.5t37 201.5q1 5 2 8.5t1 8.5q0 16 -10 22.5t-24 6.5q-8 0 -15.5 -0.5t-14.5 -4.5q-10 -5 -18.5 -17.5t-15 -27.5t-11 -30t-7.5 -26q-21 -78 -26 -162t-5 -164q0 -29 3 -68.5 t14.5 -75.5t35 -61t63.5 -25q34 0 67 18.5t62.5 49t56.5 69t49.5 78t39.5 76.5z" />
<glyph unicode="Z" horiz-adv-x="548" d="M451 -15q15 0 26 5q9 4 20 17.5t20.5 30t16 32.5t6.5 26t-9 14.5t-17 4.5q-14 0 -26 -12q-17 -18 -35.5 -30t-44.5 -15q-25 -3 -49.5 -3.5t-49.5 -1.5l-177 -6l83 101l82 101l81 109l78 111l29 45q14 22 30 44l21 29q12 17 12 33q0 10 -6.5 14t-14.5 4q-91 0 -181 0.5 t-181 0.5q-10 0 -19.5 1t-19.5 1q-11 0 -19 -4q-9 -4 -20 -18.5t-20.5 -32t-16 -35t-6.5 -27.5q0 -11 9.5 -15t17.5 -4t13.5 3t11.5 9q17 17 36.5 29t43.5 16q45 8 91 8h92q20 0 41 -0.5t41 -5.5q2 0 4 -1t2 -3q0 -7 -19.5 -37t-49.5 -72l-66 -90l-69 -91l-59 -78l-36 -46 l-16 -20l-18 -24l-18 -23q-9 -11 -17 -17q-11 -9 -21 -19t-10 -26q0 -15 13 -28t28 -13q2 0 3 0.5t3 0.5q65 13 132.5 13.5t133.5 0.5q14 0 28 -0.5t28 -2.5q17 -3 34 -3z" />
<glyph unicode="^" horiz-adv-x="527" d="M417 593h50l-176 188h-54l-177 -188h51l153 151z" />
<glyph unicode="_" horiz-adv-x="456" d="M-18 -102h492v35h-492v-35z" />
<glyph unicode="`" horiz-adv-x="276" d="M202 432q6 0 10 4.5t4 10.5q0 5 -2.5 10t-4.5 10q-14 26 -29 51t-29 51q-7 12 -14 26t-15 25q-12 15 -30 15q-14 0 -23 -9t-9 -23q0 -10 7 -21q9 -14 20 -27l22 -26l34 -41q17 -21 36 -41l11 -10q5 -5 12 -5z" />
<glyph unicode="a" horiz-adv-x="421" d="M476 162q0 19 -16 19q-11 0 -17 -8.5t-11 -16.5q-9 -14 -27 -37t-39 -44.5t-43 -37.5t-40 -16q-12 0 -18.5 12.5t-9.5 29t-3.5 32.5t-0.5 24q0 26 3.5 55.5t11.5 55.5l11 29q7 18 7 29q0 10 -7.5 13t-15.5 3q-14 0 -21.5 -9.5t-12.5 -20.5l-15 -30q-9 -21 -22 -45 l-28 -49q-14 -26 -29 -46.5t-29 -34t-25 -13.5q-9 0 -11 9t-2 15q0 57 23 106.5t62 89.5q22 23 46.5 40.5t51.5 33.5q4 2 7 4.5t3 7.5q0 11 -11 21t-22 10q-44 0 -84.5 -30t-72 -74.5t-50.5 -94.5t-19 -89q0 -14 2.5 -32t9 -34t18.5 -27t30 -11q20 0 40.5 15t39.5 36t34 44 l26 37q-1 -18 1 -44.5t10 -51t23 -42t40 -17.5q26 0 52.5 15t50 37t43.5 47l34 44q5 8 13.5 20t8.5 21z" />
<glyph unicode="b" horiz-adv-x="411" d="M309 320l21 3q14 2 27.5 6t23.5 10.5t10 15.5t-7.5 15.5t-16.5 5.5h-3q-30 -2 -59.5 -6t-59.5 -6q-15 -1 -30 -1q-14 0 -29 -1q-13 -1 -25.5 -7.5t-12.5 -21.5q0 -8 7 -18t16 -10q45 0 73 -19.5t28 -68.5q0 -20 -6.5 -45t-17.5 -49t-24.5 -45.5t-28.5 -35.5 q-8 -8 -19 -15.5t-24 -7.5q-19 0 -29 19.5t-15 45t-6 51t-1 36.5q0 48 8 96l16 96q15 96 44 189.5t64 183.5l9 22q5 13 9.5 26.5t7.5 27t3 23.5q0 11 -5 17.5t-16 6.5q-9 0 -18 -3t-17 -7q-12 -6 -20.5 -11t-14.5 -11.5t-10.5 -15.5t-9.5 -21q-14 -36 -25 -73l-22 -74 q-33 -115 -58.5 -233t-25.5 -238q0 -25 3.5 -59t14.5 -64t32 -51t56 -21q32 0 62 17.5t52 39.5q42 41 66.5 97t24.5 114q0 43 -22 75z" />
<glyph unicode="c" horiz-adv-x="369" d="M150 -22q44 0 85 14.5t76 39.5t64 58.5t50 70.5q3 5 6 11t3 12q0 16 -16 16q-10 0 -17.5 -9t-12.5 -17q-16 -27 -37.5 -52.5t-47 -45t-55.5 -31.5t-63 -12q-22 0 -37.5 9t-25 24t-13.5 33.5t-4 37.5q0 22 8 59t23 73t37 62t50 26q17 0 20.5 -12.5t3.5 -26.5 q0 -22 -9 -39.5t-9 -28.5q0 -10 11 -10q15 0 25 9t15 22t7 27.5t2 26.5q0 40 -21.5 58t-59.5 18q-45 0 -80 -25t-59 -62.5t-36 -82t-12 -83.5q0 -30 7 -60t23 -54.5t40.5 -40t58.5 -15.5z" />
<glyph unicode="d" horiz-adv-x="506" d="M255 135q3 -20 9.5 -46t18.5 -49.5t29.5 -40t43.5 -16.5q32 0 60.5 16t53.5 39.5t45.5 51.5t36.5 52q6 9 12.5 20t6.5 22q0 7 -2.5 14t-11.5 7q-10 0 -18 -12l-13 -20q-10 -17 -27.5 -41t-38 -45.5t-43.5 -36.5t-45 -15q-15 0 -24 20t-13 46.5t-5 52t-1 36.5 q24 47 53.5 112t55 134.5t42.5 137.5t17 120q0 13 -2 31.5t-8 35.5t-17 29t-29 12q-15 0 -29.5 -10t-25.5 -20q-21 -19 -39 -52t-33.5 -72.5t-27 -84t-20 -87t-12.5 -81.5t-4 -67q-20 23 -51 23q-23 0 -48.5 -12.5t-42.5 -26.5q-44 -38 -69.5 -94.5t-25.5 -114.5 q0 -13 3.5 -29t10.5 -30.5t18.5 -24.5t27.5 -10q22 0 48 14t51 33.5t47 41.5zM323 283q0 22 4 58.5t11.5 80.5t17.5 91t21.5 89t24.5 74.5t26 47.5l7 7q4 4 9 4q4 0 6 -3.5t3 -8.5t1 -10v-6q0 -46 -13 -104t-32.5 -117t-42.5 -115t-43 -98v10zM247 284v-43q0 -21 2 -43 q-7 -13 -28.5 -37t-47.5 -48t-52 -42t-42 -18q-8 0 -9 7.5t-1 12.5q0 31 15 68t40 68.5t57 53t66 21.5z" />
<glyph unicode="e" horiz-adv-x="321" d="M120 -13q41 0 79 14t71 37.5t60.5 54.5t46.5 65q5 8 7 14t2 16q0 5 -4.5 8t-9.5 3q-11 0 -18 -9t-12 -17q-15 -25 -35 -50t-44 -44.5t-52 -32t-60 -12.5q-35 0 -50 19.5t-15 53.5q0 19 5 42q23 8 50 30t50.5 50.5t39 59t15.5 55.5q0 26 -14.5 43t-41.5 17 q-40 0 -73.5 -31t-57.5 -75.5t-37 -92.5t-13 -82q0 -27 6 -51.5t19.5 -43t34.5 -30t51 -11.5zM185 357q10 0 13.5 -7.5t3.5 -15.5q0 -20 -11 -41.5t-27 -42t-35 -37t-35 -26.5q2 13 11 41.5t22 57t28 50t30 21.5z" />
<glyph unicode="f" horiz-adv-x="349" d="M201 229q13 0 30 -0.5t32 2.5t25.5 12t10.5 28q0 8 -5.5 10t-11.5 2q-8 0 -15.5 -1.5t-15.5 -3.5q-12 -2 -24 -3t-25 -1q-9 0 -22.5 0.5t-27.5 1.5t-27 3t-21 5q17 105 49 205.5t74 197.5q13 29 27.5 57.5t27.5 57.5q4 8 6.5 16.5t2.5 18.5q0 12 -5.5 21t-19.5 9 q-9 0 -20 -3t-22 -8t-20.5 -11.5t-15.5 -12.5q-8 -9 -13 -20l-10 -22q-75 -195 -112.5 -392.5t-37.5 -407.5q0 -14 0.5 -38.5t3 -52t7.5 -56t14.5 -52t24 -38t35.5 -14.5q48 0 79.5 30t50.5 73.5t26.5 92t7.5 85.5q0 24 -3 53t-10 58t-19 55t-31 43zM89 209q29 -15 48.5 -39 t31.5 -53t17.5 -61t5.5 -62v-3q0 -20 -1.5 -39.5t-5.5 -39.5q-2 -13 -8.5 -36t-16.5 -45t-24 -38t-32 -16q-14 0 -22.5 19.5t-13 45.5t-5.5 50.5t-1 35.5q0 71 8 141t19 140z" />
<glyph unicode="g" horiz-adv-x="472" d="M311 360q14 0 26.5 -4.5t22.5 -9.5t18 -9.5t13 -4.5q4 0 7.5 2.5t3.5 7.5q0 14 -13 24.5t-31 17t-36 10t-29 3.5q-54 0 -101 -20.5t-85 -58.5q-19 -19 -36 -43t-30 -51t-20.5 -55.5t-7.5 -55.5q0 -18 3.5 -35t12 -30t22.5 -21t35 -8q30 0 61.5 20t59.5 48.5t51.5 60 t37.5 55.5q2 -20 2.5 -40.5t0.5 -40.5q0 -24 -4.5 -66.5t-13.5 -92t-23.5 -100t-34.5 -92t-45.5 -67.5t-57.5 -26q-14 0 -20.5 6.5t-11 15t-9 15t-13.5 6.5q-10 0 -16 -7.5t-6 -16.5q0 -5 2 -9.5t4 -9.5q12 -21 31 -31t43 -10q62 0 105 36t72 93.5t46 129.5t25.5 144 t11 136.5t2.5 107.5q0 17 -9.5 28t-27.5 11q-21 0 -36 -17.5t-23 -34.5q-8 -20 -31 -54t-51.5 -66.5t-59 -56t-53.5 -23.5q-18 0 -24.5 11.5t-6.5 27.5q0 21 8.5 45t21.5 47t28.5 43.5t29.5 35.5q31 32 71.5 55.5t87.5 23.5z" />
<glyph unicode="h" horiz-adv-x="544" d="M321 351q8 0 9 -9.5t1 -14.5v-8q-5 -54 -10.5 -108t-5.5 -108q0 -14 0.5 -37.5t5.5 -45.5t15.5 -38t31.5 -16q35 0 70.5 19.5t66.5 49t56 63.5t40 63q2 4 4 7.5t2 8.5q0 8 -3 14t-12 6t-16 -9l-10 -16q-10 -16 -29 -41t-41 -48t-45.5 -40t-44.5 -17q-10 0 -15.5 4.5 t-8 11t-3 14.5t-0.5 15q0 63 9.5 125.5t9.5 125.5q0 14 -2.5 29.5t-9 29t-17.5 22.5t-28 9q-23 0 -48.5 -16.5t-50 -43.5t-48 -60t-43.5 -66.5t-36 -63t-25 -49.5q2 10 5.5 34.5t8 51.5t9 49.5t7.5 28.5l25 46q13 23 25 47q50 99 83.5 205t33.5 218q0 12 -2 28.5t-8 31 t-16.5 24.5t-27.5 10q-14 0 -27 -6.5t-23.5 -17t-19 -22.5t-14.5 -24q-24 -47 -41 -111.5t-29 -134t-20.5 -137.5t-14.5 -122l-10 -95l-12 -95q-3 -26 -7 -51.5t-4 -51.5q0 -8 1 -18.5t5 -19.5t10.5 -15.5t17.5 -6.5t20 6t15.5 15t12 19t9.5 19q6 13 22 42l36 67l44 77 l46 72q22 33 41 54t30 21zM238 836q5 0 7 -6t3.5 -14t1.5 -16v-11q0 -46 -13 -103t-32.5 -115t-43.5 -112t-47 -95q1 17 6.5 58.5t14 94t20 109t25 103.5t28 77t30.5 30z" />
<glyph unicode="i" horiz-adv-x="263" d="M98 119q0 46 9 89q3 11 8 26l10 28q5 15 8.5 28.5t3.5 23.5q0 22 -23 22q-32 0 -47.5 -18.5t-24.5 -45.5q-8 -26 -14.5 -60.5t-6.5 -62.5q0 -22 3 -51.5t13 -56t27.5 -45t47.5 -18.5q27 0 55 17.5t54.5 42.5t48.5 52.5t36 47.5l8 10l8.5 14.5t7.5 14.5t3 12q0 8 -1.5 15 t-11.5 7t-16 -9l-12 -16q-10 -16 -28.5 -43t-41 -52.5t-46 -44t-43.5 -18.5q-13 0 -20 11t-10.5 26t-4 30t-0.5 24zM138 489q-20 0 -33.5 -17t-13.5 -36q0 -15 9 -26.5t25 -11.5q20 0 34 16.5t14 36.5q0 15 -9.5 26.5t-25.5 11.5z" />
<glyph unicode="j" horiz-adv-x="230" d="M75 62l-18 -12q-39 -26 -81.5 -61t-78.5 -77t-59.5 -90t-23.5 -99q0 -20 5 -39.5t16 -34.5t27 -24.5t39 -9.5q32 0 61 16.5t50 38.5q48 49 76 126.5t42 164.5t17.5 173t3.5 153v19q0 12 -2 22.5t-8 18.5t-17 8q-9 0 -18.5 -6t-17.5 -15t-13.5 -19t-7.5 -18l-6 -30 q-11 -46 -32 -79.5t-48 -71.5q-4 -5 -6.5 -10t-2.5 -12q0 -13 13 -13q11 0 25 14t27 32.5t23 37t14 28.5q1 -30 1.5 -60.5t-0.5 -60.5v-10zM70 19q-3 -20 -9.5 -54t-17 -74t-25 -80.5t-33 -73.5t-40.5 -54t-47 -21q-11 0 -19 5.5t-13 14t-7 19t-2 19.5q0 41 22.5 84t55 83 t69.5 74.5t66 57.5zM63 459q0 -18 11 -34t31 -16t31 16t11 34t-11 33.5t-31 15.5t-31 -15.5t-11 -33.5z" />
<glyph unicode="k" horiz-adv-x="395" d="M107 143q15 -5 29 -12t28 -15q34 -17 67.5 -35.5t67.5 -35.5q8 -4 15.5 -7t15.5 -3q7 0 14 2.5t7 11.5q0 14 -10 25.5t-21 19.5q-29 20 -60 38l-61 34l-37 21q-19 10 -39 18l97 91q48 45 100 87q8 7 17.5 16.5t9.5 20.5q0 8 -6.5 15.5t-14.5 7.5q-10 0 -19.5 -9 t-16.5 -15l-92 -86q-46 -42 -90 -88q10 88 25.5 173.5t35.5 171.5l19 76q9 39 23 77q4 11 7 22t3 22q0 27 -25 27q-35 0 -54 -23t-28 -53q-20 -66 -32.5 -134t-23.5 -136q-14 -91 -22 -182t-8 -183v-44q0 -24 1 -48t2.5 -47.5t5.5 -42.5q2 -11 7.5 -19.5t18.5 -8.5 q9 0 14.5 5t8 12t3 15t0.5 15q0 23 2 45l4 45q2 29 4.5 57t7.5 56z" />
<glyph unicode="l" horiz-adv-x="299" d="M137 -39q31 0 62 19.5t59 47.5t50.5 60t37.5 56q5 8 10 17t5 19q0 7 -3 12.5t-11 5.5t-12.5 -4t-8.5 -10q-7 -10 -13 -20.5t-13 -20.5q-10 -14 -26.5 -35t-36 -40.5t-40.5 -33t-39 -13.5q-21 0 -33 19t-19 45t-9 52.5t-2 41.5q0 9 0.5 22.5t3.5 21.5q2 7 7 15l10 14 q12 20 24.5 38.5t23.5 38.5q23 41 45 93t40 107t29 110t11 102q0 14 -3 30t-9.5 29.5t-18 22t-29.5 8.5q-22 0 -43.5 -16t-40 -39.5t-32.5 -48.5t-22 -43q-42 -97 -59 -199.5t-17 -207.5q0 -19 1.5 -50t5.5 -66.5t12 -71t22 -64t33.5 -46.5t47.5 -18zM232 783q6 0 9 -4.5 t4.5 -10.5t1.5 -13v-9q0 -48 -15 -106t-37.5 -116.5t-50 -113t-51.5 -95.5q-1 8 -1 14v15q0 72 17.5 150.5t38.5 147.5l12 36q7 24 17.5 47t24.5 40.5t30 17.5z" />
<glyph unicode="m" horiz-adv-x="793" d="M304 5q10 0 16 5t11 13q8 12 23 39l33 59l41 69q21 35 41.5 64t38.5 47.5t30 18.5q6 0 9.5 -5t5 -11.5t2 -13.5t0.5 -11q0 -46 -4.5 -91t-4.5 -90q0 -18 1.5 -41t8.5 -44t20.5 -35t38.5 -14q26 0 56.5 17t60 41.5t54 51.5t39.5 47q3 4 6.5 9.5t3.5 10.5q0 7 -2.5 14 t-11.5 7q-10 0 -18 -9.5t-13 -16.5q-10 -13 -28 -33.5t-39 -39.5t-42.5 -32.5t-38.5 -13.5q-10 0 -15.5 6t-8 14t-3 17.5t-0.5 16.5q0 58 7 115.5t7 115.5q0 14 -3.5 28.5t-11 26.5t-19.5 20t-28 8q-23 0 -44.5 -15t-40 -36t-34.5 -44l-28 -40l-40 -58q-21 -28 -39 -58 q-2 -3 -6.5 -10.5t-7.5 -7.5q-2 0 -3 3t-1 4q-4 15 -4 31v32q0 29 1 58t1 58q0 10 -1.5 24t-6 27t-12.5 22t-22 9q-20 0 -44 -20.5t-46.5 -48.5t-41.5 -57l-30 -45q5 29 12 58t18 56l10 24l12 29q6 14 10 28t4 24q0 11 -5 17.5t-16 6.5q-21 0 -44 -10t-34 -30 q-6 -12 -15 -42t-18 -69.5t-18 -83.5t-15.5 -84.5t-11 -72.5t-4.5 -47q0 -9 5 -15.5t15 -6.5q14 0 22.5 9.5t13.5 20.5q5 12 19 38l33 59l40 68q22 35 42.5 64t38 47.5t27.5 18.5q8 0 9 -8t1 -13v-36v-58q0 -33 2 -68t6 -64.5t11 -48.5t17 -19z" />
<glyph unicode="n" horiz-adv-x="451" d="M22 -36q14 0 24.5 10t16.5 22q17 38 35 74.5t40 71.5q18 29 40 61t47 56q4 4 11 10t12 6q6 0 7.5 -8t1.5 -12q0 -29 -2 -57t-2 -57q0 -19 1.5 -42t9 -43t22 -33.5t40.5 -13.5q28 0 57.5 18t56 44t47 55.5t31.5 52.5q2 4 4.5 10t2.5 10q0 7 -4.5 13.5t-12.5 6.5 q-9 0 -15 -9t-10 -16q-8 -16 -23 -39t-34 -44.5t-39.5 -37t-40.5 -15.5q-12 0 -18.5 6t-9.5 15t-3.5 19.5t-0.5 19.5q0 35 2 70t2 70q0 11 -1 27t-5.5 32t-13.5 27t-24 11q-19 0 -44.5 -22t-50.5 -51t-47 -59l-32 -46q4 29 10 58t17 57q9 24 17.5 52.5t8.5 54.5 q0 16 -6.5 25t-23.5 9q-19 0 -36.5 -15t-21.5 -33q-5 -23 -9 -47t-9 -47l-31 -150q-15 -78 -15 -152q0 -10 5 -17.5t16 -7.5z" />
<glyph unicode="o" horiz-adv-x="368" d="M25 114q0 -22 5 -46t16 -43t29.5 -31.5t45.5 -12.5q21 0 41 7.5t37 18.5q29 19 49 46t33 58t19 64.5t6 66.5q0 23 -4.5 47t-15 44t-28.5 33t-46 13q-45 0 -79.5 -27.5t-58.5 -67.5t-36.5 -86t-12.5 -84zM212 313q16 0 26 -9.5t16 -23t8 -29.5t2 -28q0 -23 -4 -47.5 t-12.5 -47.5t-22 -43.5t-32.5 -35.5q-10 -8 -21.5 -13.5t-24.5 -5.5q-15 0 -25 8.5t-15.5 20.5t-7.5 26.5t-2 26.5q0 23 7.5 57t22 66t36 55t49.5 23z" />
<glyph unicode="p" horiz-adv-x="469" d="M107 65q1 8 2.5 27.5t4 40.5t5.5 39t6 23q8 15 27 41t41.5 50.5t46 43t40.5 18.5q19 0 24.5 -17t5.5 -32q0 -25 -11.5 -66.5t-31.5 -81t-47 -68.5t-57 -29q-21 0 -30.5 7t-18.5 7q-4 0 -7 -3zM261 -17q44 0 81.5 12.5t69 35t58 53t48.5 66.5q5 8 7.5 13.5t2.5 15.5 q0 18 -17 18q-9 0 -14 -9.5t-9 -15.5q-16 -29 -39 -56.5t-51.5 -48.5t-61 -34t-67.5 -13q-15 0 -30 3q14 2 25.5 9.5t21.5 17.5q20 19 36 47.5t27.5 60t18 63.5t6.5 59q0 20 -4 40t-13 35.5t-25 25t-40 9.5t-49.5 -15t-49 -37t-43.5 -45.5t-33 -41.5q2 17 4.5 34.5t2.5 34.5 q0 9 -4 19.5t-11 20t-16.5 15.5t-19.5 6q-13 0 -19.5 -9t-9.5 -21t-3.5 -25.5t-1.5 -22.5q-4 -35 -7 -70t-7 -70q-1 -10 -2 -27t-4 -26l-38 -118q-20 -63 -36.5 -129t-27 -130.5t-10.5 -120.5q0 -12 2 -30t8 -34t17 -27.5t28 -11.5q13 0 23.5 6.5t19.5 16.5t15.5 21.5 t10.5 21.5q17 40 28.5 100t20 124.5t14.5 127t10 108.5q11 -16 30 -26t41.5 -16t45 -8t40.5 -2zM32 14q-5 -86 -13.5 -171.5t-22.5 -170.5q-1 -5 -4 -22.5t-7.5 -37t-10.5 -35t-12 -15.5q-5 0 -7 6t-3.5 13.5t-1.5 15.5v10q0 39 7 94t19 112.5t26.5 111t29.5 89.5z" />
<glyph unicode="q" horiz-adv-x="455" d="M228 -65l-23 -103q-11 -52 -20 -105q-7 -38 -12 -75.5t-5 -75.5v-10q0 -7 1 -13.5t3.5 -12t6.5 -5.5q5 0 9.5 7t6.5 11q11 22 19 59.5t12.5 78t6.5 79.5t2 65q0 25 -1 50t-6 50zM112 -396q0 101 20 199.5t48 195.5q14 47 29.5 92.5t28.5 93.5q-8 -17 -24.5 -45.5 t-36.5 -57t-41 -52t-39 -29.5l-15 -4q-8 -2 -16 -2q-18 0 -29 9t-18 22.5t-9.5 30t-2.5 30.5q0 78 34.5 147.5t90.5 122.5q23 21 52 40t61 19q13 0 21.5 -5.5t8.5 -19.5q0 -9 -5 -16t-12.5 -12.5t-16 -10t-14.5 -9.5q-24 -17 -51.5 -48t-51.5 -67t-39.5 -73.5t-15.5 -67.5 q0 -4 0.5 -10.5t2 -12.5t5 -10t9.5 -4q10 0 23.5 14.5t28.5 37.5t30 50l30 54l24 47l16 30q8 13 19 26.5t28 13.5q12 0 26.5 -8t14.5 -22q0 -26 -10 -54.5t-16 -53.5q-10 -38 -17.5 -77t-16.5 -77q17 -5 31 -5q29 0 55 13t48.5 33.5t40.5 45.5t30 48q4 8 10 19t17 11 q10 0 13 -6.5t3 -14.5q0 -11 -6 -23l-11 -21q-16 -27 -38 -54t-49.5 -49t-58.5 -35.5t-65 -13.5h-9q-4 0 -9 1q8 -32 9 -66.5t1 -67.5q0 -32 -2 -73.5t-7 -84t-14.5 -82t-24.5 -67.5q-4 -8 -11 -18.5t-15 -19.5t-17.5 -15.5t-20.5 -6.5q-17 0 -27.5 15t-16.5 35t-8 41.5 t-2 33.5z" />
<glyph unicode="r" horiz-adv-x="390" d="M168 213q0 -28 -2.5 -55t-2.5 -55q0 -18 1.5 -42t8.5 -45.5t21 -37t39 -15.5q24 0 53.5 19.5t57 46.5t51 56t35.5 48q3 5 5.5 10t2.5 11q0 8 -2.5 14.5t-11.5 6.5t-16 -9l-11 -15q-9 -14 -28 -37.5t-41 -46.5t-44.5 -40t-39.5 -17q-14 0 -16.5 13.5t-2.5 23.5q0 36 6 71 t14 70q5 22 5 39q0 33 -14 52.5t-33.5 33t-39.5 25t-32 29.5q3 24 3 48q0 8 -1 21t-5 25.5t-10 22t-17 9.5q-15 0 -26 -13t-18.5 -31t-11 -37t-3.5 -31q0 -23 6 -44.5t20 -39.5q-6 -51 -31.5 -95t-54.5 -86q-4 -5 -6.5 -10.5t-2.5 -11.5q0 -13 13 -13q8 0 15 5t12 10 q17 17 31 39t26 46t22 48l17 46q22 -7 40.5 -22t18.5 -40z" />
<glyph unicode="s" horiz-adv-x="389" d="M160 328q12 -29 28 -58l31 -58q15 -30 25 -61t10 -63q0 -20 -5.5 -40t-17.5 -37q18 -1 42 15.5t48 39t44 46t29 37.5l12 17q7 9 17 9q9 0 12 -6t3 -14q0 -5 -3.5 -10.5t-5.5 -10.5q-28 -44 -59 -79t-67.5 -59t-81 -36.5t-98.5 -12.5q-29 0 -62.5 6t-55.5 27q-5 5 -8 10 t-3 12q0 15 16 15q6 0 10 -2l8 -5q17 -11 34 -15t37 -4q40 0 60.5 24.5t20.5 62.5q0 23 -6.5 49t-16.5 52t-22.5 50.5t-24.5 42.5q-7 -20 -17.5 -44.5t-23.5 -48.5t-27.5 -46t-29.5 -37q-5 -5 -11.5 -10.5t-14.5 -5.5q-14 0 -14 14q0 8 3.5 14t8.5 12q68 85 102 191 q-9 26 -9 53q0 15 5 35t14 38t23 31t32 13q9 0 15.5 -5.5t10 -14t5 -17.5t1.5 -17q0 -25 -7 -50.5t-16 -48.5z" />
<glyph unicode="t" horiz-adv-x="309" d="M230 474q6 1 18 4l25 6l24 7.5t15 5.5q6 4 9.5 7.5t3.5 11.5q0 13 -14 13q-17 0 -34 -3t-34 -5q11 38 16.5 78t5.5 79q0 11 -1 26.5t-5.5 29.5t-13.5 24t-25 10q-35 0 -63.5 -32t-50.5 -76.5t-37 -90t-23 -72.5q-16 -1 -33.5 -7t-17.5 -26q0 -24 24 -24q11 0 21 3 q-10 -48 -13.5 -97.5t-3.5 -98.5q0 -19 2 -47.5t7 -60.5t14 -64t22.5 -57.5t33 -41.5t45.5 -16q30 0 61 19.5t59 47.5t51 59.5t37 55.5q6 10 11 20t5 21q0 6 -4 10.5t-10 4.5q-8 0 -15 -8t-11 -15q-11 -18 -29.5 -44.5t-41 -50.5t-47 -41.5t-47.5 -17.5q-20 0 -32.5 24 t-19 56t-9 63.5t-2.5 46.5v11q0 7 2 11q2 5 7 11l8 10l14 20q7 9 13 20q25 41 48 87.5t35 92.5zM218 718q4 0 6 -4t3 -9t1 -10v-7q0 -40 -8 -87t-20 -85q-20 -5 -41 -6.5t-41 -4.5q2 15 11.5 50t23.5 71.5t31 64t34 27.5zM112 451q17 5 35 6.5t36 5.5q-5 -18 -15 -41.5 t-22.5 -48t-26 -46.5t-24.5 -36q3 40 5.5 80.5t11.5 79.5z" />
<glyph unicode="u" horiz-adv-x="500" d="M19 130q0 -19 1.5 -43.5t8 -46t21 -36.5t41.5 -15q28 0 56.5 17.5t54.5 42.5t48 53l36 49q-2 -10 -2 -19v-19q0 -16 1.5 -40.5t8.5 -46.5t20 -38t36 -16q29 0 61 22t62 53t54 64.5t36 57.5q2 5 4.5 10.5t2.5 10.5q0 8 -2.5 13.5t-11.5 5.5t-18 -11l-13 -19 q-8 -13 -27.5 -40t-42.5 -54.5t-46 -48t-38 -20.5q-10 0 -16 8.5t-9 20t-4 23.5t-1 19q0 23 3 52t8.5 58t13 57t15.5 50q3 9 6.5 18.5t3.5 19.5q0 11 -6.5 14t-15.5 3q-13 0 -21.5 -6.5t-14.5 -16t-10 -21t-8 -20.5q-6 -15 -20 -40l-32 -55q-18 -29 -39 -59t-42.5 -54.5 t-42 -40t-37.5 -15.5q-14 0 -16.5 15t-2.5 25q0 26 4.5 57t11 62.5t15 61.5t16.5 55q2 8 4.5 16.5t2.5 16.5q0 22 -23 22t-41.5 -13t-26.5 -36q-14 -43 -20.5 -90.5t-6.5 -92.5z" />
<glyph unicode="v" horiz-adv-x="399" d="M0 321q0 -6 5 -11.5t9 -9.5q18 -21 36 -57.5t34 -77.5t27.5 -81t15.5 -67q3 -16 6.5 -26.5t23.5 -10.5q18 0 22.5 10t7.5 24q2 10 15 34l30 58l39 68l41 70l36 58q16 25 24 35q2 3 4.5 6t2.5 8q0 10 -9 16.5t-18 6.5t-15 -8l-11 -13q-42 -60 -76 -124l-70 -127 q-6 28 -17 61t-25.5 66t-31.5 63t-37 51q-6 7 -13 12t-17 5q-13 0 -26 -13t-13 -26z" />
<glyph unicode="w" horiz-adv-x="578" d="M518 236q0 10 -1 29.5t-5 39.5t-12 35t-22 15q-11 0 -17 -9t-6 -19q0 -16 6 -21.5t12 -17.5q2 -4 3.5 -12.5t2.5 -18t1 -18.5v-15q0 -15 -4 -49.5t-12.5 -69.5t-22 -62t-33.5 -27q-10 0 -18 14.5t-14 37t-11 49.5t-8 52.5t-4.5 46t-1.5 28.5q0 16 -4.5 31t-24.5 15 q-10 0 -20.5 -2t-16.5 -11q-8 -11 -17 -27l-17 -28q-43 -63 -95 -115l-12 -11l-15 -14q-8 -7 -16.5 -12t-14.5 -5q-5 0 -5.5 5.5t-0.5 8.5q0 28 6 59.5t16 63.5t22 62t25 54q2 5 4.5 10t2.5 10q0 13 -10.5 17.5t-21.5 4.5q-13 0 -25 -5t-20 -16q-12 -18 -25.5 -51t-25 -70 t-19 -72t-7.5 -56q0 -14 1.5 -30t7 -29t16 -21.5t29.5 -8.5q24 0 54 22.5t59.5 53t54.5 61.5l41 50q1 -18 4 -46.5t8.5 -58.5t14.5 -56t22 -39q12 -12 27 -19.5t32 -7.5q42 0 68.5 31.5t40.5 75.5t19 90.5t5 77.5z" />
<glyph unicode="x" horiz-adv-x="426" d="M244 185l52 79q27 39 50 81q3 5 5 10t2 11t-4 11t-11 5q-6 0 -10 -3.5t-7 -8.5l-45 -71l-47 -71q-5 16 -11 31l-13 30l-11 23q-5 12 -12.5 22t-17.5 16t-25 6q-17 0 -35 -23t-34 -53.5t-29 -61t-20 -44.5q-7 -12 -7 -23q0 -15 16 -15q10 0 24 25t28 55l28 55q12 25 18 25 q5 0 8.5 -10t4.5 -14q8 -30 17 -59t17 -59q-6 -9 -25 -34l-38 -54q-20 -28 -35.5 -53t-15.5 -32q0 -9 8.5 -15t16.5 -6q11 0 17 9l90 139q7 -16 16.5 -35t22 -35.5t29 -27t37.5 -10.5q30 0 60 19t56.5 46.5t47 58.5t32.5 56q2 4 4.5 9.5t2.5 10.5q0 7 -3.5 13.5t-11.5 6.5 q-10 0 -17 -9.5t-11 -17.5q-9 -18 -24.5 -40.5t-35 -42t-41 -33t-44.5 -13.5q-11 0 -22 15.5t-20.5 36t-16.5 40.5z" />
<glyph unicode="y" horiz-adv-x="455" d="M117 -414q24 0 46 9t41 23t35.5 32.5t28.5 37.5q37 57 57.5 123t31 135.5t13 140t2.5 136.5v25q0 17 -1.5 35t-5 34t-9.5 20q-10 7 -20 7q-12 0 -20 -10l-16 -18l-70 -92q-35 -47 -76 -89l-14 -13q-9 -9 -19.5 -18t-20.5 -16t-16 -7q-8 0 -9 8t-1 13q0 14 4.5 35t11 44 t14.5 44l12 34q5 12 13 29.5t8 30.5q0 17 -13 29t-30 12q-14 0 -23 -8t-15 -20q-5 -9 -7.5 -18.5t-5.5 -19.5q-14 -43 -24.5 -89t-10.5 -91q0 -13 2 -27.5t8 -26t16.5 -19t27.5 -7.5q25 0 59.5 24.5t68.5 58t62.5 68t40.5 55.5q3 -78 3 -155v-29q0 -14 -1 -28 q-39 -25 -84.5 -62t-85 -80.5t-66 -92.5t-26.5 -99q0 -20 4.5 -39.5t14.5 -34.5t26 -24.5t39 -9.5zM290 -15q-3 -33 -11 -73.5t-19.5 -81.5t-27 -78.5t-35.5 -63.5q-7 -9 -16 -19.5t-19.5 -19.5t-22 -15t-23.5 -6t-19.5 6.5t-12 16t-6 21t-1.5 20.5q0 44 21.5 86t53.5 79.5 t69 69.5z" />
<glyph unicode="z" horiz-adv-x="377" d="M19 117q11 0 24.5 20t27 46t23.5 51t13 35q3 8 4.5 17t4.5 17q17 8 39 13.5t40 5.5q17 0 29.5 -7t12.5 -27q0 -22 -11 -46t-27.5 -46.5t-35.5 -42.5t-34 -34q-6 -5 -12.5 -12.5t-6.5 -15.5q0 -11 8 -19.5t16 -14.5q21 -19 40 -40t28 -49q-40 -20 -80.5 -50.5t-73.5 -68.5 t-53.5 -82.5t-20.5 -92.5q0 -42 26.5 -65t67.5 -23q53 0 95.5 29t71.5 73t44.5 96t15.5 99q0 31 -5 61.5t-16.5 58.5t-30 52t-45.5 42q15 20 35.5 42.5t39 47t31.5 50.5t13 52q0 40 -23 60t-61 20q-30 0 -59 -9t-55 -22q-1 24 -14 43t-39 19q-25 0 -42 -14.5t-17 -40.5 q0 -14 6.5 -23t17 -14t22.5 -7t23 -1h4q-1 -9 -9 -28.5t-19 -41.5l-20 -40q-11 -20 -17 -28q-5 -6 -8.5 -13t-3.5 -15q0 -7 4.5 -12t11.5 -5zM84 330q-4 -1 -11 -1q-10 0 -21.5 4t-11.5 16q0 22 21 22q15 0 19.5 -13t3.5 -24v-4zM213 -85q3 -17 3 -33q0 -23 -5 -50.5 t-14 -55t-22 -52t-28 -41.5q-16 -18 -40.5 -36t-50.5 -18q-23 0 -32 16t-9 36q0 42 18 77.5t46.5 65t64 52.5t69.5 39z" />
<glyph unicode="|" horiz-adv-x="161" d="M60 -78h41v787h-41v-787z" />
<glyph unicode="~" horiz-adv-x="377" d="M243 587q19 0 35 6t39 19v38q-32 -19 -46.5 -25t-27.5 -6q-10 0 -24 6q-20 8 -42.5 22t-43.5 14q-19 0 -34.5 -7t-38.5 -20v-37q32 19 46 25.5t27 6.5t27 -6.5t28.5 -14.5t28 -14.5t26.5 -6.5z" />
<glyph unicode="&#xa1;" horiz-adv-x="314" d="M79 -200q15 0 25.5 6t17 16t10 22.5t6.5 24.5q6 29 8 67l5 68q5 57 8 112.5t7 112.5q2 26 3.5 51.5t3.5 51.5q0 4 0.5 7.5t0.5 6.5q0 8 -2 19t-13 11q-17 0 -22.5 -11.5t-7.5 -25.5l-16 -78l-16 -78l-29 -133l-29 -133q-3 -14 -6 -29.5t-3 -31.5q0 -26 10 -41t39 -15z M173 577q-24 0 -30.5 -15.5t-6.5 -35.5q0 -17 13.5 -28.5t29.5 -11.5q20 0 27.5 17.5t7.5 33.5q0 18 -12 29t-29 11z" />
<glyph unicode="&#xa3;" horiz-adv-x="626" d="M375 342q0 12 -8.5 14.5t-17.5 2.5q-25 0 -49 -1l-50 -2q2 13 6.5 44.5t11.5 71t16.5 82t22 77.5t27.5 58t33 23q27 0 37 -20.5t14 -45.5l9 -44q4 -21 18 -21q12 0 16 6t4 17q0 23 -5.5 51t-18.5 52t-32.5 40.5t-48.5 16.5q-25 0 -46.5 -13t-38.5 -30 q-29 -29 -48.5 -74.5t-32 -96.5t-19.5 -102t-12 -91q-19 1 -38 3t-38 2q-12 0 -22.5 -6t-10.5 -20q0 -10 1.5 -13.5t10.5 -7.5q5 -2 17 -3t26 -1h28h20l-6 -55q-4 -37 -11.5 -76t-19.5 -72t-29 -43q-9 -5 -20 -7.5t-21.5 -6.5t-17.5 -11t-7 -22q0 -7 4 -16t10 -17t14 -13.5 t15 -5.5q6 0 14 4q30 14 61.5 25.5t65.5 11.5q29 0 57.5 -4.5t56.5 -10t56.5 -10t57.5 -4.5q30 0 57 13t50.5 34t42 46.5t31.5 49.5q3 6 5.5 12t2.5 13q0 6 -6 10t-11 4q-11 0 -25.5 -21.5t-35.5 -47t-49.5 -47t-68.5 -21.5q-30 0 -58.5 8t-56.5 17t-56.5 17t-58.5 8 q8 18 14.5 50t12 68t9.5 69l8 55q29 2 58.5 5.5t58.5 10.5q5 2 9.5 3t4.5 8z" />
<glyph unicode="&#xa8;" horiz-adv-x="338" d="M101 436q24 0 30.5 15.5t6.5 35.5q0 17 -13.5 28.5t-29.5 11.5q-20 0 -27.5 -17t-7.5 -34q0 -18 12 -29t29 -11zM241 436q24 0 30.5 15.5t6.5 35.5q0 17 -13.5 28.5t-29.5 11.5q-20 0 -27.5 -17t-7.5 -34q0 -18 12 -29t29 -11z" />
<glyph unicode="&#xa9;" horiz-adv-x="676" d="M337 -9q57 0 108 22t89 59.5t60 88.5t22 108q0 59 -21.5 109.5t-59.5 88.5t-88.5 59.5t-109.5 21.5q-58 0 -108.5 -22t-88 -60t-59 -88.5t-21.5 -108.5q0 -57 22 -107.5t59.5 -88.5t88 -60t107.5 -22zM337 510q51 0 95 -18.5t76.5 -51t51 -76.5t18.5 -95q0 -49 -19 -93 t-52 -76t-76.5 -51t-93.5 -19q-49 0 -92.5 19t-76.5 51.5t-52 76t-19 92.5q0 50 19 94t51.5 76.5t76 51.5t93.5 19zM336 98q109 0 136 113h-53q-11 -36 -30 -52t-48 -16q-44 0 -68.5 31.5t-24.5 94.5q0 64 24.5 97t68.5 33q27 0 45 -14.5t29 -46.5h54q-26 104 -129 104 q-69 0 -110 -46.5t-41 -127.5q0 -79 40 -124.5t107 -45.5z" />
<glyph unicode="&#xab;" horiz-adv-x="581" d="M60 171q0 -7 8 -13l202 -144q15 -10 30 -10q7 0 12.5 4t5.5 12q0 5 -0.5 9t-4.5 7l-148 135l150 126q6 5 6 18q0 8 -5.5 9.5t-11.5 1.5q-9 0 -17.5 -3t-16.5 -8l-202 -130q-8 -5 -8 -14zM260 171q0 -7 8 -13l202 -144q15 -10 30 -10q7 0 12.5 4t5.5 12q0 5 -0.5 9t-4.5 7 l-148 135l150 126q6 5 6 18q0 8 -5.5 9.5t-11.5 1.5q-9 0 -17.5 -3t-16.5 -8l-202 -130q-8 -5 -8 -14z" />
<glyph unicode="&#xac;" horiz-adv-x="475" d="M382 165v-98h33v131h-355v-33h322z" />
<glyph unicode="&#xad;" horiz-adv-x="481" d="M100 206q0 -9 1.5 -13.5t10.5 -7.5t28.5 -3.5t29.5 -0.5q25 0 56 1t63.5 3t63 6t54.5 10q5 2 9.5 3t4.5 8q0 12 -8.5 14.5t-17.5 2.5q-33 0 -66.5 -1.5t-66.5 -1.5q-43 0 -87 3l-21 2q-10 1 -21 1t-22 -6t-11 -20z" />
<glyph unicode="&#xae;" horiz-adv-x="387" d="M286 508q41 41 41 95q0 28 -10.5 52t-28.5 42t-42.5 28.5t-52.5 10.5q-55 0 -94 -39t-39 -91q0 -57 39 -98q18 -19 41.5 -29t49.5 -10q57 0 96 39zM193 711q23 0 43 -8.5t35 -23t23.5 -34t8.5 -42.5t-8.5 -43t-23.5 -34.5t-35 -23t-43 -8.5q-22 0 -41.5 8.5t-34.5 23 t-23.5 34.5t-8.5 43q0 46 31 77t77 31zM218 529h40l-33 64q30 12 30 39q0 21 -16 33t-47 12h-53v-148h35v59h16zM190 648q28 0 28 -17q0 -18 -26 -18h-18v35h16z" />
<glyph unicode="&#xb1;" horiz-adv-x="475" d="M255 188h160v34h-160v102h-34v-102h-161v-34h161v-101h34v101zM60 -3h355v34h-355v-34z" />
<glyph unicode="&#xb4;" horiz-adv-x="276" d="M74 432q-6 0 -10 4.5t-4 10.5q0 5 2.5 10t4.5 10q14 26 29 51t29 51q7 12 14 26t15 25q12 15 30 15q14 0 23 -9t9 -23q0 -10 -7 -21q-9 -14 -20 -27l-22 -26l-34 -41q-17 -21 -36 -41l-11 -10q-5 -5 -12 -5z" />
<glyph unicode="&#xbb;" horiz-adv-x="581" d="M321 171q0 -7 -8 -13l-202 -144q-15 -10 -30 -10q-7 0 -12.5 4t-5.5 12q0 5 0.5 9t4.5 7l148 135l-150 126q-6 5 -6 18q0 8 5.5 9.5t11.5 1.5q9 0 17.5 -3t16.5 -8l202 -130q8 -5 8 -14zM521 171q0 -7 -8 -13l-202 -144q-15 -10 -30 -10q-7 0 -12.5 4t-5.5 12q0 5 0.5 9 t4.5 7l148 135l-150 126q-6 5 -6 18q0 8 5.5 9.5t11.5 1.5q9 0 17.5 -3t16.5 -8l202 -130q8 -5 8 -14z" />
<glyph unicode="&#xbf;" horiz-adv-x="502" d="M304 521q0 -17 13.5 -28.5t29.5 -11.5q20 0 27.5 17.5t7.5 33.5q0 18 -12 29t-29 11q-24 0 -30.5 -15.5t-6.5 -35.5zM331 406q-8 0 -12 -3t-5.5 -8t-1.5 -11t-1 -12q-4 -35 -26 -67t-53 -63l-68 -65q-35 -33 -64.5 -69.5t-49.5 -78t-20 -90.5q0 -36 13 -62.5t35 -43.5 t51.5 -25t62.5 -8q29 0 58 11t51.5 30.5t36.5 46t14 57.5q0 10 -3.5 27t-10 33t-16.5 27.5t-23 11.5q-8 0 -14.5 -5t-6.5 -13q0 -3 4.5 -10t9.5 -17.5t9.5 -24.5t4.5 -30q0 -19 -8.5 -35.5t-22 -29t-31 -20t-35.5 -7.5t-33 7.5t-26.5 20t-18 28.5t-6.5 33q0 48 16.5 87 t42 72.5t54.5 64t54.5 62t42 65.5t16.5 74q0 5 -0.5 12t-2.5 13t-6 10.5t-11 4.5z" />
<glyph unicode="&#xc0;" d="M442 792q6 0 10 4.5t4 10.5q0 5 -2.5 10t-4.5 10q-14 26 -29 51t-29 51q-7 12 -14 26t-15 25q-12 15 -30 15q-14 0 -23 -9t-9 -23q0 -10 7 -21q9 -14 20 -27l22 -26l34 -41q17 -21 36 -41q5 -5 10.5 -10t12.5 -5zM393 305q-29 -4 -58 -7t-58 -8q17 36 31 72l29 74 q2 5 6.5 18t10 27t10.5 25t7 11q3 0 5 -10t3 -23.5t1.5 -27t0.5 -20.5q2 -33 5 -65.5t7 -65.5zM575 -16q28 0 56.5 16.5t54 40.5t46 52t33.5 50q3 6 5.5 12t2.5 13q0 6 -6 10t-11 4q-8 0 -13.5 -6t-9.5 -11q-12 -18 -28.5 -39t-36 -39t-42 -30t-46.5 -12q-15 0 -27.5 14 t-22.5 36.5t-17.5 49.5t-13 53t-8.5 48t-4 33q18 3 43.5 6t42.5 8q9 2 17 8.5t8 17.5q0 8 -6 11t-13 3q-24 0 -48.5 -4.5t-47.5 -7.5q-5 44 -6 87t-1 87q0 55 4.5 110t4.5 110v3q0 10 -5.5 23t-17.5 13q-9 0 -24.5 -4t-30 -11t-25 -16.5t-10.5 -20.5q0 -30 -5.5 -56 t-17.5 -54q-10 -24 -25 -64l-36 -92l-44 -106q-23 -56 -49 -111t-54.5 -105t-57.5 -88.5t-59 -61t-59 -22.5q-14 0 -27 4.5t-26 4.5q-8 0 -15 -4t-7 -13q0 -10 8.5 -16t20 -9t23.5 -4t19 -1q40 0 73.5 17t61.5 44.5t51.5 63t43 73.5t35.5 75t31 67q36 4 71.5 10.5t71.5 11.5 q5 -35 15.5 -83.5t30.5 -92.5t51.5 -75t77.5 -31z" />
<glyph unicode="&#xc1;" d="M424 792q-6 0 -10 4.5t-4 10.5q0 5 2.5 10t4.5 10q14 26 29 51t29 51q7 12 14 26t15 25q12 15 30 15q14 0 23 -9t9 -23q0 -10 -7 -21q-9 -14 -20 -27l-22 -26l-34 -41q-17 -21 -36 -41q-5 -5 -10.5 -10t-12.5 -5zM393 305q-29 -4 -58 -7t-58 -8q17 36 31 72l29 74 q2 5 6.5 18t10 27t10.5 25t7 11q3 0 5 -10t3 -23.5t1.5 -27t0.5 -20.5q2 -33 5 -65.5t7 -65.5zM575 -16q28 0 56.5 16.5t54 40.5t46 52t33.5 50q3 6 5.5 12t2.5 13q0 6 -6 10t-11 4q-8 0 -13.5 -6t-9.5 -11q-12 -18 -28.5 -39t-36 -39t-42 -30t-46.5 -12q-15 0 -27.5 14 t-22.5 36.5t-17.5 49.5t-13 53t-8.5 48t-4 33q18 3 43.5 6t42.5 8q9 2 17 8.5t8 17.5q0 8 -6 11t-13 3q-24 0 -48.5 -4.5t-47.5 -7.5q-5 44 -6 87t-1 87q0 55 4.5 110t4.5 110v3q0 10 -5.5 23t-17.5 13q-9 0 -24.5 -4t-30 -11t-25 -16.5t-10.5 -20.5q0 -30 -5.5 -56 t-17.5 -54q-10 -24 -25 -64l-36 -92l-44 -106q-23 -56 -49 -111t-54.5 -105t-57.5 -88.5t-59 -61t-59 -22.5q-14 0 -27 4.5t-26 4.5q-8 0 -15 -4t-7 -13q0 -10 8.5 -16t20 -9t23.5 -4t19 -1q40 0 73.5 17t61.5 44.5t51.5 63t43 73.5t35.5 75t31 67q36 4 71.5 10.5t71.5 11.5 q5 -35 15.5 -83.5t30.5 -92.5t51.5 -75t77.5 -31z" />
<glyph unicode="&#xc2;" d="M429 922q-6 0 -11 -5l-119 -125q-3 -4 -6 -8.5t-3 -10.5q0 -7 4 -10.5t9 -3.5q6 0 14 6l112 92l105 -93q8 -6 14 -6q10 0 10 13q0 6 -3 11.5t-6 9.5l-108 125q-5 5 -12 5zM393 305q-29 -4 -58 -7t-58 -8q17 36 31 72l29 74q2 5 6.5 18t10 27t10.5 25t7 11q3 0 5 -10 t3 -23.5t1.5 -27t0.5 -20.5q2 -33 5 -65.5t7 -65.5zM575 -16q28 0 56.5 16.5t54 40.5t46 52t33.5 50q3 6 5.5 12t2.5 13q0 6 -6 10t-11 4q-8 0 -13.5 -6t-9.5 -11q-12 -18 -28.5 -39t-36 -39t-42 -30t-46.5 -12q-15 0 -27.5 14t-22.5 36.5t-17.5 49.5t-13 53t-8.5 48t-4 33 q18 3 43.5 6t42.5 8q9 2 17 8.5t8 17.5q0 8 -6 11t-13 3q-24 0 -48.5 -4.5t-47.5 -7.5q-5 44 -6 87t-1 87q0 55 4.5 110t4.5 110v3q0 10 -5.5 23t-17.5 13q-9 0 -24.5 -4t-30 -11t-25 -16.5t-10.5 -20.5q0 -30 -5.5 -56t-17.5 -54q-10 -24 -25 -64l-36 -92l-44 -106 q-23 -56 -49 -111t-54.5 -105t-57.5 -88.5t-59 -61t-59 -22.5q-14 0 -27 4.5t-26 4.5q-8 0 -15 -4t-7 -13q0 -10 8.5 -16t20 -9t23.5 -4t19 -1q40 0 73.5 17t61.5 44.5t51.5 63t43 73.5t35.5 75t31 67q36 4 71.5 10.5t71.5 11.5q5 -35 15.5 -83.5t30.5 -92.5t51.5 -75 t77.5 -31z" />
<glyph unicode="&#xc3;" d="M497 783q31 0 52.5 19t21.5 56q0 16 -14 16q-15 0 -15 -14q0 -13 -14 -21t-31 -8q-18 0 -29 8.5t-21 18.5t-23 18.5t-36 8.5q-14 0 -29.5 -6.5t-28.5 -17.5t-21.5 -26t-8.5 -32q0 -5 3 -10t11 -5t11 5t3 10q0 14 17.5 24.5t42.5 10.5q15 0 24.5 -8.5t19.5 -19t24.5 -19 t40.5 -8.5zM393 305q-29 -4 -58 -7t-58 -8q17 36 31 72l29 74q2 5 6.5 18t10 27t10.5 25t7 11q3 0 5 -10t3 -23.5t1.5 -27t0.5 -20.5q2 -33 5 -65.5t7 -65.5zM575 -16q28 0 56.5 16.5t54 40.5t46 52t33.5 50q3 6 5.5 12t2.5 13q0 6 -6 10t-11 4q-8 0 -13.5 -6t-9.5 -11 q-12 -18 -28.5 -39t-36 -39t-42 -30t-46.5 -12q-15 0 -27.5 14t-22.5 36.5t-17.5 49.5t-13 53t-8.5 48t-4 33q18 3 43.5 6t42.5 8q9 2 17 8.5t8 17.5q0 8 -6 11t-13 3q-24 0 -48.5 -4.5t-47.5 -7.5q-5 44 -6 87t-1 87q0 55 4.5 110t4.5 110v3q0 10 -5.5 23t-17.5 13 q-9 0 -24.5 -4t-30 -11t-25 -16.5t-10.5 -20.5q0 -30 -5.5 -56t-17.5 -54q-10 -24 -25 -64l-36 -92l-44 -106q-23 -56 -49 -111t-54.5 -105t-57.5 -88.5t-59 -61t-59 -22.5q-14 0 -27 4.5t-26 4.5q-8 0 -15 -4t-7 -13q0 -10 8.5 -16t20 -9t23.5 -4t19 -1q40 0 73.5 17 t61.5 44.5t51.5 63t43 73.5t35.5 75t31 67q36 4 71.5 10.5t71.5 11.5q5 -35 15.5 -83.5t30.5 -92.5t51.5 -75t77.5 -31z" />
<glyph unicode="&#xc4;" d="M361 796q24 0 30.5 15.5t6.5 35.5q0 17 -13.5 28.5t-29.5 11.5q-20 0 -27.5 -17t-7.5 -34q0 -18 12 -29t29 -11zM501 796q24 0 30.5 15.5t6.5 35.5q0 17 -13.5 28.5t-29.5 11.5q-20 0 -27.5 -17t-7.5 -34q0 -18 12 -29t29 -11zM393 305q-29 -4 -58 -7t-58 -8q17 36 31 72 l29 74q2 5 6.5 18t10 27t10.5 25t7 11q3 0 5 -10t3 -23.5t1.5 -27t0.5 -20.5q2 -33 5 -65.5t7 -65.5zM575 -16q28 0 56.5 16.5t54 40.5t46 52t33.5 50q3 6 5.5 12t2.5 13q0 6 -6 10t-11 4q-8 0 -13.5 -6t-9.5 -11q-12 -18 -28.5 -39t-36 -39t-42 -30t-46.5 -12 q-15 0 -27.5 14t-22.5 36.5t-17.5 49.5t-13 53t-8.5 48t-4 33q18 3 43.5 6t42.5 8q9 2 17 8.5t8 17.5q0 8 -6 11t-13 3q-24 0 -48.5 -4.5t-47.5 -7.5q-5 44 -6 87t-1 87q0 55 4.5 110t4.5 110v3q0 10 -5.5 23t-17.5 13q-9 0 -24.5 -4t-30 -11t-25 -16.5t-10.5 -20.5 q0 -30 -5.5 -56t-17.5 -54q-10 -24 -25 -64l-36 -92l-44 -106q-23 -56 -49 -111t-54.5 -105t-57.5 -88.5t-59 -61t-59 -22.5q-14 0 -27 4.5t-26 4.5q-8 0 -15 -4t-7 -13q0 -10 8.5 -16t20 -9t23.5 -4t19 -1q40 0 73.5 17t61.5 44.5t51.5 63t43 73.5t35.5 75t31 67 q36 4 71.5 10.5t71.5 11.5q5 -35 15.5 -83.5t30.5 -92.5t51.5 -75t77.5 -31z" />
<glyph unicode="&#xc5;" d="M432 788q20 0 36.5 11t28 27.5t18 36t6.5 37.5q0 12 -2.5 25t-8.5 23.5t-15.5 17t-24.5 6.5q-21 0 -37.5 -11t-28 -28.5t-18 -37.5t-6.5 -38q0 -24 12 -46.5t40 -22.5zM471 937q11 0 15.5 -13t4.5 -21q0 -10 -4.5 -25t-12 -28.5t-18.5 -23t-23 -9.5q-11 0 -12.5 11.5 t-1.5 19.5q0 10 3.5 25t10 29.5t16.5 24.5t22 10zM393 305q-29 -4 -58 -7t-58 -8q17 36 31 72l29 74q2 5 6.5 18t10 27t10.5 25t7 11q3 0 5 -10t3 -23.5t1.5 -27t0.5 -20.5q2 -33 5 -65.5t7 -65.5zM575 -16q28 0 56.5 16.5t54 40.5t46 52t33.5 50q3 6 5.5 12t2.5 13 q0 6 -6 10t-11 4q-8 0 -13.5 -6t-9.5 -11q-12 -18 -28.5 -39t-36 -39t-42 -30t-46.5 -12q-15 0 -27.5 14t-22.5 36.5t-17.5 49.5t-13 53t-8.5 48t-4 33q18 3 43.5 6t42.5 8q9 2 17 8.5t8 17.5q0 8 -6 11t-13 3q-24 0 -48.5 -4.5t-47.5 -7.5q-5 44 -6 87t-1 87q0 55 4.5 110 t4.5 110v3q0 10 -5.5 23t-17.5 13q-9 0 -24.5 -4t-30 -11t-25 -16.5t-10.5 -20.5q0 -30 -5.5 -56t-17.5 -54q-10 -24 -25 -64l-36 -92l-44 -106q-23 -56 -49 -111t-54.5 -105t-57.5 -88.5t-59 -61t-59 -22.5q-14 0 -27 4.5t-26 4.5q-8 0 -15 -4t-7 -13q0 -10 8.5 -16t20 -9 t23.5 -4t19 -1q40 0 73.5 17t61.5 44.5t51.5 63t43 73.5t35.5 75t31 67q36 4 71.5 10.5t71.5 11.5q5 -35 15.5 -83.5t30.5 -92.5t51.5 -75t77.5 -31z" />
<glyph unicode="&#xc6;" horiz-adv-x="867" d="M683 39q-43 -7 -74 5.5t-52.5 35.5t-34 53.5t-19 60.5t-7.5 55.5t0 38.5q23 3 65 12l86 17l83 17q38 9 53 13q23 5 29.5 14t3.5 23q0 2 -6 3t-13 1.5t-14 0.5h-8q-16 0 -54 -3l-80 -6l-79 -7q-37 -3 -51 -3q6 23 17.5 57t28 72.5t37.5 77t45.5 69t52 50t56.5 19.5 q30 0 44 -14t21.5 -31t12 -31t15.5 -14q15 0 17.5 11t2.5 23q0 51 -29.5 79t-80.5 28q-46 0 -87 -21t-75.5 -55.5t-63 -78.5t-49.5 -91q2 49 5.5 97.5t3.5 97.5v3q0 10 -5.5 23t-17.5 13q-9 0 -24.5 -4t-30 -11t-25 -16.5t-10.5 -20.5q0 -30 -5.5 -56t-17.5 -54 q-10 -24 -25 -64l-36 -92l-44 -106q-23 -56 -49 -111t-54.5 -105t-57.5 -88.5t-59 -61t-59 -22.5q-14 0 -27 4.5t-26 4.5q-8 0 -15 -4t-7 -13q0 -10 8.5 -16t20 -9t23.5 -4t19 -1q40 0 73.5 17t61.5 44.5t51.5 63t43 73.5t35.5 75t31 67q36 4 71.5 10.5t71.5 11.5 q3 -23 9.5 -52.5t14.5 -61.5q9 -36 23.5 -68t37.5 -57t54.5 -39.5t73.5 -14.5q43 0 84 13.5t78.5 36.5t69.5 53.5t56 64.5l13 21q8 13 8 23q0 8 -4.5 13t-12.5 5q-7 0 -10.5 -3t-7.5 -8q-9 -13 -16.5 -25.5t-17.5 -24.5q-15 -18 -34 -35t-41 -31t-46 -23.5t-49 -13.5z M393 305q-29 -4 -58 -7t-58 -8q17 36 31 72l29 74q2 5 6.5 18t10 27t10.5 25t7 11q3 0 5 -10t3 -23.5t1.5 -27t0.5 -20.5q2 -33 5 -65.5t7 -65.5z" />
<glyph unicode="&#xc7;" horiz-adv-x="605" d="M415 -98q0 42 -11 70q39 7 76.5 24t70.5 40.5t60.5 53t46.5 63.5l8 15q5 10 5 17t-4.5 12t-11.5 5q-9 0 -15.5 -8t-11.5 -15q-8 -12 -15 -24t-16 -23q-42 -51 -99 -79.5t-123 -28.5q-58 0 -95 22.5t-58 60t-29 85.5t-8 99q0 28 6.5 68.5t19.5 84.5t32 87t44 77.5t56 56 t68 21.5t56.5 -25.5t19.5 -60.5q0 -21 -4 -43.5t-9 -42.5q-2 -6 -6 -15l-7 -19q-4 -9 -6.5 -17.5t-2.5 -14.5q0 -11 7.5 -14.5t17.5 -3.5q14 0 24 7q11 8 18.5 29.5t12 47t6.5 50t2 37.5q0 30 -10 56t-28.5 45t-43.5 29.5t-55 10.5q-53 0 -98.5 -20.5t-82 -55.5t-64.5 -81 t-47 -96t-28.5 -101t-9.5 -97q0 -62 17.5 -120.5t52 -103.5t86 -72.5t119.5 -27.5q7 -15 11 -29.5t4 -31.5q0 -9 -5.5 -17t-13.5 -14t-18.5 -9t-19.5 -1q-4 1 -13 1t-14.5 -6.5t-5.5 -14.5q0 -7 5 -12.5t11.5 -9t14 -5.5t13.5 -2q15 0 32.5 4.5t32 14.5t24 26.5t9.5 40.5z " />
<glyph unicode="&#xc8;" horiz-adv-x="515" d="M412 792q6 0 10 4.5t4 10.5q0 5 -2.5 10t-4.5 10q-14 26 -29 51t-29 51q-7 12 -14 26t-15 25q-12 15 -30 15q-14 0 -23 -9t-9 -23q0 -10 7 -21q9 -14 20 -27l22 -26l34 -41q17 -21 36 -41q5 -5 10.5 -10t12.5 -5zM399 746q51 0 80.5 -28t29.5 -79q0 -12 -2.5 -23 t-17.5 -11q-11 0 -15.5 14t-12 31t-21.5 31t-44 14q-29 0 -55.5 -18.5t-49 -47.5t-41.5 -65.5t-33.5 -73.5t-24.5 -70.5t-16 -55.5q13 4 47 7.5t73 6t74 4t51 1.5h8q7 0 14.5 -0.5t13 -1.5t5.5 -3q0 -14 -10 -24t-23 -13q-4 1 -23 -3l-48 -10l-60 -13l-59 -13l-49 -12 q-20 -5 -25 -6q-2 -8 -2.5 -17t-0.5 -18q0 -37 6.5 -78t23.5 -75.5t45.5 -57.5t73.5 -23q58 0 106.5 31.5t83.5 75.5q10 12 17.5 24.5t16.5 25.5q4 5 7.5 8t10.5 3q8 0 12.5 -5t4.5 -13q0 -10 -8 -23l-13 -21q-24 -34 -56 -64.5t-69.5 -53.5t-78.5 -36.5t-84 -13.5 q-57 0 -95 26t-61.5 66.5t-33.5 90t-10 97.5q0 7 0.5 13.5t0.5 13.5h-22q-12 0 -23 3t-18.5 10t-7.5 21t8.5 22t20.5 13t26 7.5t24 5.5q8 37 23 81t37 89t49.5 87t61.5 75t73.5 52.5t84.5 19.5z" />
<glyph unicode="&#xc9;" horiz-adv-x="515" d="M384 792q-6 0 -10 4.5t-4 10.5q0 5 2.5 10t4.5 10q14 26 29 51t29 51q7 12 14 26t15 25q12 15 30 15q14 0 23 -9t9 -23q0 -10 -7 -21q-9 -14 -20 -27l-22 -26l-34 -41q-17 -21 -36 -41q-5 -5 -10.5 -10t-12.5 -5zM399 746q51 0 80.5 -28t29.5 -79q0 -12 -2.5 -23 t-17.5 -11q-11 0 -15.5 14t-12 31t-21.5 31t-44 14q-29 0 -55.5 -18.5t-49 -47.5t-41.5 -65.5t-33.5 -73.5t-24.5 -70.5t-16 -55.5q13 4 47 7.5t73 6t74 4t51 1.5h8q7 0 14.5 -0.5t13 -1.5t5.5 -3q0 -14 -10 -24t-23 -13q-4 1 -23 -3l-48 -10l-60 -13l-59 -13l-49 -12 q-20 -5 -25 -6q-2 -8 -2.5 -17t-0.5 -18q0 -37 6.5 -78t23.5 -75.5t45.5 -57.5t73.5 -23q58 0 106.5 31.5t83.5 75.5q10 12 17.5 24.5t16.5 25.5q4 5 7.5 8t10.5 3q8 0 12.5 -5t4.5 -13q0 -10 -8 -23l-13 -21q-24 -34 -56 -64.5t-69.5 -53.5t-78.5 -36.5t-84 -13.5 q-57 0 -95 26t-61.5 66.5t-33.5 90t-10 97.5q0 7 0.5 13.5t0.5 13.5h-22q-12 0 -23 3t-18.5 10t-7.5 21t8.5 22t20.5 13t26 7.5t24 5.5q8 37 23 81t37 89t49.5 87t61.5 75t73.5 52.5t84.5 19.5z" />
<glyph unicode="&#xca;" horiz-adv-x="515" d="M399 746q51 0 80.5 -28t29.5 -79q0 -12 -2.5 -23t-17.5 -11q-11 0 -15.5 14t-12 31t-21.5 31t-44 14q-29 0 -55.5 -18.5t-49 -47.5t-41.5 -65.5t-33.5 -73.5t-24.5 -70.5t-16 -55.5q13 4 47 7.5t73 6t74 4t51 1.5h8q7 0 14.5 -0.5t13 -1.5t5.5 -3q0 -14 -10 -24t-23 -13 q-4 1 -23 -3l-48 -10l-60 -13l-59 -13l-49 -12q-20 -5 -25 -6q-2 -8 -2.5 -17t-0.5 -18q0 -37 6.5 -78t23.5 -75.5t45.5 -57.5t73.5 -23q58 0 106.5 31.5t83.5 75.5q10 12 17.5 24.5t16.5 25.5q4 5 7.5 8t10.5 3q8 0 12.5 -5t4.5 -13q0 -10 -8 -23l-13 -21 q-24 -34 -56 -64.5t-69.5 -53.5t-78.5 -36.5t-84 -13.5q-57 0 -95 26t-61.5 66.5t-33.5 90t-10 97.5q0 7 0.5 13.5t0.5 13.5h-22q-12 0 -23 3t-18.5 10t-7.5 21t8.5 22t20.5 13t26 7.5t24 5.5q8 37 23 81t37 89t49.5 87t61.5 75t73.5 52.5t84.5 19.5zM396 922q-7 0 -11 -5 l-119 -125q-3 -4 -6 -8.5t-3 -10.5q0 -14 13 -14q8 0 14 6l112 92l105 -93q5 -6 14 -6q10 0 10 13q0 10 -9 21l-108 125q-4 5 -12 5z" />
<glyph unicode="&#xcb;" horiz-adv-x="515" d="M321 786q24 0 30.5 15.5t6.5 35.5q0 17 -13.5 28.5t-29.5 11.5q-20 0 -27.5 -17t-7.5 -34q0 -18 12 -29t29 -11zM461 786q24 0 30.5 15.5t6.5 35.5q0 17 -13.5 28.5t-29.5 11.5q-20 0 -27.5 -17t-7.5 -34q0 -18 12 -29t29 -11zM399 746q51 0 80.5 -28t29.5 -79 q0 -12 -2.5 -23t-17.5 -11q-11 0 -15.5 14t-12 31t-21.5 31t-44 14q-29 0 -55.5 -18.5t-49 -47.5t-41.5 -65.5t-33.5 -73.5t-24.5 -70.5t-16 -55.5q13 4 47 7.5t73 6t74 4t51 1.5h8q7 0 14.5 -0.5t13 -1.5t5.5 -3q0 -14 -10 -24t-23 -13q-4 1 -23 -3l-48 -10l-60 -13 l-59 -13l-49 -12q-20 -5 -25 -6q-2 -8 -2.5 -17t-0.5 -18q0 -37 6.5 -78t23.5 -75.5t45.5 -57.5t73.5 -23q58 0 106.5 31.5t83.5 75.5q10 12 17.5 24.5t16.5 25.5q4 5 7.5 8t10.5 3q8 0 12.5 -5t4.5 -13q0 -10 -8 -23l-13 -21q-24 -34 -56 -64.5t-69.5 -53.5t-78.5 -36.5 t-84 -13.5q-57 0 -95 26t-61.5 66.5t-33.5 90t-10 97.5q0 7 0.5 13.5t0.5 13.5h-22q-12 0 -23 3t-18.5 10t-7.5 21t8.5 22t20.5 13t26 7.5t24 5.5q8 37 23 81t37 89t49.5 87t61.5 75t73.5 52.5t84.5 19.5z" />
<glyph unicode="&#xcc;" horiz-adv-x="456" d="M421 588q0 27 -2.5 56.5t-13 53.5t-30 40t-54.5 16q-34 0 -69.5 -20t-68 -50t-57.5 -64.5t-38 -63.5q-15 -35 -26 -72t-11 -75q0 -10 1 -25.5t5 -30t12 -25t22 -10.5q20 0 20 22q0 8 -2.5 14.5t-6.5 13.5q-6 11 -8 22.5t-2 23.5q0 31 9 69t23 65q9 17 27.5 41t41 46 t46.5 37.5t45 15.5q14 0 22.5 -9t13 -21.5t6 -26.5t1.5 -24q0 -26 -4.5 -72t-14 -102.5t-24 -118t-34 -117.5t-44 -102t-54.5 -71t-61 -25q-18 0 -29 4.5t-18 10.5l-14 10q-5 5 -13 5q-5 0 -11 -4t-6 -10q0 -14 10.5 -24t24.5 -17t30 -10t26 -3q47 0 85.5 19.5t70.5 53.5 t57 78.5t44.5 94.5t33 103t22.5 103.5t13 95.5t4 79zM322 792q6 0 10 4.5t4 10.5q0 5 -2.5 10t-4.5 10q-14 26 -29 51t-29 51q-7 12 -14 26t-15 25q-12 15 -30 15q-14 0 -23 -9t-9 -23q0 -10 7 -21q9 -14 20 -27l22 -26l34 -41q17 -21 36 -41q5 -5 10.5 -10t12.5 -5z" />
<glyph unicode="&#xcd;" horiz-adv-x="456" d="M421 588q0 27 -2.5 56.5t-13 53.5t-30 40t-54.5 16q-34 0 -69.5 -20t-68 -50t-57.5 -64.5t-38 -63.5q-15 -35 -26 -72t-11 -75q0 -10 1 -25.5t5 -30t12 -25t22 -10.5q20 0 20 22q0 8 -2.5 14.5t-6.5 13.5q-6 11 -8 22.5t-2 23.5q0 31 9 69t23 65q9 17 27.5 41t41 46 t46.5 37.5t45 15.5q14 0 22.5 -9t13 -21.5t6 -26.5t1.5 -24q0 -26 -4.5 -72t-14 -102.5t-24 -118t-34 -117.5t-44 -102t-54.5 -71t-61 -25q-18 0 -29 4.5t-18 10.5l-14 10q-5 5 -13 5q-5 0 -11 -4t-6 -10q0 -14 10.5 -24t24.5 -17t30 -10t26 -3q47 0 85.5 19.5t70.5 53.5 t57 78.5t44.5 94.5t33 103t22.5 103.5t13 95.5t4 79zM314 792q-6 0 -10 4.5t-4 10.5q0 5 2.5 10t4.5 10q14 26 29 51t29 51q7 12 14 26t15 25q12 15 30 15q14 0 23 -9t9 -23q0 -10 -7 -21q-9 -14 -20 -27l-22 -26l-34 -41q-17 -21 -36 -41q-5 -5 -10.5 -10t-12.5 -5z" />
<glyph unicode="&#xce;" horiz-adv-x="456" d="M421 588q0 27 -2.5 56.5t-13 53.5t-30 40t-54.5 16q-34 0 -69.5 -20t-68 -50t-57.5 -64.5t-38 -63.5q-15 -35 -26 -72t-11 -75q0 -10 1 -25.5t5 -30t12 -25t22 -10.5q20 0 20 22q0 8 -2.5 14.5t-6.5 13.5q-6 11 -8 22.5t-2 23.5q0 31 9 69t23 65q9 17 27.5 41t41 46 t46.5 37.5t45 15.5q14 0 22.5 -9t13 -21.5t6 -26.5t1.5 -24q0 -26 -4.5 -72t-14 -102.5t-24 -118t-34 -117.5t-44 -102t-54.5 -71t-61 -25q-18 0 -29 4.5t-18 10.5l-14 10q-5 5 -13 5q-5 0 -11 -4t-6 -10q0 -14 10.5 -24t24.5 -17t30 -10t26 -3q47 0 85.5 19.5t70.5 53.5 t57 78.5t44.5 94.5t33 103t22.5 103.5t13 95.5t4 79zM316 922q-7 0 -11 -5l-119 -125q-3 -4 -6 -8.5t-3 -10.5q0 -14 13 -14q8 0 14 6l112 92l105 -93q5 -6 14 -6q10 0 10 13q0 10 -9 21l-108 125q-4 5 -12 5z" />
<glyph unicode="&#xcf;" horiz-adv-x="456" d="M421 588q0 27 -2.5 56.5t-13 53.5t-30 40t-54.5 16q-34 0 -69.5 -20t-68 -50t-57.5 -64.5t-38 -63.5q-15 -35 -26 -72t-11 -75q0 -10 1 -25.5t5 -30t12 -25t22 -10.5q20 0 20 22q0 8 -2.5 14.5t-6.5 13.5q-6 11 -8 22.5t-2 23.5q0 31 9 69t23 65q9 17 27.5 41t41 46 t46.5 37.5t45 15.5q14 0 22.5 -9t13 -21.5t6 -26.5t1.5 -24q0 -26 -4.5 -72t-14 -102.5t-24 -118t-34 -117.5t-44 -102t-54.5 -71t-61 -25q-18 0 -29 4.5t-18 10.5l-14 10q-5 5 -13 5q-5 0 -11 -4t-6 -10q0 -14 10.5 -24t24.5 -17t30 -10t26 -3q47 0 85.5 19.5t70.5 53.5 t57 78.5t44.5 94.5t33 103t22.5 103.5t13 95.5t4 79zM241 796q24 0 30.5 15.5t6.5 35.5q0 17 -13.5 28.5t-29.5 11.5q-20 0 -27.5 -17t-7.5 -34q0 -18 12 -29t29 -11zM381 796q24 0 30.5 15.5t6.5 35.5q0 17 -13.5 28.5t-29.5 11.5q-20 0 -27.5 -17t-7.5 -34q0 -18 12 -29 t29 -11z" />
<glyph unicode="&#xd1;" horiz-adv-x="752" d="M14 -98q35 0 62.5 13t50.5 35q31 31 52 75t35.5 92t22.5 95l14 83q3 20 5 47t7 45q1 2 2 6t5 4t6.5 -4.5t3.5 -7.5l22 -69q13 -40 30.5 -85t39 -90t48.5 -80.5t59.5 -58t70.5 -22.5q29 0 51 39.5t37.5 100.5t26 135.5t16.5 143.5t8.5 124.5t2.5 79.5v12q0 7 -2 13 t-5.5 10.5t-11.5 4.5q-17 0 -23 -7.5t-6 -24.5q0 -5 0.5 -10t0.5 -10q0 -42 -2.5 -83t-6.5 -83q-3 -35 -7 -77t-9.5 -85.5t-13.5 -84.5t-19 -74q-1 -4 -4 -12t-7 -15t-9 -12.5t-11 -5.5q-19 0 -40 27t-42 69t-40.5 93t-35.5 98.5t-27 85.5t-15 54q-6 22 -11 44t-9 45l-3 24 q-2 14 -8.5 27.5t-23.5 13.5q-9 0 -21.5 -4.5t-24 -12t-19.5 -17.5t-8 -20q0 -8 4 -20.5t4 -27.5q0 -22 -3 -43q-3 -26 -7 -66.5t-10.5 -88t-16 -98.5t-23 -99t-33 -89t-44.5 -68q-18 -20 -39.5 -30.5t-47.5 -10.5q-11 0 -22.5 1.5t-22.5 1.5q-9 0 -16 -5t-7 -15 q0 -9 8.5 -14t20.5 -8t23.5 -3.5t17.5 -0.5zM557 673q31 0 52.5 19t21.5 56q0 16 -14 16q-15 0 -15 -14q0 -13 -14 -21t-31 -8q-18 0 -29 8.5t-21 18.5t-23 18.5t-36 8.5q-14 0 -29.5 -6.5t-28.5 -17.5t-21.5 -26t-8.5 -32q0 -5 3 -10t11 -5t11 5t3 10q0 14 17.5 24.5 t42.5 10.5q15 0 24.5 -8.5t19.5 -19t24.5 -19t40.5 -8.5z" />
<glyph unicode="&#xd2;" horiz-adv-x="613" d="M382 772q6 0 10 4.5t4 10.5q0 5 -2.5 10t-4.5 10q-14 26 -29 51t-29 51q-7 12 -14 26t-15 25q-12 15 -30 15q-14 0 -23 -9t-9 -23q0 -10 7 -21q9 -14 20 -27l22 -26l34 -41q17 -21 36 -41q5 -5 10.5 -10t12.5 -5zM218 -40q55 0 102 22t85.5 58.5t68 85t49.5 101t30 106 t10 100.5q0 20 -3 49.5t-9.5 62t-17.5 64.5t-26.5 57.5t-36.5 41.5t-48 16q-11 0 -22.5 -1.5t-22.5 -1.5q-17 0 -32 5t-32 5q-42 0 -78.5 -19.5t-65.5 -48.5q-38 -39 -66.5 -89.5t-47 -106.5t-28 -114t-9.5 -111q0 -48 9.5 -98.5t32 -91t61.5 -66.5t97 -26zM373 665 q41 0 67 -27.5t42 -67t22 -82.5t6 -74q0 -35 -8 -77t-23 -85t-37.5 -84t-51.5 -72.5t-64.5 -50.5t-76.5 -19q-42 0 -69 17.5t-42.5 45t-21.5 62t-6 68.5q0 48 11 102t30.5 106t47.5 99.5t62 81.5q23 23 51 40t61 17z" />
<glyph unicode="&#xd3;" horiz-adv-x="613" d="M364 772q-6 0 -10 4.5t-4 10.5q0 5 2.5 10t4.5 10q14 26 29 51t29 51q7 12 14 26t15 25q12 15 30 15q14 0 23 -9t9 -23q0 -10 -7 -21q-9 -14 -20 -27l-22 -26l-34 -41q-17 -21 -36 -41q-5 -5 -10.5 -10t-12.5 -5zM218 -40q55 0 102 22t85.5 58.5t68 85t49.5 101t30 106 t10 100.5q0 20 -3 49.5t-9.5 62t-17.5 64.5t-26.5 57.5t-36.5 41.5t-48 16q-11 0 -22.5 -1.5t-22.5 -1.5q-17 0 -32 5t-32 5q-42 0 -78.5 -19.5t-65.5 -48.5q-38 -39 -66.5 -89.5t-47 -106.5t-28 -114t-9.5 -111q0 -48 9.5 -98.5t32 -91t61.5 -66.5t97 -26zM373 665 q41 0 67 -27.5t42 -67t22 -82.5t6 -74q0 -35 -8 -77t-23 -85t-37.5 -84t-51.5 -72.5t-64.5 -50.5t-76.5 -19q-42 0 -69 17.5t-42.5 45t-21.5 62t-6 68.5q0 48 11 102t30.5 106t47.5 99.5t62 81.5q23 23 51 40t61 17z" />
<glyph unicode="&#xd4;" horiz-adv-x="613" d="M218 -40q55 0 102 22t85.5 58.5t68 85t49.5 101t30 106t10 100.5q0 20 -3 49.5t-9.5 62t-17.5 64.5t-26.5 57.5t-36.5 41.5t-48 16q-11 0 -22.5 -1.5t-22.5 -1.5q-17 0 -32 5t-32 5q-42 0 -78.5 -19.5t-65.5 -48.5q-38 -39 -66.5 -89.5t-47 -106.5t-28 -114t-9.5 -111 q0 -48 9.5 -98.5t32 -91t61.5 -66.5t97 -26zM373 665q41 0 67 -27.5t42 -67t22 -82.5t6 -74q0 -35 -8 -77t-23 -85t-37.5 -84t-51.5 -72.5t-64.5 -50.5t-76.5 -19q-42 0 -69 17.5t-42.5 45t-21.5 62t-6 68.5q0 48 11 102t30.5 106t47.5 99.5t62 81.5q23 23 51 40t61 17z M366 922q-7 0 -11 -5l-119 -125q-3 -4 -6 -8.5t-3 -10.5q0 -14 13 -14q8 0 14 6l112 92l105 -93q5 -6 14 -6q10 0 10 13q0 10 -9 21l-108 125q-4 5 -12 5z" />
<glyph unicode="&#xd5;" horiz-adv-x="613" d="M427 763q31 0 52.5 19t21.5 56q0 16 -14 16q-15 0 -15 -14q0 -13 -14 -21t-31 -8q-18 0 -29 8.5t-21 18.5t-23 18.5t-36 8.5q-14 0 -29.5 -6.5t-28.5 -17.5t-21.5 -26t-8.5 -32q0 -5 3 -10t11 -5t11 5t3 10q0 14 17.5 24.5t42.5 10.5q15 0 24.5 -8.5t19.5 -19t24.5 -19 t40.5 -8.5zM218 -40q55 0 102 22t85.5 58.5t68 85t49.5 101t30 106t10 100.5q0 20 -3 49.5t-9.5 62t-17.5 64.5t-26.5 57.5t-36.5 41.5t-48 16q-11 0 -22.5 -1.5t-22.5 -1.5q-17 0 -32 5t-32 5q-42 0 -78.5 -19.5t-65.5 -48.5q-38 -39 -66.5 -89.5t-47 -106.5t-28 -114 t-9.5 -111q0 -48 9.5 -98.5t32 -91t61.5 -66.5t97 -26zM373 665q41 0 67 -27.5t42 -67t22 -82.5t6 -74q0 -35 -8 -77t-23 -85t-37.5 -84t-51.5 -72.5t-64.5 -50.5t-76.5 -19q-42 0 -69 17.5t-42.5 45t-21.5 62t-6 68.5q0 48 11 102t30.5 106t47.5 99.5t62 81.5q23 23 51 40 t61 17z" />
<glyph unicode="&#xd6;" horiz-adv-x="613" d="M301 786q24 0 30.5 15.5t6.5 35.5q0 17 -13.5 28.5t-29.5 11.5q-20 0 -27.5 -17t-7.5 -34q0 -18 12 -29t29 -11zM441 786q24 0 30.5 15.5t6.5 35.5q0 17 -13.5 28.5t-29.5 11.5q-20 0 -27.5 -17t-7.5 -34q0 -18 12 -29t29 -11zM218 -40q55 0 102 22t85.5 58.5t68 85 t49.5 101t30 106t10 100.5q0 20 -3 49.5t-9.5 62t-17.5 64.5t-26.5 57.5t-36.5 41.5t-48 16q-11 0 -22.5 -1.5t-22.5 -1.5q-17 0 -32 5t-32 5q-42 0 -78.5 -19.5t-65.5 -48.5q-38 -39 -66.5 -89.5t-47 -106.5t-28 -114t-9.5 -111q0 -48 9.5 -98.5t32 -91t61.5 -66.5t97 -26z M373 665q41 0 67 -27.5t42 -67t22 -82.5t6 -74q0 -35 -8 -77t-23 -85t-37.5 -84t-51.5 -72.5t-64.5 -50.5t-76.5 -19q-42 0 -69 17.5t-42.5 45t-21.5 62t-6 68.5q0 48 11 102t30.5 106t47.5 99.5t62 81.5q23 23 51 40t61 17z" />
<glyph unicode="&#xd9;" horiz-adv-x="595" d="M372 672q6 0 10 4.5t4 10.5q0 5 -2.5 10t-4.5 10q-14 26 -29 51t-29 51q-7 12 -14 26t-15 25q-12 15 -30 15q-14 0 -23 -9t-9 -23q0 -10 7 -21q9 -14 20 -27l22 -26l34 -41q17 -21 36 -41q5 -5 10.5 -10t12.5 -5zM581 608q0 -5 -5 -24l-13 -43l-13 -45q-7 -22 -9 -32 q-23 -106 -39.5 -212t-22.5 -215q-1 -14 0 -26.5t1 -26.5q0 -13 -4.5 -25.5t-21.5 -12.5q-12 0 -18 20.5t-9 47t-3 51.5v35q0 57 3.5 113t10.5 113q-19 -37 -40.5 -75t-46 -73.5t-53.5 -67.5t-62 -58q-22 -17 -48.5 -30t-55.5 -13q-38 0 -59.5 22t-32 54t-12.5 68t-2 63 q0 38 2 80t7 84.5t12.5 84t18.5 77.5q3 11 8 26t12 30t16 28t20 18q8 3 15.5 3.5t15.5 0.5q14 0 23.5 -6t9.5 -21q0 -5 -1 -9.5t-3 -9.5q-13 -41 -24 -94t-19 -108t-12.5 -108.5t-4.5 -96.5q0 -12 0.5 -30t4.5 -35.5t13.5 -30t26.5 -12.5q12 0 24.5 6t22.5 13q36 26 73.5 76 t72 107t64 114.5t48.5 98.5q2 3 6 13l10 21l10 22q4 9 4 12q2 12 5.5 23t9.5 20t15.5 14.5t23.5 5.5q25 0 25 -25z" />
<glyph unicode="&#xda;" horiz-adv-x="595" d="M324 662q-6 0 -10 4.5t-4 10.5q0 5 2.5 10t4.5 10q14 26 29 51t29 51q7 12 14 26t15 25q12 15 30 15q14 0 23 -9t9 -23q0 -10 -7 -21q-9 -14 -20 -27l-22 -26l-34 -41q-17 -21 -36 -41q-5 -5 -10.5 -10t-12.5 -5zM581 608q0 -5 -5 -24l-13 -43l-13 -45q-7 -22 -9 -32 q-23 -106 -39.5 -212t-22.5 -215q-1 -14 0 -26.5t1 -26.5q0 -13 -4.5 -25.5t-21.5 -12.5q-12 0 -18 20.5t-9 47t-3 51.5v35q0 57 3.5 113t10.5 113q-19 -37 -40.5 -75t-46 -73.5t-53.5 -67.5t-62 -58q-22 -17 -48.5 -30t-55.5 -13q-38 0 -59.5 22t-32 54t-12.5 68t-2 63 q0 38 2 80t7 84.5t12.5 84t18.5 77.5q3 11 8 26t12 30t16 28t20 18q8 3 15.5 3.5t15.5 0.5q14 0 23.5 -6t9.5 -21q0 -5 -1 -9.5t-3 -9.5q-13 -41 -24 -94t-19 -108t-12.5 -108.5t-4.5 -96.5q0 -12 0.5 -30t4.5 -35.5t13.5 -30t26.5 -12.5q12 0 24.5 6t22.5 13q36 26 73.5 76 t72 107t64 114.5t48.5 98.5q2 3 6 13l10 21l10 22q4 9 4 12q2 12 5.5 23t9.5 20t15.5 14.5t23.5 5.5q25 0 25 -25z" />
<glyph unicode="&#xdb;" horiz-adv-x="595" d="M581 608q0 -5 -5 -24l-13 -43l-13 -45q-7 -22 -9 -32q-23 -106 -39.5 -212t-22.5 -215q-1 -14 0 -26.5t1 -26.5q0 -13 -4.5 -25.5t-21.5 -12.5q-12 0 -18 20.5t-9 47t-3 51.5v35q0 57 3.5 113t10.5 113q-19 -37 -40.5 -75t-46 -73.5t-53.5 -67.5t-62 -58 q-22 -17 -48.5 -30t-55.5 -13q-38 0 -59.5 22t-32 54t-12.5 68t-2 63q0 38 2 80t7 84.5t12.5 84t18.5 77.5q3 11 8 26t12 30t16 28t20 18q8 3 15.5 3.5t15.5 0.5q14 0 23.5 -6t9.5 -21q0 -5 -1 -9.5t-3 -9.5q-13 -41 -24 -94t-19 -108t-12.5 -108.5t-4.5 -96.5 q0 -12 0.5 -30t4.5 -35.5t13.5 -30t26.5 -12.5q12 0 24.5 6t22.5 13q36 26 73.5 76t72 107t64 114.5t48.5 98.5q2 3 6 13l10 21l10 22q4 9 4 12q2 12 5.5 23t9.5 20t15.5 14.5t23.5 5.5q25 0 25 -25zM356 852q-7 0 -11 -5l-119 -125q-3 -4 -6 -8.5t-3 -10.5q0 -14 13 -14 q8 0 14 6l112 92l105 -93q5 -6 14 -6q10 0 10 13q0 10 -9 21l-108 125q-4 5 -12 5z" />
<glyph unicode="&#xdc;" horiz-adv-x="595" d="M301 676q24 0 30.5 15.5t6.5 35.5q0 17 -13.5 28.5t-29.5 11.5q-20 0 -27.5 -17t-7.5 -34q0 -18 12 -29t29 -11zM441 676q24 0 30.5 15.5t6.5 35.5q0 17 -13.5 28.5t-29.5 11.5q-20 0 -27.5 -17t-7.5 -34q0 -18 12 -29t29 -11zM581 608q0 -5 -5 -24l-13 -43l-13 -45 q-7 -22 -9 -32q-23 -106 -39.5 -212t-22.5 -215q-1 -14 0 -26.5t1 -26.5q0 -13 -4.5 -25.5t-21.5 -12.5q-12 0 -18 20.5t-9 47t-3 51.5v35q0 57 3.5 113t10.5 113q-19 -37 -40.5 -75t-46 -73.5t-53.5 -67.5t-62 -58q-22 -17 -48.5 -30t-55.5 -13q-38 0 -59.5 22t-32 54 t-12.5 68t-2 63q0 38 2 80t7 84.5t12.5 84t18.5 77.5q3 11 8 26t12 30t16 28t20 18q8 3 15.5 3.5t15.5 0.5q14 0 23.5 -6t9.5 -21q0 -5 -1 -9.5t-3 -9.5q-13 -41 -24 -94t-19 -108t-12.5 -108.5t-4.5 -96.5q0 -12 0.5 -30t4.5 -35.5t13.5 -30t26.5 -12.5q12 0 24.5 6 t22.5 13q36 26 73.5 76t72 107t64 114.5t48.5 98.5q2 3 6 13l10 21l10 22q4 9 4 12q2 12 5.5 23t9.5 20t15.5 14.5t23.5 5.5q25 0 25 -25z" />
<glyph unicode="&#xe0;" horiz-adv-x="421" d="M476 162q0 19 -16 19q-11 0 -17 -8.5t-11 -16.5q-9 -14 -27 -37t-39 -44.5t-43 -37.5t-40 -16q-12 0 -18.5 12.5t-9.5 29t-3.5 33t-0.5 23.5q0 26 3.5 56t11.5 55l11 30q7 18 7 28t-7.5 13t-15.5 3q-14 0 -21.5 -9.5t-12.5 -20.5q-5 -12 -18 -38l-29 -56 q-17 -31 -36 -60.5t-36 -46.5t-29 -17q-9 0 -11 9t-2 15q0 58 23.5 107.5t61.5 88.5q21 22 46.5 40.5t51.5 33.5q4 2 7 4.5t3 7.5q0 11 -11 21t-22 10q-29 0 -62.5 -17.5t-60.5 -45.5q-23 -24 -42 -53t-32.5 -59t-21 -59.5t-7.5 -53.5q0 -14 2.5 -32t9 -34t18 -27t30.5 -11 q16 0 31.5 9t30.5 23q25 23 45.5 52t32.5 48q-1 -18 1 -44.5t10 -51t23 -42t40 -17.5q26 0 52.5 15t50 36.5t43.5 46.5t34 45q5 8 13.5 20t8.5 21zM222 432q6 0 10 4.5t4 10.5q0 5 -2.5 10t-4.5 10q-14 26 -29 51t-29 51q-7 12 -14 26t-15 25q-12 15 -30 15q-14 0 -23 -9 t-9 -23q0 -10 7 -21q9 -14 20 -27l22 -26l34 -41q17 -21 36 -41l11 -10q5 -5 12 -5z" />
<glyph unicode="&#xe1;" horiz-adv-x="421" d="M476 162q0 19 -16 19q-11 0 -17 -8.5t-11 -16.5q-9 -14 -27 -37t-39 -44.5t-43 -37.5t-40 -16q-12 0 -18.5 12.5t-9.5 29t-3.5 33t-0.5 23.5q0 26 3.5 56t11.5 55l11 30q7 18 7 28t-7.5 13t-15.5 3q-14 0 -21.5 -9.5t-12.5 -20.5q-5 -12 -18 -38l-29 -56 q-17 -31 -36 -60.5t-36 -46.5t-29 -17q-9 0 -11 9t-2 15q0 58 23.5 107.5t61.5 88.5q21 22 46.5 40.5t51.5 33.5q4 2 7 4.5t3 7.5q0 11 -11 21t-22 10q-29 0 -62.5 -17.5t-60.5 -45.5q-23 -24 -42 -53t-32.5 -59t-21 -59.5t-7.5 -53.5q0 -14 2.5 -32t9 -34t18 -27t30.5 -11 q16 0 31.5 9t30.5 23q25 23 45.5 52t32.5 48q-1 -18 1 -44.5t10 -51t23 -42t40 -17.5q26 0 52.5 15t50 36.5t43.5 46.5t34 45q5 8 13.5 20t8.5 21zM194 432q-6 0 -10 4.5t-4 10.5q0 5 2.5 10t4.5 10q14 26 29 51t29 51q7 12 14 26t15 25q12 15 30 15q14 0 23 -9t9 -23 q0 -10 -7 -21q-9 -14 -20 -27l-22 -26l-34 -41q-17 -21 -36 -41l-11 -10q-5 -5 -12 -5z" />
<glyph unicode="&#xe2;" horiz-adv-x="421" d="M476 162q0 19 -16 19q-11 0 -17 -8.5t-11 -16.5q-9 -14 -27 -37t-39 -44.5t-43 -37.5t-40 -16q-12 0 -18.5 12.5t-9.5 29t-3.5 33t-0.5 23.5q0 26 3.5 56t11.5 55l11 30q7 18 7 28t-7.5 13t-15.5 3q-14 0 -21.5 -9.5t-12.5 -20.5q-5 -12 -18 -38l-29 -56 q-17 -31 -36 -60.5t-36 -46.5t-29 -17q-9 0 -11 9t-2 15q0 58 23.5 107.5t61.5 88.5q21 22 46.5 40.5t51.5 33.5q4 2 7 4.5t3 7.5q0 11 -11 21t-22 10q-29 0 -62.5 -17.5t-60.5 -45.5q-23 -24 -42 -53t-32.5 -59t-21 -59.5t-7.5 -53.5q0 -14 2.5 -32t9 -34t18 -27t30.5 -11 q16 0 31.5 9t30.5 23q25 23 45.5 52t32.5 48q-1 -18 1 -44.5t10 -51t23 -42t40 -17.5q26 0 52.5 15t50 36.5t43.5 46.5t34 45q5 8 13.5 20t8.5 21zM196 552q-7 0 -11 -5l-119 -125q-3 -4 -6 -8.5t-3 -10.5q0 -14 13 -14q8 0 14 6l112 92l105 -93q5 -6 14 -6q10 0 10 13 q0 10 -9 21l-108 125q-4 5 -12 5z" />
<glyph unicode="&#xe3;" horiz-adv-x="421" d="M476 162q0 19 -16 19q-11 0 -17 -8.5t-11 -16.5q-9 -14 -27 -37t-39 -44.5t-43 -37.5t-40 -16q-12 0 -18.5 12.5t-9.5 29t-3.5 33t-0.5 23.5q0 26 3.5 56t11.5 55l11 30q7 18 7 28t-7.5 13t-15.5 3q-14 0 -21.5 -9.5t-12.5 -20.5q-5 -12 -18 -38l-29 -56 q-17 -31 -36 -60.5t-36 -46.5t-29 -17q-9 0 -11 9t-2 15q0 58 23.5 107.5t61.5 88.5q21 22 46.5 40.5t51.5 33.5q4 2 7 4.5t3 7.5q0 11 -11 21t-22 10q-29 0 -62.5 -17.5t-60.5 -45.5q-23 -24 -42 -53t-32.5 -59t-21 -59.5t-7.5 -53.5q0 -14 2.5 -32t9 -34t18 -27t30.5 -11 q16 0 31.5 9t30.5 23q25 23 45.5 52t32.5 48q-1 -18 1 -44.5t10 -51t23 -42t40 -17.5q26 0 52.5 15t50 36.5t43.5 46.5t34 45q5 8 13.5 20t8.5 21zM267 423q31 0 52.5 19t21.5 56q0 16 -14 16q-15 0 -15 -14q0 -13 -14 -21t-31 -8q-18 0 -29 8.5t-21 18.5t-23 18.5t-36 8.5 q-14 0 -29.5 -6.5t-28.5 -17.5t-21.5 -26t-8.5 -32q0 -5 3 -10t11 -5t11 5t3 10q0 14 17.5 24.5t42.5 10.5q15 0 24.5 -8.5t19.5 -19t24.5 -19t40.5 -8.5z" />
<glyph unicode="&#xe4;" horiz-adv-x="421" d="M476 162q0 19 -16 19q-11 0 -17 -8.5t-11 -16.5q-9 -14 -27 -37t-39 -44.5t-43 -37.5t-40 -16q-12 0 -18.5 12.5t-9.5 29t-3.5 33t-0.5 23.5q0 26 3.5 56t11.5 55l11 30q7 18 7 28t-7.5 13t-15.5 3q-14 0 -21.5 -9.5t-12.5 -20.5q-5 -12 -18 -38l-29 -56 q-17 -31 -36 -60.5t-36 -46.5t-29 -17q-9 0 -11 9t-2 15q0 58 23.5 107.5t61.5 88.5q21 22 46.5 40.5t51.5 33.5q4 2 7 4.5t3 7.5q0 11 -11 21t-22 10q-29 0 -62.5 -17.5t-60.5 -45.5q-23 -24 -42 -53t-32.5 -59t-21 -59.5t-7.5 -53.5q0 -14 2.5 -32t9 -34t18 -27t30.5 -11 q16 0 31.5 9t30.5 23q25 23 45.5 52t32.5 48q-1 -18 1 -44.5t10 -51t23 -42t40 -17.5q26 0 52.5 15t50 36.5t43.5 46.5t34 45q5 8 13.5 20t8.5 21zM141 436q24 0 30.5 15.5t6.5 35.5q0 17 -13.5 28.5t-29.5 11.5q-20 0 -27.5 -17t-7.5 -34q0 -18 12 -29t29 -11zM281 436 q24 0 30.5 15.5t6.5 35.5q0 17 -13.5 28.5t-29.5 11.5q-20 0 -27.5 -17t-7.5 -34q0 -18 12 -29t29 -11z" />
<glyph unicode="&#xe5;" horiz-adv-x="421" d="M476 162q0 19 -16 19q-11 0 -17 -8.5t-11 -16.5q-9 -14 -27 -37t-39 -44.5t-43 -37.5t-40 -16q-12 0 -18.5 12.5t-9.5 29t-3.5 33t-0.5 23.5q0 26 3.5 56t11.5 55l11 30q7 18 7 28t-7.5 13t-15.5 3q-14 0 -21.5 -9.5t-12.5 -20.5q-5 -12 -18 -38l-29 -56 q-17 -31 -36 -60.5t-36 -46.5t-29 -17q-9 0 -11 9t-2 15q0 58 23.5 107.5t61.5 88.5q21 22 46.5 40.5t51.5 33.5q4 2 7 4.5t3 7.5q0 11 -11 21t-22 10q-29 0 -62.5 -17.5t-60.5 -45.5q-23 -24 -42 -53t-32.5 -59t-21 -59.5t-7.5 -53.5q0 -14 2.5 -32t9 -34t18 -27t30.5 -11 q16 0 31.5 9t30.5 23q25 23 45.5 52t32.5 48q-1 -18 1 -44.5t10 -51t23 -42t40 -17.5q26 0 52.5 15t50 36.5t43.5 46.5t34 45q5 8 13.5 20t8.5 21zM222 428q20 0 36.5 11t28 27.5t18 36t6.5 37.5q0 12 -2.5 25t-8.5 23.5t-15.5 17t-24.5 6.5q-21 0 -37.5 -11t-28 -28.5 t-18 -37.5t-6.5 -38q0 -24 12 -46.5t40 -22.5zM261 577q11 0 15.5 -13t4.5 -21q0 -10 -4.5 -25t-12 -28.5t-18.5 -23t-23 -9.5q-11 0 -12.5 11.5t-1.5 19.5q0 10 3.5 25t10 29.5t16.5 24.5t22 10z" />
<glyph unicode="&#xe6;" horiz-adv-x="511" d="M562 199q-11 0 -18 -9t-12 -17q-15 -25 -35 -50t-44.5 -45t-52.5 -32.5t-60 -12.5q-35 0 -49.5 21t-14.5 53q0 19 5 42q23 8 50 30t50.5 50.5t39 59t15.5 55.5q0 26 -14.5 43t-41.5 17q-22 0 -41 -9.5t-35 -24t-29 -32.5t-23 -35q-10 -3 -15.5 -11.5t-9.5 -17.5l-15 -30 q-9 -21 -22 -45l-28 -49q-14 -26 -29 -46.5t-29 -34t-25 -13.5q-9 0 -11 9t-2 15q0 57 23 106.5t62 89.5q22 23 46.5 40.5t51.5 33.5q4 2 7 4.5t3 7.5q0 11 -11 21t-22 10q-44 0 -84.5 -30t-72 -74.5t-50.5 -94.5t-19 -89q0 -14 2.5 -32t9 -34t18.5 -27t30 -11 q20 0 40.5 14.5t39 35.5t34.5 43l25 38v-9q3 -27 9.5 -51.5t19 -43.5t33.5 -30t53 -11q41 0 78 14t69.5 37.5t59.5 54.5t46 65q5 8 7 14t2 16q0 5 -4.5 8t-9.5 3zM392 334q0 -20 -11 -41.5t-27 -42t-35 -37t-35 -26.5q2 13 11 41.5t22 57t28 50t30 21.5q10 0 13.5 -7.5 t3.5 -15.5z" />
<glyph unicode="&#xe7;" horiz-adv-x="369" d="M229 -9q63 21 113.5 67t82.5 103q3 5 6 11t3 12q0 16 -16 16q-10 0 -17.5 -9t-12.5 -17q-16 -27 -37.5 -52.5t-47 -45t-55.5 -31.5t-63 -12q-22 0 -37.5 9t-25 24t-13.5 33.5t-4 37.5q0 22 7.5 59t22.5 73t37 62t51 26q17 0 20.5 -12.5t3.5 -26.5q0 -22 -9 -39.5 t-9 -28.5q0 -10 11 -10q15 0 25 9t15 22t7 27.5t2 26.5q0 40 -21.5 58t-59.5 18q-45 0 -80 -25t-59 -62.5t-36 -82t-12 -83.5q0 -30 7 -60t23 -54.5t40.5 -40t58.5 -15.5q8 0 15.5 0.5t15.5 1.5q3 -10 5 -20t2 -21q0 -17 -16.5 -30t-32.5 -13q-5 0 -10.5 1.5t-10.5 1.5 q-9 0 -14.5 -7t-5.5 -15q0 -14 13.5 -18t24.5 -4q39 0 68.5 21.5t29.5 64.5q0 13 -1 25.5t-4 24.5z" />
<glyph unicode="&#xe8;" horiz-adv-x="321" d="M192 442q6 0 10 4.5t4 10.5q0 5 -2.5 10t-4.5 10q-14 26 -29 51t-29 51q-7 12 -14 26t-15 25q-12 15 -30 15q-14 0 -23 -9t-9 -23q0 -10 7 -21q9 -14 20 -27l22 -26l34 -41q17 -21 36 -41l11 -10q5 -5 12 -5zM120 -13q41 0 79 14t71 37.5t60.5 54.5t46.5 65q5 9 7 14.5 t2 15.5q0 5 -4.5 8t-9.5 3q-10 0 -17.5 -9t-12.5 -17q-14 -25 -34 -49.5t-45 -44.5t-53 -32.5t-59 -12.5q-29 0 -45 14q-11 11 -15.5 25.5t-4.5 30.5q0 27 5 45q24 9 51 31.5t50.5 51t38.5 58.5t15 54q0 26 -14.5 43t-41.5 17q-22 0 -42 -9.5t-37 -26.5q-24 -22 -42.5 -54 t-32 -65.5t-20.5 -66.5t-7 -59q0 -38 12.5 -70.5t43.5 -52.5q12 -8 26.5 -10.5t28.5 -2.5zM185 357q10 0 13.5 -7.5t3.5 -15.5q0 -20 -11 -42t-27.5 -42t-35.5 -37t-34 -26q2 10 8 30.5t15 43.5t20 45.5t23 35.5q13 15 25 15z" />
<glyph unicode="&#xe9;" horiz-adv-x="321" d="M184 442q-6 0 -10 4.5t-4 10.5q0 5 2.5 10t4.5 10q14 26 29 51t29 51q7 12 14 26t15 25q12 15 30 15q14 0 23 -9t9 -23q0 -10 -7 -21q-9 -14 -20 -27l-22 -26l-34 -41q-17 -21 -36 -41l-11 -10q-5 -5 -12 -5zM120 -13q41 0 79 14t71 37.5t60.5 54.5t46.5 65q5 9 7 14.5 t2 15.5q0 5 -4.5 8t-9.5 3q-10 0 -17.5 -9t-12.5 -17q-14 -25 -34 -49.5t-45 -44.5t-53 -32.5t-59 -12.5q-29 0 -45 14q-11 11 -15.5 25.5t-4.5 30.5q0 27 5 45q24 9 51 31.5t50.5 51t38.5 58.5t15 54q0 26 -14.5 43t-41.5 17q-22 0 -42 -9.5t-37 -26.5q-24 -22 -42.5 -54 t-32 -65.5t-20.5 -66.5t-7 -59q0 -38 12.5 -70.5t43.5 -52.5q12 -8 26.5 -10.5t28.5 -2.5zM185 357q10 0 13.5 -7.5t3.5 -15.5q0 -20 -11 -42t-27.5 -42t-35.5 -37t-34 -26q2 10 8 30.5t15 43.5t20 45.5t23 35.5q13 15 25 15z" />
<glyph unicode="&#xea;" horiz-adv-x="321" d="M120 -13q41 0 79 14t71 37.5t60.5 54.5t46.5 65q5 9 7 14.5t2 15.5q0 5 -4.5 8t-9.5 3q-10 0 -17.5 -9t-12.5 -17q-14 -25 -34 -49.5t-45 -44.5t-53 -32.5t-59 -12.5q-29 0 -45 14q-11 11 -15.5 25.5t-4.5 30.5q0 27 5 45q24 9 51 31.5t50.5 51t38.5 58.5t15 54 q0 26 -14.5 43t-41.5 17q-22 0 -42 -9.5t-37 -26.5q-24 -22 -42.5 -54t-32 -65.5t-20.5 -66.5t-7 -59q0 -38 12.5 -70.5t43.5 -52.5q12 -8 26.5 -10.5t28.5 -2.5zM185 357q10 0 13.5 -7.5t3.5 -15.5q0 -20 -11 -42t-27.5 -42t-35.5 -37t-34 -26q2 10 8 30.5t15 43.5t20 45.5 t23 35.5q13 15 25 15zM176 572q-7 0 -11 -5l-119 -125q-3 -4 -6 -8.5t-3 -10.5q0 -14 13 -14q8 0 14 6l112 92l105 -93q5 -6 14 -6q10 0 10 13q0 10 -9 21l-108 125q-4 5 -12 5z" />
<glyph unicode="&#xeb;" horiz-adv-x="321" d="M131 446q24 0 30.5 15.5t6.5 35.5q0 17 -13.5 28.5t-29.5 11.5q-20 0 -27.5 -17t-7.5 -34q0 -18 12 -29t29 -11zM271 446q24 0 30.5 15.5t6.5 35.5q0 17 -13.5 28.5t-29.5 11.5q-20 0 -27.5 -17t-7.5 -34q0 -18 12 -29t29 -11zM120 -13q41 0 79 14t71 37.5t60.5 54.5 t46.5 65q5 9 7 14.5t2 15.5q0 5 -4.5 8t-9.5 3q-10 0 -17.5 -9t-12.5 -17q-14 -25 -34 -49.5t-45 -44.5t-53 -32.5t-59 -12.5q-29 0 -45 14q-11 11 -15.5 25.5t-4.5 30.5q0 27 5 45q24 9 51 31.5t50.5 51t38.5 58.5t15 54q0 26 -14.5 43t-41.5 17q-22 0 -42 -9.5t-37 -26.5 q-24 -22 -42.5 -54t-32 -65.5t-20.5 -66.5t-7 -59q0 -38 12.5 -70.5t43.5 -52.5q12 -8 26.5 -10.5t28.5 -2.5zM185 357q10 0 13.5 -7.5t3.5 -15.5q0 -20 -11 -42t-27.5 -42t-35.5 -37t-34 -26q2 10 8 30.5t15 43.5t20 45.5t23 35.5q13 15 25 15z" />
<glyph unicode="&#xec;" horiz-adv-x="263" d="M107 208q2 11 7 26l10 28q5 15 9 28.5t4 23.5q0 20 -21 22q-32 1 -48.5 -17t-25.5 -47q-8 -26 -14.5 -60.5t-6.5 -62.5q0 -22 3 -51.5t13 -56t27.5 -45t47.5 -18.5q27 0 55.5 17.5t54.5 42t48 52t36 48.5l8 10l8.5 14.5t7.5 14.5t3 12q0 8 -1.5 15t-11.5 7t-16 -9 l-12 -16q-9 -16 -27.5 -42.5t-41 -52t-46.5 -44.5t-44 -19q-13 0 -20 11t-10.5 26t-4 30t-0.5 24q0 46 9 89zM112 382q6 0 10 4.5t4 10.5q0 5 -2.5 10t-4.5 10q-14 26 -29 51t-29 51q-7 12 -14 26t-15 25q-12 15 -30 15q-14 0 -23 -9t-9 -23q0 -10 7 -21q9 -14 20 -27 l22 -26l34 -41q17 -21 36 -41l11 -10q5 -5 12 -5z" />
<glyph unicode="&#xed;" horiz-adv-x="263" d="M107 208q2 11 7 26l10 28q5 15 9 28.5t4 23.5q0 20 -21 22q-32 1 -48.5 -17t-25.5 -47q-8 -26 -14.5 -60.5t-6.5 -62.5q0 -22 3 -51.5t13 -56t27.5 -45t47.5 -18.5q27 0 55.5 17.5t54.5 42t48 52t36 48.5l8 10l8.5 14.5t7.5 14.5t3 12q0 8 -1.5 15t-11.5 7t-16 -9 l-12 -16q-9 -16 -27.5 -42.5t-41 -52t-46.5 -44.5t-44 -19q-13 0 -20 11t-10.5 26t-4 30t-0.5 24q0 46 9 89zM84 382q-6 0 -10 4.5t-4 10.5q0 5 2.5 10t4.5 10q14 26 29 51t29 51q7 12 14 26t15 25q12 15 30 15q14 0 23 -9t9 -23q0 -10 -7 -21q-9 -14 -20 -27l-22 -26 l-34 -41q-17 -21 -36 -41l-11 -10q-5 -5 -12 -5z" />
<glyph unicode="&#xee;" horiz-adv-x="263" d="M107 208q2 11 7 26l10 28q5 15 9 28.5t4 23.5q0 20 -21 22q-32 1 -48.5 -17t-25.5 -47q-8 -26 -14.5 -60.5t-6.5 -62.5q0 -22 3 -51.5t13 -56t27.5 -45t47.5 -18.5q27 0 55.5 17.5t54.5 42t48 52t36 48.5l8 10l8.5 14.5t7.5 14.5t3 12q0 8 -1.5 15t-11.5 7t-16 -9 l-12 -16q-9 -16 -27.5 -42.5t-41 -52t-46.5 -44.5t-44 -19q-13 0 -20 11t-10.5 26t-4 30t-0.5 24q0 46 9 89zM106 532q-7 0 -11 -5l-119 -125q-3 -4 -6 -8.5t-3 -10.5q0 -14 13 -14q8 0 14 6l112 92l105 -93q5 -6 14 -6q10 0 10 13q0 10 -9 21l-108 125q-4 5 -12 5z" />
<glyph unicode="&#xef;" horiz-adv-x="263" d="M107 208q2 11 7 26l10 28q5 15 9 28.5t4 23.5q0 20 -21 22q-32 1 -48.5 -17t-25.5 -47q-8 -26 -14.5 -60.5t-6.5 -62.5q0 -22 3 -51.5t13 -56t27.5 -45t47.5 -18.5q27 0 55.5 17.5t54.5 42t48 52t36 48.5l8 10l8.5 14.5t7.5 14.5t3 12q0 8 -1.5 15t-11.5 7t-16 -9 l-12 -16q-9 -16 -27.5 -42.5t-41 -52t-46.5 -44.5t-44 -19q-13 0 -20 11t-10.5 26t-4 30t-0.5 24q0 46 9 89zM47 386q24 0 30.5 15.5t6.5 35.5q0 17 -13.5 28.5t-29.5 11.5q-20 0 -27.5 -17t-7.5 -34q0 -18 12 -29t29 -11zM187 386q24 0 30.5 15.5t6.5 35.5q0 17 -13.5 28.5 t-29.5 11.5q-20 0 -27.5 -17t-7.5 -34q0 -18 12 -29t29 -11z" />
<glyph unicode="&#xf1;" horiz-adv-x="451" d="M22 -36q14 0 25 10t16 22q17 38 35 74.5t40 71.5l14 21q9 15 22 32l26 35q13 17 25 29q16 16 23 16q9 0 9 -20q0 -29 -2 -57t-2 -57q0 -19 1.5 -42t9 -43t22 -33.5t40.5 -13.5q28 0 57.5 18t56 44t47.5 55.5t31 52.5q2 4 4.5 10t2.5 10q0 7 -4.5 13.5t-12.5 6.5 q-9 0 -15 -9t-10 -16q-8 -16 -23 -39t-34 -44.5t-39.5 -37t-40.5 -15.5q-12 0 -18.5 7t-9.5 16.5t-3.5 21t-0.5 20.5q0 34 2 67.5t2 67.5q0 97 -44 97q-14 0 -30.5 -11.5t-34.5 -28.5q-17 -16 -33.5 -36l-31.5 -39l-26 -36l-18 -27q4 29 10 58.5t17 56.5q8 23 17 53t9 54 q0 16 -6.5 25t-23.5 9q-18 0 -36.5 -15t-21.5 -33q-5 -23 -9 -47t-9 -47q-11 -50 -20.5 -98t-16.5 -99l-6 -52q-3 -27 -3 -53q0 -10 5 -17.5t16 -7.5zM287 473q31 0 52.5 19t21.5 56q0 16 -14 16q-15 0 -15 -14q0 -13 -14 -21t-31 -8q-18 0 -29 8.5t-21 18.5t-23 18.5 t-36 8.5q-14 0 -29.5 -6.5t-28.5 -17.5t-21.5 -26t-8.5 -32q0 -5 3 -10t11 -5t11 5t3 10q0 14 17.5 24.5t42.5 10.5q15 0 24.5 -8.5t19.5 -19t24.5 -19t40.5 -8.5z" />
<glyph unicode="&#xf2;" horiz-adv-x="368" d="M222 412q6 0 10 4.5t4 10.5q0 5 -2.5 10t-4.5 10q-14 26 -29 51t-29 51q-7 12 -14 26t-15 25q-12 15 -30 15q-14 0 -23 -9t-9 -23q0 -10 7 -21q9 -14 20 -27l22 -26l34 -41q17 -21 36 -41l11 -10q5 -5 12 -5zM25 114q0 -22 5 -46t16 -43t29.5 -31.5t45.5 -12.5 q21 0 41 7.5t37 18.5q29 19 49 46t33 58t19 64.5t6 66.5q0 23 -4.5 47t-15 44t-28.5 33t-46 13q-45 0 -79.5 -27.5t-58.5 -67.5t-36.5 -86t-12.5 -84zM212 313q16 0 26 -9.5t16 -23t8 -29.5t2 -28q0 -23 -4 -47.5t-12.5 -47.5t-22 -43.5t-32.5 -35.5q-10 -8 -21.5 -13.5 t-24.5 -5.5q-15 0 -25 8.5t-15.5 20.5t-7.5 26.5t-2 26.5q0 22 7.5 56t22 66.5t36 55.5t49.5 23z" />
<glyph unicode="&#xf3;" horiz-adv-x="368" d="M214 412q-6 0 -10 4.5t-4 10.5q0 5 2.5 10t4.5 10q14 26 29 51t29 51q7 12 14 26t15 25q12 15 30 15q14 0 23 -9t9 -23q0 -10 -7 -21q-9 -14 -20 -27l-22 -26l-34 -41q-17 -21 -36 -41l-11 -10q-5 -5 -12 -5zM25 114q0 -22 5 -46t16 -43t29.5 -31.5t45.5 -12.5 q21 0 41 7.5t37 18.5q29 19 49 46t33 58t19 64.5t6 66.5q0 23 -4.5 47t-15 44t-28.5 33t-46 13q-45 0 -79.5 -27.5t-58.5 -67.5t-36.5 -86t-12.5 -84zM212 313q16 0 26 -9.5t16 -23t8 -29.5t2 -28q0 -23 -4 -47.5t-12.5 -47.5t-22 -43.5t-32.5 -35.5q-10 -8 -21.5 -13.5 t-24.5 -5.5q-15 0 -25 8.5t-15.5 20.5t-7.5 26.5t-2 26.5q0 22 7.5 56t22 66.5t36 55.5t49.5 23z" />
<glyph unicode="&#xf4;" horiz-adv-x="368" d="M25 114q0 -22 5 -46t16 -43t29.5 -31.5t45.5 -12.5q21 0 41 7.5t37 18.5q29 19 49 46t33 58t19 64.5t6 66.5q0 23 -4.5 47t-15 44t-28.5 33t-46 13q-45 0 -79.5 -27.5t-58.5 -67.5t-36.5 -86t-12.5 -84zM212 313q16 0 26 -9.5t16 -23t8 -29.5t2 -28q0 -23 -4 -47.5 t-12.5 -47.5t-22 -43.5t-32.5 -35.5q-10 -8 -21.5 -13.5t-24.5 -5.5q-15 0 -25 8.5t-15.5 20.5t-7.5 26.5t-2 26.5q0 22 7.5 56t22 66.5t36 55.5t49.5 23zM216 562q-7 0 -11 -5l-119 -125q-3 -4 -6 -8.5t-3 -10.5q0 -14 13 -14q8 0 14 6l112 92l105 -93q5 -6 14 -6 q10 0 10 13q0 10 -9 21l-108 125q-4 5 -12 5z" />
<glyph unicode="&#xf5;" horiz-adv-x="368" d="M277 413q31 0 52.5 19t21.5 56q0 16 -14 16q-15 0 -15 -14q0 -13 -14 -21t-31 -8q-18 0 -29 8.5t-21 18.5t-23 18.5t-36 8.5q-14 0 -29.5 -6.5t-28.5 -17.5t-21.5 -26t-8.5 -32q0 -5 3 -10t11 -5t11 5t3 10q0 14 17.5 24.5t42.5 10.5q15 0 24.5 -8.5t19.5 -19t24.5 -19 t40.5 -8.5zM25 114q0 -22 5 -46t16 -43t29.5 -31.5t45.5 -12.5q21 0 41 7.5t37 18.5q29 19 49 46t33 58t19 64.5t6 66.5q0 23 -4.5 47t-15 44t-28.5 33t-46 13q-45 0 -79.5 -27.5t-58.5 -67.5t-36.5 -86t-12.5 -84zM212 313q16 0 26 -9.5t16 -23t8 -29.5t2 -28 q0 -23 -4 -47.5t-12.5 -47.5t-22 -43.5t-32.5 -35.5q-10 -8 -21.5 -13.5t-24.5 -5.5q-15 0 -25 8.5t-15.5 20.5t-7.5 26.5t-2 26.5q0 22 7.5 56t22 66.5t36 55.5t49.5 23z" />
<glyph unicode="&#xf6;" horiz-adv-x="368" d="M157 436q24 0 30.5 15.5t6.5 35.5q0 17 -13.5 28.5t-29.5 11.5q-20 0 -27.5 -17t-7.5 -34q0 -18 12 -29t29 -11zM297 436q24 0 30.5 15.5t6.5 35.5q0 17 -13.5 28.5t-29.5 11.5q-20 0 -27.5 -17t-7.5 -34q0 -18 12 -29t29 -11zM25 114q0 -22 5 -46t16 -43t29.5 -31.5 t45.5 -12.5q21 0 41 7.5t37 18.5q29 19 49 46t33 58t19 64.5t6 66.5q0 23 -4.5 47t-15 44t-28.5 33t-46 13q-45 0 -79.5 -27.5t-58.5 -67.5t-36.5 -86t-12.5 -84zM212 313q16 0 26 -9.5t16 -23t8 -29.5t2 -28q0 -23 -4 -47.5t-12.5 -47.5t-22 -43.5t-32.5 -35.5 q-10 -8 -21.5 -13.5t-24.5 -5.5q-15 0 -25 8.5t-15.5 20.5t-7.5 26.5t-2 26.5q0 22 7.5 56t22 66.5t36 55.5t49.5 23z" />
<glyph unicode="&#xf7;" horiz-adv-x="475" d="M238 230q14 0 22.5 8.5t8.5 22.5q0 13 -9 23t-22 10t-22.5 -10t-9.5 -23q0 -14 9 -22.5t23 -8.5zM238 36q14 0 22.5 9t8.5 22q0 14 -8.5 23t-22.5 9q-13 0 -22.5 -9t-9.5 -23q0 -13 9 -22t23 -9zM60 148h355v33h-355v-33z" />
<glyph unicode="&#xf9;" horiz-adv-x="500" d="M19 130q0 -19 1.5 -43.5t8 -46t21 -36.5t41.5 -15q29 0 58.5 19t56.5 45q25 25 45.5 51.5t34.5 46.5q-2 -10 -2 -19v-19q0 -16 1.5 -40t8.5 -46.5t20 -38.5t36 -16q29 0 61 22t62 53t54 64.5t36 57.5q2 4 4.5 10t2.5 11q0 8 -2.5 13.5t-11.5 5.5t-18 -11.5t-13 -18.5 q-9 -14 -28.5 -41t-42.5 -54t-45.5 -47.5t-37.5 -20.5q-10 0 -16 8.5t-9 20t-4 23.5t-1 19q0 23 3.5 51.5t9 58.5t12.5 58t15 49q3 8 6.5 18.5t3.5 19.5q0 11 -6.5 14t-15.5 3q-13 0 -21 -6.5t-14 -16t-10 -21t-9 -20.5q-7 -15 -22.5 -43t-35.5 -60t-43 -64t-46 -56 q-18 -19 -35 -30t-31 -11t-16.5 14.5t-2.5 25.5q0 24 4.5 55.5t11.5 63.5t15 62l16 55q2 8 4.5 16.5t2.5 16.5q0 22 -23 22t-42 -13.5t-26 -35.5q-13 -44 -20 -91t-7 -92zM252 402q6 0 10 4.5t4 10.5q0 5 -2.5 10t-4.5 10q-14 26 -29 51t-29 51q-7 12 -14 26t-15 25 q-12 15 -30 15q-14 0 -23 -9t-9 -23q0 -10 7 -21q9 -14 20 -27l22 -26l34 -41q17 -21 36 -41l11 -10q5 -5 12 -5z" />
<glyph unicode="&#xfa;" horiz-adv-x="500" d="M19 130q0 -19 1.5 -43.5t8 -46t21 -36.5t41.5 -15q29 0 58.5 19t56.5 45q25 25 45.5 51.5t34.5 46.5q-2 -10 -2 -19v-19q0 -16 1.5 -40t8.5 -46.5t20 -38.5t36 -16q29 0 61 22t62 53t54 64.5t36 57.5q2 4 4.5 10t2.5 11q0 8 -2.5 13.5t-11.5 5.5t-18 -11.5t-13 -18.5 q-9 -14 -28.5 -41t-42.5 -54t-45.5 -47.5t-37.5 -20.5q-10 0 -16 8.5t-9 20t-4 23.5t-1 19q0 23 3.5 51.5t9 58.5t12.5 58t15 49q3 8 6.5 18.5t3.5 19.5q0 11 -6.5 14t-15.5 3q-13 0 -21 -6.5t-14 -16t-10 -21t-9 -20.5q-7 -15 -22.5 -43t-35.5 -60t-43 -64t-46 -56 q-18 -19 -35 -30t-31 -11t-16.5 14.5t-2.5 25.5q0 24 4.5 55.5t11.5 63.5t15 62l16 55q2 8 4.5 16.5t2.5 16.5q0 22 -23 22t-42 -13.5t-26 -35.5q-13 -44 -20 -91t-7 -92zM224 402q-6 0 -10 4.5t-4 10.5q0 5 2.5 10t4.5 10q14 26 29 51t29 51q7 12 14 26t15 25q12 15 30 15 q14 0 23 -9t9 -23q0 -10 -7 -21q-9 -14 -20 -27l-22 -26l-34 -41q-17 -21 -36 -41l-11 -10q-5 -5 -12 -5z" />
<glyph unicode="&#xfb;" horiz-adv-x="500" d="M19 130q0 -19 1.5 -43.5t8 -46t21 -36.5t41.5 -15q29 0 58.5 19t56.5 45q25 25 45.5 51.5t34.5 46.5q-2 -10 -2 -19v-19q0 -16 1.5 -40t8.5 -46.5t20 -38.5t36 -16q29 0 61 22t62 53t54 64.5t36 57.5q2 4 4.5 10t2.5 11q0 8 -2.5 13.5t-11.5 5.5t-18 -11.5t-13 -18.5 q-9 -14 -28.5 -41t-42.5 -54t-45.5 -47.5t-37.5 -20.5q-10 0 -16 8.5t-9 20t-4 23.5t-1 19q0 23 3.5 51.5t9 58.5t12.5 58t15 49q3 8 6.5 18.5t3.5 19.5q0 11 -6.5 14t-15.5 3q-13 0 -21 -6.5t-14 -16t-10 -21t-9 -20.5q-7 -15 -22.5 -43t-35.5 -60t-43 -64t-46 -56 q-18 -19 -35 -30t-31 -11t-16.5 14.5t-2.5 25.5q0 24 4.5 55.5t11.5 63.5t15 62l16 55q2 8 4.5 16.5t2.5 16.5q0 22 -23 22t-42 -13.5t-26 -35.5q-13 -44 -20 -91t-7 -92zM236 572q-7 0 -11 -5l-119 -125q-3 -4 -6 -8.5t-3 -10.5q0 -14 13 -14q8 0 14 6l112 92l105 -93 q5 -6 14 -6q10 0 10 13q0 10 -9 21l-108 125q-4 5 -12 5z" />
<glyph unicode="&#xfc;" horiz-adv-x="500" d="M19 130q0 -19 1.5 -43.5t8 -46t21 -36.5t41.5 -15q29 0 58.5 19t56.5 45q25 25 45.5 51.5t34.5 46.5q-2 -10 -2 -19v-19q0 -16 1.5 -40t8.5 -46.5t20 -38.5t36 -16q29 0 61 22t62 53t54 64.5t36 57.5q2 4 4.5 10t2.5 11q0 8 -2.5 13.5t-11.5 5.5t-18 -11.5t-13 -18.5 q-9 -14 -28.5 -41t-42.5 -54t-45.5 -47.5t-37.5 -20.5q-10 0 -16 8.5t-9 20t-4 23.5t-1 19q0 23 3.5 51.5t9 58.5t12.5 58t15 49q3 8 6.5 18.5t3.5 19.5q0 11 -6.5 14t-15.5 3q-13 0 -21 -6.5t-14 -16t-10 -21t-9 -20.5q-7 -15 -22.5 -43t-35.5 -60t-43 -64t-46 -56 q-18 -19 -35 -30t-31 -11t-16.5 14.5t-2.5 25.5q0 24 4.5 55.5t11.5 63.5t15 62l16 55q2 8 4.5 16.5t2.5 16.5q0 22 -23 22t-42 -13.5t-26 -35.5q-13 -44 -20 -91t-7 -92zM177 436q24 0 30.5 15.5t6.5 35.5q0 17 -13.5 28.5t-29.5 11.5q-20 0 -27.5 -17t-7.5 -34 q0 -18 12 -29t29 -11zM317 436q24 0 30.5 15.5t6.5 35.5q0 17 -13.5 28.5t-29.5 11.5q-20 0 -27.5 -17t-7.5 -34q0 -18 12 -29t29 -11z" />
<glyph unicode="&#xff;" horiz-adv-x="455" d="M167 436q24 0 30.5 15.5t6.5 35.5q0 17 -13.5 28.5t-29.5 11.5q-20 0 -27.5 -17t-7.5 -34q0 -18 12 -29t29 -11zM307 436q24 0 30.5 15.5t6.5 35.5q0 17 -13.5 28.5t-29.5 11.5q-20 0 -27.5 -17t-7.5 -34q0 -18 12 -29t29 -11zM117 -414q24 0 46 9t41.5 23t35.5 32.5 t28 37.5q31 48 51 106t31.5 119t16 123t4.5 117q0 14 0.5 42t0 58t-4 54t-11.5 30q-10 7 -20 7q-11 0 -20 -10l-16 -18l-70 -92q-35 -47 -76 -89l-13 -13q-9 -9 -20 -18t-21 -16t-16 -7q-10 0 -10 21q0 14 4.5 35t11.5 44l14 44q7 21 12 34t13 30t8 30q0 17 -13 29t-30 12 q-14 0 -23 -8t-15 -20q-5 -8 -7.5 -18.5t-5.5 -19.5q-13 -40 -24 -89t-11 -91q0 -13 2 -27.5t8 -26t16.5 -19t27.5 -7.5q14 0 30.5 8t34.5 21t37 30t37 35q31 32 56 63.5t36 48.5q3 -78 3 -155v-29q0 -14 -1 -28q-38 -25 -84 -62t-85.5 -80.5t-66 -92.5t-26.5 -99 q0 -20 4.5 -39.5t14.5 -34.5t26 -24.5t39 -9.5zM290 -15q-3 -32 -11 -72.5t-19.5 -81.5t-27 -79t-35.5 -64q-6 -9 -15 -19.5t-19.5 -19.5t-22.5 -15t-24 -6t-20 6.5t-12 16t-5.5 21t-1.5 20.5q0 44 21.5 86t53.5 79.5t70 69.5z" />
<glyph unicode="&#x152;" horiz-adv-x="915" d="M473 126q9 -36 24 -67.5t38.5 -55t54.5 -37t71 -13.5q43 0 84.5 13.5t78.5 36.5t69 53.5t56 64.5q6 8 13.5 21t7.5 23q0 8 -4.5 13t-12.5 5q-7 0 -10.5 -3t-7.5 -8q-9 -12 -16.5 -25t-17.5 -25q-17 -22 -38.5 -41.5t-45.5 -34t-50.5 -23t-55.5 -8.5q-45 0 -74 23 t-45.5 58t-23 76t-6.5 77q0 17 3 35l90 22l90 20l41 10q24 5 40 5h3q13 3 23 13t10 24q0 2 -5 3t-11.5 1.5t-12.5 0.5h-8q-19 0 -54.5 -1t-73.5 -3.5t-71.5 -6t-49.5 -8.5q6 23 16 56.5t25 70.5t33.5 73.5t41 65.5t49 47t55.5 18q30 0 44 -14t21.5 -31t12 -31t15.5 -14 q15 0 17.5 11.5t2.5 22.5q0 51 -29.5 79t-80.5 28q-43 0 -80.5 -18t-68.5 -46t-56.5 -63t-44.5 -70q-5 23 -14 53.5t-24 57.5t-37 45.5t-52 18.5q-11 0 -22.5 -1.5t-22.5 -1.5q-17 0 -32 5t-32 5q-42 0 -78.5 -19.5t-65.5 -48.5q-38 -39 -66.5 -89.5t-47 -106.5t-28 -113.5 t-9.5 -111.5q0 -48 9.5 -98t32 -91t61.5 -67t97 -26q43 0 80 13t69 35.5t58.5 53t47.5 64.5zM507 460q-11 -29 -20.5 -58.5t-16.5 -59.5l-24 -4q-13 -3 -25.5 -8t-21 -13.5t-8.5 -22.5t7.5 -21t18.5 -10t23 -3h22q0 -7 -0.5 -13.5t-0.5 -13.5q0 -6 0.5 -12.5t0.5 -12.5 q-14 -32 -34.5 -64.5t-47 -58.5t-59.5 -42.5t-72 -16.5q-40 0 -67 16.5t-43 43t-22.5 60t-6.5 67.5q0 50 10.5 104.5t30 107t47.5 100t63 83.5q22 23 50.5 40t61.5 17q36 0 60 -21.5t39.5 -53t23.5 -67t11 -63.5z" />
<glyph unicode="&#x153;" horiz-adv-x="571" d="M264 77q10 -42 36 -66t70 -24q41 0 79 14t71 37.5t60.5 54.5t46.5 65q5 9 7 14.5t2 15.5q0 5 -4.5 8t-9.5 3q-11 0 -18 -9t-12 -17q-15 -25 -35 -49.5t-44 -44.5t-52 -32.5t-60 -12.5q-35 0 -50 20t-15 53q0 19 5 42q23 8 50 30t50.5 50.5t39 59t15.5 55.5q0 26 -14.5 43 t-41.5 17q-24 0 -45 -11.5t-38 -28.5t-30.5 -38t-23.5 -41q-7 37 -28.5 65.5t-62.5 28.5q-45 0 -79.5 -27.5t-58.5 -67.5t-36.5 -86t-12.5 -84q0 -22 5 -46t16 -43t29.5 -31.5t45.5 -12.5q23 0 44 8t39.5 21.5t33.5 31t26 35.5zM452 334q0 -20 -11 -41.5t-27 -42t-35 -37 t-35 -26.5q2 13 11 41.5t22 57t28 50t30 21.5q10 0 13.5 -7.5t3.5 -15.5zM212 313q16 0 26 -9.5t16 -23t8 -29.5t2 -28q0 -23 -4 -47.5t-12.5 -47.5t-22 -43.5t-32.5 -35.5q-10 -8 -21.5 -13.5t-24.5 -5.5q-15 0 -25 8.5t-15.5 20.5t-7.5 26.5t-2 26.5q0 22 7.5 56t22 66.5 t36 55.5t49.5 23z" />
<glyph unicode="&#x178;" horiz-adv-x="588" d="M432 367q-3 -55 -13.5 -129t-29 -149t-44 -143.5t-58.5 -111.5q-17 -22 -40.5 -35.5t-52.5 -13.5q-24 0 -42 8.5t-32 18.5t-23.5 18.5t-17.5 8.5t-12.5 -5t-3.5 -12q2 -11 12 -23.5t15 -16.5q21 -18 47.5 -29t54.5 -11q42 0 78.5 21.5t62.5 52.5q34 39 61 90.5t48.5 110 t38 120.5t29 123.5t21 119.5t14.5 107q3 23 5.5 45.5t4.5 45.5l3 24q2 11 2 25t-4 24t-21 10q-8 0 -16 -2q-26 -9 -32.5 -23t-8.5 -39q0 -3 -4 -13l-9 -23l-9 -23q-4 -10 -6 -13q-11 -27 -28 -63l-36 -78q-19 -40 -41.5 -81t-46 -78t-47 -67t-46.5 -47q-10 -8 -21.5 -14 t-24.5 -6q-20 0 -30.5 17.5t-15 41t-5 47.5t-0.5 38q0 42 3.5 93.5t9.5 104.5t15 104t20 92q3 9 3 17q0 16 -9.5 22.5t-24.5 6.5q-8 0 -15.5 -0.5t-14.5 -4.5q-10 -5 -18.5 -18t-15 -28t-11.5 -30l-7 -25q-10 -34 -16 -76t-9.5 -85.5t-4.5 -86t-1 -78.5q0 -29 3 -68.5 t14.5 -75.5t35 -61t63.5 -25q34 0 67 18.5t62.5 49t56.5 69t49.5 78t39.5 76.5zM261 705q24 0 30.5 15.5t6.5 35.5q0 17 -13.5 28.5t-29.5 11.5q-20 0 -27.5 -17t-7.5 -34t12 -28.5t29 -11.5zM401 705q24 0 30.5 15.5t6.5 35.5q0 17 -13.5 28.5t-29.5 11.5q-20 0 -27.5 -17 t-7.5 -34t12 -28.5t29 -11.5z" />
<glyph unicode="&#x2c6;" horiz-adv-x="388" d="M199 592q-6 0 -11 -5l-119 -125q-3 -4 -6 -8.5t-3 -10.5q0 -7 4 -10.5t9 -3.5q6 0 14 6l112 92l105 -93q8 -6 14 -6q10 0 10 13q0 6 -3 11.5t-6 9.5l-108 125q-5 5 -12 5z" />
<glyph unicode="&#x2da;" horiz-adv-x="261" d="M112 448q20 0 36.5 11t28 27.5t18 36t6.5 37.5q0 12 -2.5 25t-8.5 23.5t-15.5 17t-24.5 6.5q-21 0 -37.5 -11t-28 -28.5t-18 -37.5t-6.5 -38q0 -24 12 -46.5t40 -22.5zM151 597q11 0 15.5 -13t4.5 -21q0 -10 -4.5 -25t-12 -28.5t-18.5 -23t-23 -9.5q-11 0 -12.5 11.5 t-1.5 19.5q0 10 3.5 25t10 29.5t16.5 24.5t22 10z" />
<glyph unicode="&#x2dc;" horiz-adv-x="391" d="M257 433q31 0 52.5 19t21.5 56q0 16 -14 16q-15 0 -15 -14q0 -13 -14 -21t-31 -8q-18 0 -29 8.5t-21 18.5t-23 18.5t-36 8.5q-14 0 -29.5 -6.5t-28.5 -17.5t-21.5 -26t-8.5 -32q0 -5 3 -10t11 -5t11 5t3 10q0 14 17.5 24.5t42.5 10.5q15 0 24.5 -8.5t19.5 -19t24.5 -19 t40.5 -8.5z" />
<glyph unicode="&#x2000;" horiz-adv-x="497" />
<glyph unicode="&#x2001;" horiz-adv-x="995" />
<glyph unicode="&#x2002;" horiz-adv-x="497" />
<glyph unicode="&#x2003;" horiz-adv-x="995" />
<glyph unicode="&#x2004;" horiz-adv-x="331" />
<glyph unicode="&#x2005;" horiz-adv-x="248" />
<glyph unicode="&#x2006;" horiz-adv-x="165" />
<glyph unicode="&#x2007;" horiz-adv-x="165" />
<glyph unicode="&#x2008;" horiz-adv-x="124" />
<glyph unicode="&#x2009;" horiz-adv-x="199" />
<glyph unicode="&#x200a;" horiz-adv-x="55" />
<glyph unicode="&#x2010;" horiz-adv-x="481" d="M100 206q0 -9 1.5 -13.5t10.5 -7.5t28.5 -3.5t29.5 -0.5q25 0 56 1t63.5 3t63 6t54.5 10q5 2 9.5 3t4.5 8q0 12 -8.5 14.5t-17.5 2.5q-33 0 -66.5 -1.5t-66.5 -1.5q-43 0 -87 3l-21 2q-10 1 -21 1t-22 -6t-11 -20z" />
<glyph unicode="&#x2011;" horiz-adv-x="481" d="M100 206q0 -9 1.5 -13.5t10.5 -7.5t28.5 -3.5t29.5 -0.5q25 0 56 1t63.5 3t63 6t54.5 10q5 2 9.5 3t4.5 8q0 12 -8.5 14.5t-17.5 2.5q-33 0 -66.5 -1.5t-66.5 -1.5q-43 0 -87 3l-21 2q-10 1 -21 1t-22 -6t-11 -20z" />
<glyph unicode="&#x2018;" horiz-adv-x="197" d="M137 641q0 9 -9 9q-13 0 -29.5 -17t-30.5 -40t-24 -46.5t-12 -36.5q-1 -5 -1.5 -13t-0.5 -13q0 -32 34 -32q17 0 29 13t12 30q0 10 -2.5 20.5t-2.5 21.5q0 23 6 40.5t12.5 30t12.5 21t6 12.5z" />
<glyph unicode="&#x2019;" horiz-adv-x="237" d="M100 461q0 -9 9 -9q14 0 30 17t30.5 40.5t24.5 47t11 35.5q1 6 1.5 12.5t0.5 13.5q0 16 -9.5 24t-24.5 8q-17 0 -29 -13t-12 -30q0 -11 2.5 -21t2.5 -21q0 -21 -6 -38.5t-12.5 -31t-12.5 -22.5t-6 -12z" />
<glyph unicode="&#x201c;" horiz-adv-x="317" d="M137 641q0 9 -9 9q-14 0 -30 -17t-30.5 -40.5t-24 -47t-11.5 -35.5q-1 -6 -1.5 -12.5t-0.5 -13.5q0 -16 9.5 -24t24.5 -8q17 0 29 13t12 30q0 11 -2.5 21t-2.5 21q0 21 6 38.5t12.5 31t12.5 22t6 12.5zM257 641q0 9 -9 9q-14 0 -30 -17t-30.5 -40.5t-24 -47t-11.5 -35.5 q-1 -6 -1.5 -12.5t-0.5 -13.5q0 -16 9.5 -24t24.5 -8q17 0 29 13t12 30q0 11 -2.5 21t-2.5 21q0 21 6 38.5t12.5 31t12.5 22t6 12.5z" />
<glyph unicode="&#x201d;" horiz-adv-x="357" d="M220 461q0 -9 9 -9q14 0 30 17t30 40t24.5 46.5t11.5 36.5q1 5 1.5 13t0.5 13q0 32 -34 32q-17 0 -29 -13t-12 -30q0 -10 2.5 -20.5t2.5 -21.5q0 -23 -6 -40.5t-12.5 -30t-12.5 -20.5t-6 -13zM100 461q0 -9 9 -9q14 0 30 17t30 40t24.5 46.5t11.5 36.5q1 5 1.5 13t0.5 13 q0 32 -34 32q-17 0 -29 -13t-12 -30q0 -10 2.5 -20.5t2.5 -21.5q0 -23 -6 -40.5t-12.5 -30t-12.5 -20.5t-6 -13z" />
<glyph unicode="&#x2022;" horiz-adv-x="300" d="M150 148q20 0 32 7t18.5 18.5t8.5 27t2 32.5q0 28 -22 47t-49 19q-17 0 -28 -8t-18 -20.5t-9.5 -27t-2.5 -28.5q0 -29 19.5 -48t48.5 -19z" />
<glyph unicode="&#x2026;" horiz-adv-x="838" d="M141 0q24 0 30.5 15.5t6.5 35.5q0 17 -13.5 28.5t-29.5 11.5q-20 0 -27.5 -17t-7.5 -34q0 -18 12 -29t29 -11zM441 0q24 0 30.5 15.5t6.5 35.5q0 17 -13.5 28.5t-29.5 11.5q-20 0 -27.5 -17t-7.5 -34q0 -18 12 -29t29 -11zM741 0q24 0 30.5 15.5t6.5 35.5 q0 17 -13.5 28.5t-29.5 11.5q-20 0 -27.5 -17t-7.5 -34q0 -18 12 -29t29 -11z" />
<glyph unicode="&#x202f;" horiz-adv-x="199" />
<glyph unicode="&#x2039;" horiz-adv-x="381" d="M60 171q0 -7 8 -13l202 -144q15 -10 30 -10q7 0 12.5 4t5.5 12q0 5 -0.5 9t-4.5 7l-148 135l150 126q6 5 6 18q0 8 -5.5 9.5t-11.5 1.5q-9 0 -17.5 -3t-16.5 -8l-202 -130q-8 -5 -8 -14z" />
<glyph unicode="&#x203a;" horiz-adv-x="381" d="M321 171q0 -7 -8 -13l-202 -144q-15 -10 -30 -10q-7 0 -12.5 4t-5.5 12q0 5 0.5 9t4.5 7l148 135l-150 126q-6 5 -6 18q0 8 5.5 9.5t11.5 1.5q9 0 17.5 -3t16.5 -8l202 -130q8 -5 8 -14z" />
<glyph unicode="&#x205f;" horiz-adv-x="248" />
<glyph unicode="&#x2122;" horiz-adv-x="409" d="M328 544h32v142h-48l-30 -85l-34 85h-49v-142h34v106l41 -106h14l40 106v-106zM128 657h44v29h-123v-29h44v-113h35v113z" />
<glyph unicode="&#xe000;" horiz-adv-x="377" d="M19 117q7 0 12.5 6t9.5 11q9 12 19 29.5t18.5 36t16 36.5t12.5 33q3 8 4.5 17t4.5 17l8 3q8 4 20 7.5t26.5 6t27.5 2.5q17 -1 28 -8t11 -26q0 -22 -11 -46t-27.5 -47t-35.5 -42.5t-34 -33.5l-12 -13q-7 -7 -7 -15q0 -11 8.5 -19.5t15.5 -14.5q21 -18 40.5 -40t27.5 -49 q-40 -20 -80.5 -50.5t-73.5 -68.5t-53.5 -82.5t-20.5 -92.5q0 -42 26.5 -65t67.5 -23t75 17t61 46q22 23 39 52t28.5 60t17.5 62t6 60q0 31 -5 61.5t-16.5 58.5t-30 52t-45.5 42q15 20 35 42.5t39 47t32 50.5t13 52q0 40 -23 60t-61 20q-29 0 -58.5 -9t-55.5 -22 q-1 24 -13.5 43t-39.5 19q-25 0 -42 -14.5t-17 -40.5q0 -24 20.5 -34.5t41.5 -10.5q3 0 5.5 -0.5t5.5 0.5q-1 -8 -9.5 -27.5t-19 -41.5t-21 -41.5t-15.5 -27.5q-5 -6 -8.5 -13t-3.5 -15q0 -7 4.5 -12t11.5 -5zM84 330q-4 -1 -13 -1q-11 0 -21 4.5t-10 15.5q0 22 21 22 q13 0 17.5 -10.5t5.5 -21.5v-9zM213 -85q3 -17 3 -33q0 -23 -5 -50.5t-14 -54.5t-22 -52t-28 -42q-16 -18 -40.5 -36t-50.5 -18q-23 0 -32 16t-9 36q0 42 18.5 77.5t47 65t63.5 52.5t69 39zM196 428q8 0 13 4l134 126q4 4 7 8.5t3 10.5q0 7 -4.5 10.5t-9.5 3.5t-8.5 -2 t-7.5 -4l-127 -92l-118 93q-6 6 -16 6q-12 0 -12 -13q0 -6 3 -11.5t7 -9.5l123 -126q2 -2 6 -3t7 -1z" />
<glyph unicode="&#xe001;" horiz-adv-x="548" d="M451 -15q16 0 26 5q9 5 20 18t20.5 29t16 32.5t6.5 26.5t-9 14.5t-17 4.5q-15 0 -26 -12q-15 -17 -36 -30t-44 -15q-25 -2 -50 -3l-49 -2l-177 -6l83 101l82 101l81 109l78 111l29 45q14 22 30 44q8 12 20.5 29t12.5 33q0 10 -6.5 14t-14.5 4q-70 0 -140 0.5t-140 0.5 h-82q-10 0 -19.5 1t-19.5 1q-11 0 -19 -4q-9 -5 -20 -19.5t-20.5 -31.5t-16 -34t-6.5 -28q0 -10 9 -14.5t18 -4.5q15 0 25 12q14 17 36 29.5t44 15.5q40 6 91.5 7t91.5 1h19q11 0 23 -0.5t22.5 -2t17.5 -3.5q1 0 3.5 -1t2.5 -3q0 -7 -19.5 -37.5t-49.5 -72.5l-68 -91 l-69 -93l-59 -76l-34 -44l-14 -18l-20 -26l-20 -25q-10 -12 -15 -15q-11 -9 -21 -19t-10 -26q0 -17 15 -30.5t32 -9.5q24 5 55.5 8t65 4.5t65.5 1.5h57h39q20 0 40 -3q17 -3 34 -3zM326 678q8 0 13 4l134 126q4 4 7 8.5t3 10.5q0 7 -4.5 10.5t-9.5 3.5t-8.5 -2t-7.5 -4 l-127 -92l-118 93q-6 6 -16 6q-12 0 -12 -13q0 -6 3 -11.5t7 -9.5l123 -126q2 -2 6 -3t7 -1z" />
<glyph unicode="&#xe002;" horiz-adv-x="389" d="M160 328q12 -28 28 -58l31 -59q15 -30 25 -60.5t10 -62.5q0 -44 -23 -77q10 0 23 6t27.5 16t29.5 23t28 27q19 19 33.5 37t21.5 29q5 7 12.5 16.5t16.5 9.5t12 -6t3 -14q0 -5 -3.5 -11t-5.5 -10q-17 -26 -34.5 -48.5t-35.5 -41.5q-45 -48 -100.5 -72.5t-135.5 -24.5 q-29 0 -62 6t-56 27q-5 5 -8 10t-3 12q0 15 16 15q6 0 10 -2l8 -5q16 -11 34 -15t37 -4q40 0 60.5 24.5t20.5 62.5q0 22 -6.5 48.5t-16.5 52.5t-22.5 50.5t-24.5 42.5q-7 -20 -17.5 -44t-23 -48t-27.5 -46t-30 -38q-5 -5 -12 -10.5t-14 -5.5q-14 0 -14 14q0 8 3.5 14t8.5 12 q32 39 59.5 91t42.5 100q-9 26 -9 53q0 14 5 34t14 38.5t23 31.5t32 13q9 0 15.5 -6t10 -14t5 -17.5t1.5 -16.5q0 -25 -7.5 -50.5t-15.5 -48.5zM146 528q8 0 13 4l134 126q4 4 7 8.5t3 10.5q0 7 -4.5 10.5t-9.5 3.5t-8.5 -2t-7.5 -4l-127 -92l-118 93q-6 6 -16 6 q-12 0 -12 -13q0 -6 3 -11.5t7 -9.5l123 -126q2 -2 6 -3t7 -1z" />
<glyph unicode="&#xe003;" horiz-adv-x="557" d="M425 567q0 -11 7.5 -18t18.5 -7t23.5 4.5t25 11.5t24 15t18.5 15q14 12 22 30.5t8 36.5q0 19 -11.5 30.5t-28.5 17.5t-35.5 8t-32.5 2q-29 0 -66.5 -3t-77 -10.5t-77 -21t-67 -34.5t-47.5 -50.5t-18 -68.5q0 -45 22.5 -83.5t55.5 -72t72.5 -63t72.5 -57.5t55.5 -55 t22.5 -55q0 -25 -16 -43.5t-41.5 -32t-57 -22t-63 -14t-59.5 -7.5t-45 -2q-26 0 -49.5 6.5t-48.5 6.5q-11 0 -21.5 -2t-10.5 -16v-6q2 -9 11 -14.5t20.5 -8t23.5 -3t20 -1.5q27 -3 53 -3q29 0 66 3t77 10.5t78 20.5t68 33t48.5 49t18.5 67q0 39 -20.5 73.5t-51.5 66.5 t-67.5 61t-67.5 58t-51.5 58t-20.5 60q0 28 17.5 51.5t43.5 41t55.5 29.5t52.5 16q17 3 34 4t34 1q5 0 13 -0.5t16 -2t14 -5.5t6 -12q0 -11 -10.5 -22.5t-22.5 -23t-22.5 -23.5t-10.5 -24zM406 748q8 0 13 4l134 126q4 4 7 8.5t3 10.5q0 7 -4.5 10.5t-9.5 3.5t-8.5 -2 t-7.5 -4l-127 -92l-118 93q-6 6 -16 6q-12 0 -12 -13q0 -6 3 -11.5t7 -9.5l123 -126q2 -2 6 -3t7 -1z" />
<glyph unicode="&#xe004;" horiz-adv-x="455" d="M214 422q-6 0 -10 4.5t-4 10.5q0 5 2.5 10t4.5 10q14 26 29 51t29 51q7 12 14 26t15 25q12 15 30 15q14 0 23 -9t9 -23q0 -10 -7 -21q-9 -14 -20 -27l-22 -26l-34 -41q-17 -21 -36 -41l-11 -10q-5 -5 -12 -5zM117 -414q24 0 46 9t41.5 23t35.5 32.5t28 37.5q31 48 51 106 t31.5 119t16 123t4.5 117q0 14 0.5 42t0 58t-4 54t-11.5 30q-10 7 -20 7q-11 0 -20 -10l-16 -18l-70 -92q-35 -47 -76 -89l-13 -13q-9 -9 -20 -18t-21 -16t-16 -7q-10 0 -10 21q0 14 4.5 35t11.5 44l14 44q7 21 12 34t13 30t8 30q0 17 -13 29t-30 12q-14 0 -23 -8t-15 -20 q-5 -8 -7.5 -18.5t-5.5 -19.5q-13 -40 -24 -89t-11 -91q0 -13 2 -27.5t8 -26t16.5 -19t27.5 -7.5q14 0 30.5 8t34.5 21t37 30t37 35q31 32 56 63.5t36 48.5q3 -78 3 -155v-29q0 -14 -1 -28q-38 -25 -84 -62t-85.5 -80.5t-66 -92.5t-26.5 -99q0 -20 4.5 -39.5t14.5 -34.5 t26 -24.5t39 -9.5zM290 -15q-3 -32 -11 -72.5t-19.5 -81.5t-27 -79t-35.5 -64q-6 -9 -15 -19.5t-19.5 -19.5t-22.5 -15t-24 -6t-20 6.5t-12 16t-5.5 21t-1.5 20.5q0 44 21.5 86t53.5 79.5t70 69.5z" />
<glyph unicode="&#xe005;" horiz-adv-x="588" d="M432 367q-3 -55 -13.5 -129t-29 -149t-44 -143.5t-58.5 -111.5q-17 -22 -40.5 -35.5t-52.5 -13.5q-24 0 -42 8.5t-32 18.5t-23.5 18.5t-17.5 8.5t-12.5 -5t-3.5 -12q2 -11 12 -23.5t15 -16.5q21 -18 47.5 -29t54.5 -11q42 0 78.5 21.5t62.5 52.5q34 39 61 90.5t48.5 110 t38 120.5t29 123.5t21 119.5t14.5 107q3 23 5.5 45.5t4.5 45.5l3 24q2 11 2 25t-4 24t-21 10q-8 0 -16 -2q-26 -9 -32.5 -23t-8.5 -39q0 -3 -4 -13l-9 -23l-9 -23q-4 -10 -6 -13q-11 -27 -28 -63l-36 -78q-19 -40 -41.5 -81t-46 -78t-47 -67t-46.5 -47q-10 -8 -21.5 -14 t-24.5 -6q-20 0 -30.5 17.5t-15 41t-5 47.5t-0.5 38q0 42 3.5 93.5t9.5 104.5t15 104t20 92q3 9 3 17q0 16 -9.5 22.5t-24.5 6.5q-8 0 -15.5 -0.5t-14.5 -4.5q-10 -5 -18.5 -18t-15 -28t-11.5 -30l-7 -25q-10 -34 -16 -76t-9.5 -85.5t-4.5 -86t-1 -78.5q0 -29 3 -68.5 t14.5 -75.5t35 -61t63.5 -25q34 0 67 18.5t62.5 49t56.5 69t49.5 78t39.5 76.5zM304 712q-6 0 -10 4.5t-4 10.5q0 5 2.5 10t4.5 10q14 26 29 51t29 51q7 12 14 26t15 25q12 15 30 15q14 0 23 -9t9 -23q0 -10 -7 -21q-9 -14 -20 -27l-22 -26l-34 -41q-17 -21 -36 -41 q-5 -5 -10.5 -10t-12.5 -5z" />
<glyph unicode="&#xe006;" horiz-adv-x="452" d="M366 -9l26 25l-140 140l140 140l-26 27l-140 -140l-140 140l-26 -27l140 -140l-140 -140l26 -26l140 140z" />
<glyph unicode="&#xe007;" horiz-adv-x="153" d="M93 4v355h-33v-355h33zM93 445v355h-33v-355h33z" />
<glyph unicode="&#xe008;" horiz-adv-x="475" d="M60 165h355v33h-355v-33z" />
</font>
</defs>
</svg>
