<?xml version="1.0" standalone="no"?>
<!DOCTYPE svg PUBLIC "-//W3C//DTD SVG 1.1//EN" "http://www.w3.org/Graphics/SVG/1.1/DTD/svg11.dtd" >
<svg xmlns="http://www.w3.org/2000/svg">
<metadata>
This is a custom SVG webfont generated by Font Squirrel.
Designer    : La Tipomatika
Foundry     : La Tipomatika
Foundry URL : www.tipomatika.co.nr
</metadata>
<defs>
<font id="webfontlY5Qn11G" horiz-adv-x="555" >
<font-face units-per-em="1000" ascent="750" descent="-250" />
<missing-glyph horiz-adv-x="232" />
<glyph unicode="&#xfb00;" horiz-adv-x="650" d="M459 572v-72h49h11q16 0 46 -2h7q4 -1 13 -1q2 0 7 -0.5t8 -0.5q8 -2 14 -14.5t6 -28.5q0 -44 -24 -45q-56 3 -99 3q-28 0 -38 -1v-395q0 -28 -46 -28q-20 0 -35.5 6.5t-16.5 14.5l1 400q-17 0 -32 1q-58 2 -102 2h-39v-396q0 -28 -46 -28q-20 0 -35.5 6.5t-16.5 14.5 l1 397h-22q-35 0 -41.5 6t-6.5 38q0 45 18 45q10 -1 22 -1q24 0 29 1v43q0 8 0.5 23.5t0.5 23.5q1 54 54.5 91.5t125.5 37.5q76 0 147 -34v1q0 1 2 0q57 33 121 33q34 0 66 -10t32 -32q0 -19 -12.5 -41t-24.5 -21q-28 14 -65 14q-33 0 -56 -13t-23 -38zM189 570v-70 q9 1 29 1q26 0 74 -4h4q40 -4 52 -4q8 0 13 1v43q0 8 0.5 23.5t0.5 23.5q0 11 2 23q-36 23 -77 23q-33 0 -61.5 -16.5t-36.5 -43.5z" />
<glyph unicode="&#xfb01;" horiz-adv-x="519" d="M455 482l1 -466q0 -13 -15.5 -21t-35.5 -8t-34.5 6.5t-14.5 18.5l-1 397q-64 2 -110 2q-49 0 -61 -1v-395q0 -28 -46 -28q-20 0 -35.5 6.5t-16.5 14.5l1 397h-22q-35 0 -41.5 6t-6.5 38q0 45 18 45q10 -1 22 -1q24 0 29 1v43q0 8 0.5 23.5t0.5 23.5q1 54 54.5 91.5 t125.5 37.5q34 0 66 -10t32 -32q0 -19 -12.5 -41t-24.5 -21q-28 14 -65 14q-33 0 -56 -13t-23 -38v-75h23q32 0 92 2q23 1 77 1q76 0 79 -18zM375 592v22q0 17 12.5 29t29.5 12h22q17 0 29 -12t12 -29v-22q0 -17 -12 -29t-29 -12h-22q-17 0 -29.5 12t-12.5 29z" />
<glyph unicode="&#xfb02;" horiz-adv-x="563" d="M450 125q0 -33 20.5 -44.5t72.5 -11.5q18 0 18 -32t-9 -39.5t-36 -7.5q-26 0 -44.5 1.5t-43.5 8.5t-40.5 20t-27 38.5t-11.5 61.5v290h-45q-5 0 -15.5 0.5t-16.5 0.5q-80 0 -83 -1v-395q0 -28 -46 -28q-20 0 -35.5 6.5t-16.5 14.5l1 397h-22q-35 0 -41.5 6t-6.5 38 q0 45 18 45q10 -1 22 -1q24 0 29 1v43q0 8 0.5 23.5t0.5 23.5q1 61 73.5 96t162.5 35q65 0 110 -19q9 -4 12 -20t3 -76v-44q0 -11 -0.5 -39t-0.5 -46q-1 -46 -1 -174q0 -24 -0.5 -81t-0.5 -91zM189 572v-74q31 2 104 2h30h26v133q-35 0 -60 -2t-49.5 -8t-37.5 -19t-13 -32z " />
<glyph unicode="&#xfb03;" horiz-adv-x="772" d="M541 713q34 0 66 -10t32 -32q0 -19 -12.5 -41t-24.5 -21q-28 14 -65 14q-33 0 -56 -13t-23 -38v-73q14 1 92 1q92 0 164 -4q7 -1 13.5 -7.5t6.5 -19.5l1 -453q0 -13 -15.5 -21t-35.5 -8t-34.5 6.5t-14.5 18.5l-1 399h-94q-76 0 -82 -1v-395q0 -28 -46 -28 q-20 0 -35.5 6.5t-16.5 14.5l1 399h-14q-17 0 -57 2q-44 2 -65 2q-30 0 -36 -1v-395q0 -28 -46 -28q-20 0 -35.5 6.5t-16.5 14.5l1 397h-22q-35 0 -41.5 6t-6.5 38q0 45 18 45q10 -1 22 -1q24 0 29 1v43q0 8 0.5 23.5t0.5 23.5q1 54 54.5 91.5t125.5 37.5q98 0 148 -34 q53 34 121 34zM189 572v-74q107 -4 148 -4h23v1q-2 22 -2 47q0 46 5 66q-33 20 -80 20q-39 0 -66.5 -14.5t-27.5 -41.5zM657 592v22q0 17 12.5 29t29.5 12h22q17 0 29 -12t12 -29v-22q0 -17 -12 -29t-29 -12h-22q-17 0 -29.5 12t-12.5 29z" />
<glyph unicode="&#xfb04;" horiz-adv-x="779" d="M733 734l1 -719q0 -13 -16 -21t-36 -8q-21 0 -35.5 7t-14.5 18l-1 397q-2 0 -7 0.5t-9 0.5q-52 2 -107 2q-38 0 -50 -1v-395q0 -28 -46 -28q-20 0 -35.5 6.5t-16.5 14.5l1 398h-23q-15 0 -39 2q-3 0 -11 0.5t-11 0.5q-40 2 -59 2q-28 0 -34 -1v-395q0 -28 -46 -28 q-20 0 -35.5 6.5t-16.5 14.5l1 397h-22q-35 0 -41.5 6t-6.5 38q0 45 18 45q10 -1 22 -1q24 0 29 1v43q0 8 0.5 23.5t0.5 23.5q1 54 54.5 91.5t125.5 37.5q75 0 147 -33l2 -1q1 0 3 -1q55 35 122 35q51 0 90 -16v35q0 7 21 16t41 9q37 0 40 -23zM184 572v-72q10 1 54 1 q34 0 55 -3q1 0 5 -0.5t5 -0.5q22 -2 39 -2h18v42q0 8 0.5 23.5t0.5 23.5q0 18 2 26q-43 16 -86 16q-39 0 -66 -13.5t-27 -40.5zM630 555q0 17 0.5 32t0.5 16v4q-29 24 -80 24q-39 0 -66 -15t-27 -44v-74q30 2 71 2q34 0 102 -4q-1 24 -1 59z" />
<glyph unicode="ft" horiz-adv-x="630" d="M466 413l1 -239q0 -62 16.5 -83.5t78.5 -21.5q18 0 18 -32q0 -30 -8 -39t-38 -9q-82 0 -112 25q-4 3 -8.5 7.5t-13.5 17.5t-16 29t-12 44t-5 60v237h-42q-4 0 -14 0.5t-15 0.5q-22 1 -65 1q-32 0 -42 -1v-395q0 -28 -46 -28q-20 0 -35.5 6.5t-16.5 14.5l1 397h-22 q-35 0 -41.5 6t-6.5 38q0 45 18 45q10 -1 22 -1q24 0 29 1v43q0 8 0.5 23.5t0.5 23.5q1 54 54.5 91.5t125.5 37.5q34 0 66 -10t32 -32q0 -19 -12.5 -41t-24.5 -21q-28 14 -65 14q-33 0 -56 -13t-23 -38v-72h28q26 0 78 -2h7q40 -2 53 -2h12v88q0 2 1.5 5.5t14.5 10t37 8.5 q46 0 46 -24v-85q11 1 86 1q32 0 39.5 -8t7.5 -37q0 -16 -5.5 -29.5t-13.5 -13.5q-45 1 -82 1h-32z" />
<glyph unicode=" "  horiz-adv-x="232" />
<glyph unicode="&#x09;" horiz-adv-x="232" />
<glyph unicode="&#xa0;" horiz-adv-x="232" />
<glyph unicode="!" horiz-adv-x="321" d="M198 53v-22q0 -17 -12.5 -29t-29.5 -12h-22q-17 0 -29 12t-12 29v22q0 17 12 29t29 12h22q17 0 29.5 -12t12.5 -29zM98 163l-2 521q0 14 15 21.5t36 7.5q18 0 33.5 -7t15.5 -18l2 -523q0 -8 -20.5 -16.5t-39.5 -8.5q-37 0 -40 23z" />
<glyph unicode="&#x22;" horiz-adv-x="295" d="M160 501l-6 229q6 22 38 22q19 0 39 -9t20 -16q0 -15 -1.5 -47.5t-2.5 -49.5t-2.5 -53.5t-2.5 -54.5q-3 -42 -42 -42q-14 0 -26.5 7t-13.5 14zM45 501l-6 229q6 22 38 22q19 0 39 -9t20 -16q0 -15 -1.5 -47.5t-2.5 -49.5t-2.5 -53.5t-2.5 -54.5q-3 -42 -42 -42 q-14 0 -26.5 7t-13.5 14z" />
<glyph unicode="#" horiz-adv-x="787" d="M167 212l-92 1q-13 0 -20.5 14t-7.5 34q0 19 7 34.5t18 15.5l120 -1q2 10 3 14q4 17 12 44.5t10 36.5h-41q-8 0 -23.5 0.5t-22.5 0.5q-13 0 -20.5 14t-7.5 34q0 19 7 34.5t18 15.5l115 -1l50 194q4 14 33 14q23 0 42 -9.5t19 -28.5l-45 -171h139l25 95l26 100q4 14 33 14 q23 0 42 -9.5t19 -28.5l-45 -173h55q9 0 30 -0.5t32 -0.5q9 1 17.5 -17t8.5 -38q0 -38 -24 -41h-144q-3 -10 -7 -28t-5 -21q-8 -28 -12 -47h52q9 0 29 -0.5t31 -0.5q9 -1 17 -18.5t8 -36.5q0 -38 -24 -41h-138l-54 -209q-6 -16 -31 -16q-23 0 -43.5 12.5t-20.5 26.5l48 187 h-138q-4 -17 -13 -51t-13 -51l-28 -108q-6 -16 -31 -16q-23 0 -43.5 12.5t-20.5 26.5zM317 404l-25 -95h138q2 10 3 14q4 17 12 44.5t10 36.5h-138z" />
<glyph unicode="$" horiz-adv-x="537" d="M294 -5l-5 -68q-1 -24 -32 -24q-18 0 -33.5 9t-15.5 22l4 59q-103 7 -154 59q-8 5 -8 15q0 16 20.5 40.5t35.5 24.5q3 0 15 -6q42 -33 96 -40q2 37 8 109q2 19 4 55l3 55q-90 5 -133 44t-43 124q0 94 48 153t152 60q0 6 2 22q0 4 1 13t1 14q1 6 12.5 12t25.5 6 q39 0 42 -27l-4 -44q39 -7 76.5 -21t37.5 -30q0 -15 -15.5 -42t-26.5 -27q-51 23 -76 27q-1 -15 -3.5 -47.5t-3.5 -49.5q-3 -40 -7 -99q77 -11 122 -60t45 -124q0 -93 -53 -149t-138 -65zM392 208q0 32 -21 57t-60 35q-1 -16 -2 -34t-2 -39t-2 -33l-6 -105q43 10 68 40 t25 79zM163 471q0 -42 20 -57.5t54 -17.5q4 70 7 99q1 17 3.5 50t3.5 50q-44 -6 -66 -39.5t-22 -84.5z" />
<glyph unicode="%" horiz-adv-x="748" d="M591 663l-359 -661q-7 -12 -22 -12q-19 0 -43 17t-24 30q0 10 5 11l179 328l183 335q3 1 11 1q19 0 45 -13.5t26 -32.5v-1q-1 -1 -1 -2zM492 158q0 -30 19.5 -52.5t46.5 -22.5t47 22.5t20 52.5t-20 52.5t-47 22.5t-46.5 -22.5t-19.5 -52.5zM402 161q0 69 45.5 113.5 t111.5 44.5t111 -44.5t45 -113.5q0 -70 -45.5 -118.5t-110.5 -48.5q-66 0 -111.5 48.5t-45.5 118.5zM128 549q0 -30 19.5 -52.5t46.5 -22.5t47 22.5t20 52.5t-20 52.5t-47 22.5t-46.5 -22.5t-19.5 -52.5zM38 552q0 69 45.5 113.5t111.5 44.5t111 -44.5t45 -113.5 q0 -70 -45.5 -118.5t-110.5 -48.5q-66 0 -111.5 48.5t-45.5 118.5z" />
<glyph unicode="&#x26;" horiz-adv-x="630" d="M575 211q-10 -28 -46 -70l-11 -11q86 -80 86 -88q0 -11 -29 -37t-39 -26v10q-11 0 -16 5q-7 7 -15 13q-1 1 -21 18l-38 32q-90 -76 -205 -76q-85 0 -140 52t-55 154q0 117 119 199q-29 42 -42 63t-24.5 50t-11.5 55q0 28 7.5 53.5t25.5 51t56 40.5t92 15q12 0 22.5 -0.5 t29 -4t34 -9.5t33 -18.5t29 -29.5t19.5 -43t8 -59q0 -66 -33 -106.5t-110 -82.5q3 -3 4 -5t3 -4q81 -98 145 -162q7 9 11 16q1 1 20 27l26 37q16 0 41 -21t25 -32v-6zM254 269q-14 16 -19 23q-1 1 -7 8.5t-10 11.5q-73 -51 -73 -128q0 -55 30 -83t74 -28q71 0 132 50 q-45 45 -127 146zM347 549q0 45 -23 64.5t-57 19.5q-39 0 -61 -17t-22 -64q0 -39 65 -127q57 33 77.5 59.5t20.5 64.5z" />
<glyph unicode="'" horiz-adv-x="191" d="M50 501l-6 229q6 22 38 22q19 0 39 -9t20 -16q0 -15 -1.5 -47.5t-2.5 -49.5t-2.5 -53.5t-2.5 -54.5q-3 -42 -42 -42q-14 0 -26.5 7t-13.5 14z" />
<glyph unicode="(" horiz-adv-x="308" d="M22 380q0 124 42 231.5t112 215.5q6 8 17 8q15 0 36 -19t21 -29q0 -6 -3 -9q-54 -86 -93.5 -198t-39.5 -202q0 -117 49 -259t109 -230v1q3 -3 3 -12q0 -12 -21.5 -29.5t-36.5 -17.5q-14 0 -17 9q-69 98 -123.5 239t-54.5 301z" />
<glyph unicode=")" horiz-adv-x="321" d="M257 380q0 -159 -55 -302t-125 -242q-5 -5 -14 -5q-15 0 -36.5 17.5t-21.5 29.5q0 8 5 11l-2 -1q60 89 108.5 230.5t48.5 259.5q0 93 -39.5 201.5t-94.5 194.5v-1q-3 3 -3 11q0 10 21 29t36 19q11 0 17 -8q71 -109 113 -214.5t42 -229.5z" />
<glyph unicode="*" horiz-adv-x="458" d="M278 682l-12 -98q22 16 37 26q32 22 46 33h-1q3 3 12 3q14 0 33 -23.5t19 -41.5q0 -15 -12 -21l-56 -31l-22 -13l-25 -14l48 -34l55 -38q6 -12 6 -18q0 -19 -24 -41.5t-37 -21.5l-78 78q12 -93 12 -97q1 -8 -19.5 -17.5t-40.5 -9.5q-35 0 -40 25l15 107l-39 -38h1 l-50 -49q-12 0 -35.5 22.5t-23.5 41.5q0 12 5 18l110 74q-4 2 -18 9.5t-21 10.5l-69 35v-1q-13 6 -13 23q0 18 19 41.5t33 23.5q8 0 11 -5l-1 2q8 -6 17 -12l19 -13q10 -6 15 -10l41 -29q-6 26 -8 44q-1 9 -4 28t-5 27q0 13 15.5 22t34.5 9q21 0 35.5 -7.5t14.5 -19.5z" />
<glyph unicode="+" horiz-adv-x="476" d="M173 388v127q0 14 15 21.5t36 7.5q18 0 33.5 -7t15.5 -18v-131h68q13 0 37.5 0.5t36.5 0.5q7 0 16 -20.5t9 -39.5q0 -37 -23 -40l-144 -1v-68q0 -12 0.5 -36t0.5 -36q0 -8 -20.5 -16.5t-39.5 -8.5q-37 0 -40 23l-1 142h-125q-14 0 -21.5 15t-7.5 36q0 19 7 34t18 15h129z " />
<glyph unicode="," horiz-adv-x="224" d="M205 30l-106 -162q-3 -3 -22 -3t-34 9.5t-15 29.5q0 11 8 25q3 7 12.5 23.5t12.5 23.5q2 5 5 10q1 5 3 8q12 21 29 55h-1q3 6 9.5 18t8.5 16q5 1 14 1q23 0 50 -14t27 -35v-1q-1 -2 -1 -4z" />
<glyph unicode="-" horiz-adv-x="400" d="M322 289l-261 -1q-14 0 -21.5 15t-7.5 36q0 19 7 34t18 15l263 1q7 0 16 -20.5t9 -39.5q0 -37 -23 -40z" />
<glyph unicode="." horiz-adv-x="284" d="M79 53v8q0 28 19 47t47 19h8q27 0 45.5 -19t18.5 -47v-8q0 -28 -18.5 -46.5t-45.5 -18.5h-8q-28 0 -47 18.5t-19 46.5z" />
<glyph unicode="/" horiz-adv-x="393" d="M369 666l-265 -657q-12 -21 -29 -21q-20 0 -43.5 14.5t-23.5 27.5l1 7l262 649q14 26 30 26q25 0 46.5 -12t21.5 -34z" />
<glyph unicode="0" horiz-adv-x="564" d="M141 349q0 -259 135 -259q36 0 62.5 13.5t42.5 35.5t25.5 56.5t13 70.5t3.5 83q0 117 -37 192t-110 75q-61 0 -98 -72t-37 -195zM42 349q0 187 63.5 276.5t176.5 89.5q111 0 179 -104.5t68 -261.5q0 -77 -13 -139t-40.5 -112.5t-76.5 -78.5t-117 -28q-56 0 -98.5 19 t-69 50.5t-43 78.5t-23 97.5t-6.5 112.5z" />
<glyph unicode="1" horiz-adv-x="363" d="M290 689v-684q-31 -8 -56 -8t-42 8v559l-55 -40l-63 -48q-11 0 -33 20t-22 35q0 11 8 16q186 158 193 158q20 4 35 4q35 0 35 -20z" />
<glyph unicode="2" horiz-adv-x="517" d="M358 527q0 41 -30.5 66.5t-79.5 25.5q-41 0 -78 -18t-54 -36l-16 -18q-9 0 -34 21t-25 37q0 12 8 18q87 89 192 89q20 0 32.5 -0.5t38 -4t43.5 -10t40 -20t35.5 -32t23 -48.5t9.5 -67t-10.5 -69t-23 -53.5t-40 -46.5t-43.5 -37l-50 -36q-69 -47 -108.5 -93t-42.5 -111 q18 -1 112 -1l196 3q19 -11 19 -45q0 -17 -5 -32.5t-12 -17.5h-362q-21 0 -31.5 14t-13 30.5t-2.5 46.5q0 51 14 91.5t45 74t53.5 51t65.5 47.5q33 22 51.5 36t40.5 35.5t32 46.5t10 54v9z" />
<glyph unicode="3" horiz-adv-x="514" d="M350 520q0 94 -108 94q-68 0 -128 -46q-8 -6 -20 -14q-10 0 -32.5 23t-22.5 38q0 20 74.5 55.5t128.5 35.5q23 0 44 -2.5t52.5 -13.5t54 -30.5t39 -57.5t16.5 -89q1 -6 1.5 -15.5t-1.5 -35.5t-7.5 -47t-20 -41.5t-36.5 -28.5q83 -39 83 -164q0 -79 -64 -137.5t-160 -58.5 q-107 0 -223 84l1 11q0 19 22 46t38 27q3 0 9 -3t8 -6q60 -64 144 -64q60 0 93.5 30t33.5 85q0 103 -157 103q-26 0 -54 -3q-23 5 -23 35q0 38 16 51q8 8 30 10t94 2q33 0 54 34.5t21 92.5z" />
<glyph unicode="4" horiz-adv-x="526" d="M44 170l-8 4q-8 17 -8 39q0 28 12 46l284 415q20 4 38 4q43 0 43 -27v-382h76q2 0 5.5 -12.5t7 -31t3.5 -31.5q0 -17 -8 -20.5t-46 -3.5h-38v-177q-31 -8 -56 -8t-42 8v177h-263zM307 492l-143 -229l69 3q12 0 35.5 1t38.5 2v223z" />
<glyph unicode="5" horiz-adv-x="583" d="M221 -10q-81 2 -193 64q0 18 22.5 50.5t31.5 32.5h9q9 0 32 -14q51 -34 116 -34q17 0 35.5 2t48 10.5t51.5 23t38.5 44t16.5 68.5q0 78 -45.5 117t-117.5 39q-66 0 -145 -34q-6 -4 -14 -4q-38 0 -38 92q0 58 11.5 136t20.5 105q9 25 184 25l225 -6q14 -27 14 -48 q0 -27 -10 -51l-314 -7q-23 -38 -23 -100q0 -7 2 -29q43 8 87 8q45 0 88.5 -12t86 -38t68.5 -76t26 -117q0 -63 -21 -111t-50 -73.5t-69.5 -41t-71 -19.5t-61.5 -4z" />
<glyph unicode="6" horiz-adv-x="515" d="M407 584q-46 34 -96 34q-32 0 -51 -4t-43.5 -23.5t-47.5 -58.5q-16 -27 -23.5 -57t-7.5 -46l1 -16q54 52 135 52q80 0 145 -65t65 -190q0 -102 -63.5 -160.5t-151.5 -58.5q-87 0 -151.5 57t-71.5 160l-1 12q-5 55 -5 96q0 185 67.5 289t184.5 104q73 0 170 -50 q2 -2 2 -16q0 -17 -23 -38t-34 -21zM144 307q-4 -36 -4 -52q0 -77 32.5 -127.5t101.5 -50.5q58 0 88 39t30 95q0 65 -36.5 114.5t-96.5 49.5q-42 0 -76.5 -21t-38.5 -47z" />
<glyph unicode="7" horiz-adv-x="519" d="M220 7q-5 -9 -25 -15t-42 -6q-44 0 -44 22q0 8 4 10q196 363 260 601h-290q-6 0 -20 24.5t-14 42.5q0 20 18 26h375q20 -6 31.5 -22.5t11.5 -32.5q0 -8 -1 -11v1q-10 -60 -41 -148t-68 -171l-73 -157l-58 -119z" />
<glyph unicode="8" horiz-adv-x="552" d="M36 201q0 83 23 134t81 76q-49 39 -49 124q0 19 7 43.5t25.5 56.5t61 53.5t102.5 21.5q90 0 142.5 -51t52.5 -130q0 -77 -50 -118q36 -27 60 -82.5t24 -123.5q0 -102 -72.5 -160t-169.5 -58q-98 0 -168 56.5t-70 157.5zM148 188q0 -41 34.5 -74t89.5 -33q70 0 106 40 t36 96q0 61 -37 104t-95 46q-44 -7 -72.5 -24t-41 -44t-16.5 -51t-4 -60zM388 558q-8 28 -38 45.5t-65 17.5q-53 0 -77 -31.5t-24 -55.5q0 -40 29.5 -61.5t70.5 -21.5q42 0 73.5 24t31.5 66q0 10 -1 17z" />
<glyph unicode="9" horiz-adv-x="503" d="M100 118l4 -2q60 -33 108 -33q30 0 57 21t44.5 51.5t30.5 61t18 51.5l6 21q-58 -51 -133 -51q-36 0 -71.5 15t-66.5 44t-50.5 79.5t-19.5 115.5q0 102 62.5 158.5t149.5 56.5t152.5 -56t72.5 -156q3 -47 3 -90q0 -204 -66.5 -308t-188.5 -104q-51 0 -98.5 18t-59.5 30h1 q-9 7 -9 17q0 18 22.5 39t31.5 21zM358 508q0 42 -35 80t-83 38q-56 0 -85 -40t-29 -96q0 -63 31.5 -113t79.5 -50q7 0 12 1q31 5 53 18.5t32.5 28t16 41t6.5 43.5t1 49z" />
<glyph unicode=":" horiz-adv-x="342" d="M100 50v7q0 26 18 44.5t44 18.5h8q25 0 43 -18.5t18 -44.5v-7q0 -27 -17.5 -44.5t-43.5 -17.5h-8q-26 0 -44 17.5t-18 44.5zM100 428v8q0 26 18 44t44 18h8q26 0 43.5 -18t17.5 -44v-8q0 -27 -17.5 -44.5t-43.5 -17.5h-8q-26 0 -44 17.5t-18 44.5z" />
<glyph unicode=";" horiz-adv-x="258" d="M205 30l-106 -162q-3 -3 -22 -3t-34 9.5t-15 29.5q0 11 8 25q3 7 12.5 23.5t12.5 23.5q2 5 5 10q1 5 3 8q12 21 29 55h-1q3 6 9.5 18t8.5 16q5 1 14 1q23 0 50 -14t27 -35v-1q-1 -2 -1 -4zM67 428v8q0 26 18 44t44 18h8q26 0 43.5 -18t17.5 -44v-8q0 -27 -17.5 -44.5 t-43.5 -17.5h-8q-26 0 -44 17.5t-18 44.5z" />
<glyph unicode="&#x3c;" horiz-adv-x="292" d="M32 232h1q-4 5 -4 19q0 10 2 16l144 189q8 11 23 11q19 0 38.5 -17.5t17.5 -27.5l-137 -171q8 -9 22.5 -27.5t22.5 -27.5l89 -109q2 -8 -18 -28t-38 -20q-14 0 -22 11z" />
<glyph unicode="=" horiz-adv-x="675" d="M517 169l-369 -1q-14 0 -21.5 15t-7.5 36q0 19 7 34t18 15l371 1q7 0 16 -20.5t9 -39.5q0 -37 -23 -40zM517 399l-369 -1q-14 0 -21.5 15t-7.5 36q0 19 7 34t18 15l371 1q7 0 16 -20.5t9 -39.5q0 -37 -23 -40z" />
<glyph unicode="&#x3e;" horiz-adv-x="299" d="M252 227l-138 -177q-8 -11 -23 -11q-18 0 -37.5 20t-17.5 28l135 164l-68 83q-46 56 -70 88q-2 9 17.5 27t37.5 18q16 0 24 -11l144 -189q1 -3 1 -16q0 -14 -5 -24z" />
<glyph unicode="?" horiz-adv-x="444" d="M198 184l-1 -3q-11 -17 -42 -17q-51 0 -51 29v6q0 1 0.5 4t0.5 5q1 6 1 18q0 5 -2 19q-1 7 -1 21q0 34 16.5 61t33 39.5t50.5 33.5q33 19 49.5 31.5t33 39t16.5 59.5q0 96 -92 96q-82 0 -130 -58q-11 0 -33.5 22t-22.5 39q0 24 61.5 53.5t119.5 29.5q83 0 137 -45 t54 -144q0 -32 -7.5 -58t-16 -41.5t-27 -30.5t-29 -21.5t-33.5 -18.5q-29 -15 -43 -25t-28 -34t-14 -58q0 -3 2 -15t2 -20q0 -10 -4 -17zM99 41v6q0 23 15.5 38t37.5 15h6q22 0 37 -15.5t15 -37.5v-6q0 -23 -15 -38t-37 -15h-6q-23 0 -38 15t-15 38z" />
<glyph unicode="@" horiz-adv-x="1110" d="M843 -73l25 -99q-57 -37 -145 -62t-147 -25q-209 0 -353 141.5t-144 342.5q0 142 70 255.5t186 174t255 60.5q121 0 224.5 -52.5t164 -143t60.5 -195.5q0 -77 -31.5 -149t-79 -120.5t-102 -78t-100.5 -29.5q-49 0 -81 34q-13 -3 -30 -9q-39 -11 -78 -11q-91 0 -142 47.5 t-51 129.5q0 30 8 68q27 122 103 195.5t188 73.5q29 0 99.5 -8.5t70.5 -15.5q0 -4 -19 -94q-62 -289 -62 -311q0 -4 12 -4q22 0 54.5 21.5t64.5 57t54.5 90.5t22.5 113q0 121 -102.5 205.5t-247.5 84.5q-178 0 -294 -113.5t-116 -275.5q0 -160 115.5 -271.5t280.5 -111.5 q57 0 136 24t131 61zM537 54q20 0 46.5 3t42.5 6l16 3l63 317q-18 4 -44 4q-34 0 -70.5 -16t-75 -60t-56.5 -109q-8 -37 -8 -61q0 -87 86 -87z" />
<glyph unicode="A" horiz-adv-x="669" d="M30 28l278 672q9 16 53 16q36 0 43 -15l230 -675h-1q3 -6 3 -9q0 -27 -43 -27q-49 0 -59 23l-62 198h-258l-38 -93q-32 -76 -37 -89q-23 -40 -52 -40q-22 0 -39.5 13t-17.5 26zM438 306l-91 234l-43 -104l-53 -130h187z" />
<glyph unicode="B" horiz-adv-x="514" d="M427 553q0 -39 -17 -84.5t-48 -68.5q27 -13 52 -32t50 -62.5t25 -97.5q0 -109 -64.5 -169.5t-174.5 -60.5q-54 0 -103.5 9.5t-72.5 18.5l-22 10v673q4 4 14 9.5t57 15t111 9.5q53 0 93 -17t60.5 -44t30 -54.5t9.5 -54.5zM151 347l-1 -268q40 -18 107 -18q57 0 96.5 36 t39.5 108q0 144 -188 144q-30 0 -42 -1q-3 0 -6 -0.5t-4 -0.5h-2zM337 550q0 49 -33 73.5t-79 24.5l-75 -9v-210h18q19 0 38 2t44 9.5t43 19.5t31 35.5t13 54.5z" />
<glyph unicode="C" horiz-adv-x="579" d="M503 567q-8 0 -12 7l1 -1q-25 28 -55 40t-77 12q-88 0 -152.5 -82.5t-64.5 -191.5t64.5 -192t152.5 -83q78 0 134 53h-1q3 3 11 3q15 0 29.5 -22.5t14.5 -42.5q0 -35 -61.5 -62t-126.5 -27q-130 0 -222.5 111t-92.5 262t92.5 261t222.5 110q65 0 123 -31.5t58 -56.5 q0 -13 -13.5 -40t-24.5 -27z" />
<glyph unicode="D" horiz-adv-x="630" d="M64 -10l-1 709q0 9 60 16t88 7q377 0 377 -372q0 -189 -87 -280.5t-293 -91.5h-32q-4 0 -12 -0.5t-13 -0.5q-62 0 -87 13zM161 629l1 -560q15 -1 42 -1q286 0 286 282q0 280 -277 280q-43 0 -52 -1z" />
<glyph unicode="E" horiz-adv-x="524" d="M153 423h263q32 0 32 -44q0 -20 -8.5 -37t-20.5 -17l-266 -1v-235q0 -6 132 -6l183 5q27 0 27 -44q0 -22 -7.5 -37.5t-19.5 -15.5q-27 0 -50 -1q-4 0 -14 -0.5t-16 -0.5q-68 -2 -124 -2q-210 0 -210 36l-1 649q0 41 221 41q55 0 129 -2q25 -1 65 -1q17 -8 17 -55 q0 -32 -16 -32q-99 1 -190 1q-126 0 -126 -6v-195z" />
<glyph unicode="F" horiz-adv-x="499" d="M161 423l230 1q12 0 19 -13t7 -32t-7 -36t-16 -18h-232v-331q-18 -6 -44 -6q-20 0 -44 3q-2 0 -5 0.5t-4 0.5l-3 681q3 37 264 37q101 0 155 -4q5 -26 5 -41q0 -21 -9 -48q-90 5 -170 5q-145 0 -145 -15q-4 -13 -4 -63z" />
<glyph unicode="G" horiz-adv-x="647" d="M608 337q0 -168 -74 -263.5t-198 -95.5q-121 0 -207.5 111t-86.5 262t86.5 261t207.5 110q113 -3 183 -73q1 -1 2 -4.5t2 -4.5v1q4 -8 4 -11q0 -16 -19.5 -40.5t-32.5 -24.5q-8 0 -11 3q-57 57 -128 57q-80 0 -138 -82.5t-58 -191.5t58 -192t138 -83q70 0 119.5 64 t58.5 154q-7 9 -48 9q-40 0 -110 -10h1l-9 -1q-11 0 -17 14.5t-6 35.5q0 19 6 33t15 14q11 0 17 1q12 2 21 2q2 0 5 0.5t4 0.5q48 4 84 4q131 0 131 -60z" />
<glyph unicode="H" horiz-adv-x="616" d="M558 688l2 -678q0 -8 -21.5 -16.5t-41.5 -8.5q-37 0 -37 25v306h-306v-151q0 -26 0.5 -78t0.5 -77q0 -8 -21 -16.5t-41 -8.5q-37 0 -37 25l-1 678q0 7 21 15.5t41 8.5q37 0 37 -24v-273h306v273q0 7 21 15.5t40 8.5q37 0 37 -24z" />
<glyph unicode="I" horiz-adv-x="217" d="M161 695l1 -680q0 -13 -15 -21t-34 -8q-20 0 -34 7t-14 18l-1 682q0 7 19.5 16t38.5 9q36 0 39 -23z" />
<glyph unicode="J" horiz-adv-x="329" d="M18 -7q-13 23 -13 41q0 14 14 41q32 0 58 12t41.5 28t26.5 42t16 43t7.5 43t2.5 31v16l-2 400q0 7 22 16t42 9q37 0 37 -25v-400q0 -78 -17.5 -136t-41.5 -88t-57.5 -48.5t-57 -23t-47.5 -4.5z" />
<glyph unicode="K" horiz-adv-x="606" d="M163 304v-310q-4 -7 -50 -5.5t-48 13.5l-1 687q0 7 21 15.5t41 8.5q37 0 37 -24l2 -220l142 117l154 126q57 -37 68 -70l-303 -254l169 -161l173 -165q5 -5 5 -11q0 -13 -29.5 -37.5t-42.5 -23.5z" />
<glyph unicode="L" horiz-adv-x="535" d="M152 688v-616q27 5 95 5q78 0 151 1.5t72 3.5q20 0 29.5 -14.5t9.5 -33.5q0 -30 -13 -37q-54 -9 -235 -9q-207 0 -207 25v682q26 18 60 18q38 0 38 -25z" />
<glyph unicode="M" horiz-adv-x="785" d="M151 471v-464q0 -9 -17.5 -15.5t-37.5 -6.5q-44 0 -44 21l-1 685q0 9 19 15.5t41 6.5q34 0 38 -15l-1 1l118 -229l115 -221l124 219l128 227l-1 -1q1 7 20.5 13.5t38.5 6.5q40 0 40 -24l1 -687q-2 -7 -19 -12.5t-36 -5.5q-45 0 -45 21v506l-107 -186l-116 -199 q-13 -15 -38 -15q-21 0 -26 5z" />
<glyph unicode="N" horiz-adv-x="665" d="M612 684l1 -660q0 -19 -17 -28t-40 -9q-29 0 -38 11l-368 523v-511q0 -9 -17 -16t-37 -7q-46 0 -46 28v661q0 16 15.5 25.5t37.5 9.5q34 0 48 -20l362 -513v507q0 8 20 17.5t39 9.5q40 0 40 -28z" />
<glyph unicode="O" horiz-adv-x="634" d="M33 352q0 151 85 260.5t204 109.5q88 0 154.5 -51t100.5 -134.5t34 -184.5q0 -152 -84.5 -263t-204.5 -111q-119 0 -204 111t-85 263zM132 369v-2q-1 -9 -1 -25q0 -104 60 -185.5t136 -81.5q77 0 131.5 87t54.5 203q0 104 -54 181.5t-130 77.5q-71 0 -128 -76.5 t-69 -178.5z" />
<glyph unicode="P" horiz-adv-x="505" d="M146 621l4 -295q32 -8 64 -8q29 0 53.5 7t49 24.5t38.5 54t14 88.5q0 73 -34.5 108.5t-90.5 35.5q-22 0 -46.5 -4t-37.5 -8zM49 -5v692q74 35 199 35q109 0 168 -60t59 -170q0 -120 -70.5 -195.5t-183.5 -75.5q-36 0 -72 7v-233q-21 -7 -49 -7q-11 0 -24 2t-20 4z" />
<glyph unicode="Q" horiz-adv-x="638" d="M610 348q0 -133 -68 -234t-166 -130q35 -66 118 -66q13 -25 13 -40q0 -31 -4.5 -37.5t-26.5 -6.5q-155 0 -207 146q-103 22 -172.5 128t-69.5 240q0 152 85.5 263t206.5 111q120 0 205.5 -111t85.5 -263zM126 366q-2 -22 -2 -32q0 -96 51 -172t121 -88q54 3 95.5 31 t63 63.5t35.5 79t17.5 71.5t3.5 47q0 104 -52 180t-129 76q-76 0 -135 -75t-69 -181z" />
<glyph unicode="R" horiz-adv-x="574" d="M66 12v671q104 39 228 39q109 0 174.5 -64t65.5 -165q0 -63 -22 -103.5t-69 -68.5q100 -50 100 -310q0 -8 -15.5 -16t-38.5 -8q-28 0 -40 22q0 7 -1 12q0 4 -3 29q-15 198 -104 230h-67q-5 0 -17 -0.5t-18 -0.5q-68 0 -79 1v-286q-29 -10 -53 -10q-41 0 -41 28zM158 615 l2 -248q46 -3 100 -3q175 0 175 117q0 73 -39 112.5t-105 39.5q-24 0 -57.5 -4.5t-54.5 -8.5z" />
<glyph unicode="S" horiz-adv-x="493" d="M254 631q-58 -1 -84.5 -39.5t-26.5 -97.5q0 -97 120 -97q95 0 151 -50.5t56 -137.5q0 -103 -65 -167t-160 -64q-142 0 -202 60q-8 5 -8 15q0 16 20.5 40.5t35.5 24.5q2 0 16 -7q19 -13 32.5 -20t41 -13.5t64.5 -6.5q58 0 95 37.5t37 99.5q0 97 -126 97q-210 0 -210 191 q0 97 51 161.5t156 64.5q101 0 179 -40q8 -5 8 -15q0 -15 -16 -42t-27 -27q-52 33 -138 33z" />
<glyph unicode="T" horiz-adv-x="589" d="M247 14l8 599q-14 1 -62 1l-147 -2q-12 0 -20.5 19.5t-8.5 40.5q0 28 16 31q58 7 262 7q210 0 264 -7q9 -1 15 -14t6 -29q0 -48 -32 -48q-75 3 -136 3q-52 0 -59 -1q-1 -50 -2 -149t-2 -149q-2 -100 -4 -302q0 -25 -50 -25q-20 0 -34 6.5t-14 18.5z" />
<glyph unicode="U" horiz-adv-x="692" d="M352 -22h-3q-126 1 -208 77t-82 200v434q0 7 21 15.5t41 8.5q37 0 37 -24v-439q0 -78 57.5 -126.5t136.5 -50.5q74 1 120 55.5t46 123.5l1 434q0 24 36 24q20 0 41.5 -8.5t21.5 -15.5v-430q0 -118 -74 -196.5t-192 -81.5z" />
<glyph unicode="V" horiz-adv-x="684" d="M274 -7l-247 672q0 8 25.5 28.5t44.5 20.5q16 0 27 -21l93 -253l105 -283l255 543q6 13 22 13q18 0 44 -23.5t25 -32.5l-124 -263l-186 -396q-17 -10 -36 -10q-26 0 -40 4q-1 0 -4 0.5t-4 0.5z" />
<glyph unicode="W" horiz-adv-x="830" d="M514 14l-111 465l-148 -487q-24 -4 -48 -4q-23 0 -34 10l-8 16l-141 654q-1 13 14.5 22t33 11.5t34.5 2.5q11 -1 41.5 -123.5t54.5 -244.5l25 -122l146 485q6 14 46 14q25 0 51 -16l105 -483l141 482q6 17 26 17t45 -17t25 -24l-190 -679h-8q-2 0 -9 -1l-47 -4 q-26 0 -37 10z" />
<glyph unicode="X" horiz-adv-x="635" d="M500 -10l-186 284q-115 -150 -208 -287q-3 -3 -18 -3q-23 0 -45.5 17t-22.5 32q2 10 62 93l117 160l58 78l-197 271q-6 9 -6 18q0 18 20.5 36t39.5 18q14 0 23 -11l189 -261l216 273q5 5 19 5q19 0 40 -17t21 -35q0 -11 -7 -21l-232 -294l196 -303v1q4 -4 4 -15 q0 -14 -23 -27.5t-43 -13.5q-15 0 -17 2z" />
<glyph unicode="Y" horiz-adv-x="601" d="M225 -2v321l-102 167l-104 171q-3 8 24.5 31.5t45.5 23.5q11 0 19 -10l168 -282l115 137l121 143q8 8 17 8q17 0 40.5 -30t21.5 -39l-266 -315v-329q-35 -7 -58 -7t-42 10z" />
<glyph unicode="Z" horiz-adv-x="547" d="M474 84q22 0 22 -43q0 -19 -6 -34t-14 -16h-51q-16 0 -57.5 -0.5t-62.5 -0.5q-210 0 -241 5q-14 2 -24 18t-10 40q0 21 7 42q223 344 360 521q-38 4 -88 4l-196 -5q-5 0 -10 0.5t-13.5 9.5t-8.5 26q0 23 8.5 38t15 18.5t9.5 3.5l4 -1q3 0 15.5 0.5t20.5 0.5q34 1 142 1 q98 0 195 -3q18 -2 28 -19t10 -37t-10 -32l-129 -184l-250 -357q13 -2 103 -2z" />
<glyph unicode="[" horiz-adv-x="345" d="M178 687h-1l1 -718q0 -33 20.5 -44.5t72.5 -11.5q18 0 18 -32t-9 -39.5t-36 -7.5q-26 0 -44.5 1.5t-43.5 8.5t-40.5 20t-27 38.5t-11.5 61.5v746q2 32 14.5 55.5t28.5 35t40.5 18t42.5 8t43 1.5q26 0 34.5 -8t8.5 -40q0 -31 -18 -31q-52 0 -72.5 -13t-20.5 -49z" />
<glyph unicode="\" horiz-adv-x="393" d="M272 9l-265 657q0 22 21.5 34t46.5 12q17 0 26 -19l266 -656q0 -15 -22 -32t-44 -17q-17 0 -29 21z" />
<glyph unicode="]" horiz-adv-x="314" d="M56 -87q52 0 72.5 11.5t20.5 44.5v724q0 33 -20.5 44.5t-72.5 11.5q-18 0 -18 31q0 17 6 32t17 16q86 0 121 -14q64 -26 68 -104v-746q0 -36 -11.5 -61.5t-27 -38.5t-41 -20t-43.5 -8.5t-45 -1.5t-35.5 7.5t-8.5 39.5t18 32z" />
<glyph unicode="^" horiz-adv-x="515" d="M275 728l180 -130q11 -8 11 -23q0 -18 -20 -37.5t-28 -17.5l-159 122l-89 -60l-92 -64q-9 -2 -27 17.5t-18 37.5q0 16 11 24l189 125q14 7 26 7q13 0 16 -1z" />
<glyph unicode="_" horiz-adv-x="606" d="M548 -167l-495 -1q-14 0 -21.5 15t-7.5 36q0 19 7 34t18 15l497 1q7 0 16 -20.5t9 -39.5q0 -37 -23 -40z" />
<glyph unicode="`" horiz-adv-x="320" d="M222 544l-168 69q-15 10 -15 26q0 18 22.5 42.5t29.5 21.5l147 -76q26 -14 26 -36q0 -18 -15.5 -32.5t-26.5 -14.5z" />
<glyph unicode="a" horiz-adv-x="439" d="M379 271q-1 -21 -5 -55q-6 -50 -6 -75q0 -86 67 -128q-48 -35 -84 -35q-38 0 -63 35q-75 -36 -126 -36q-55 0 -100 39.5t-45 124.5q0 71 63.5 114.5t145.5 43.5q33 0 62 -7v10q0 2 0.5 5t0.5 4q0 95 -52 97q-66 -2 -130 -28q-14 0 -25 24t-11 41q0 23 49 38t95 15 q31 0 50.5 -2t43.5 -12t38 -29t23.5 -55t9.5 -87q0 -28 -1 -42zM160 68q4 -1 12 -1q38 0 105 28q1 1 5 3q-1 1 -1 2q-1 7 -1 24q0 12 2 50v6q2 24 2 36q-20 3 -58 3q-109 0 -114 -78q2 -67 48 -73z" />
<glyph unicode="b" horiz-adv-x="508" d="M148 347l-2 -234q37 -41 98 -41q51 0 88.5 43t37.5 120q0 164 -100 164q-65 0 -122 -52zM49 78l-1 612q8 25 60 25q33 0 40 -22v-251q68 56 137 56q77 0 130.5 -63.5t53.5 -157.5q0 -146 -72 -222.5t-185 -76.5q-114 0 -163 100z" />
<glyph unicode="c" horiz-adv-x="448" d="M375 379l-8 1q-28 27 -108 27q-58 0 -92.5 -46t-34.5 -114q0 -70 34.5 -120t91.5 -50q36 0 58.5 8t51.5 32l7 1q13 0 28.5 -20.5t15.5 -39.5q0 -33 -56 -56.5t-102 -23.5q-100 0 -164.5 79.5t-64.5 192.5q0 110 64 179t166 69q50 0 86 -8t67 -35v-13q0 -50 -40 -63z" />
<glyph unicode="d" horiz-adv-x="495" d="M453 684v-660q-8 -5 -24 -12.5t-68 -20.5t-107 -13q-107 0 -167.5 63.5t-60.5 174.5q0 122 72.5 202.5t187.5 80.5q39 0 67 -6v194q10 22 62 22q17 0 26.5 -6.5t10.5 -12.5zM355 92v151q0 25 -0.5 74.5t-0.5 75.5h-3q-27 5 -50 5q-30 0 -56 -7t-53.5 -25t-43.5 -56.5 t-16 -93.5q0 -74 35 -108.5t90 -34.5q23 0 47.5 4.5t37.5 9.5z" />
<glyph unicode="e" horiz-adv-x="471" d="M423 251q-3 -35 -168 -35l-127 3q4 -76 44 -112.5t100 -36.5q45 0 103 21q1 0 3 1h2q15 0 27 -23t12 -42q0 -27 -55.5 -38t-116.5 -11q-118 0 -170 77.5t-52 200.5q0 112 52 177.5t152 65.5q111 0 154 -44t43 -141q0 -28 -3 -63zM231 416q-51 0 -75 -33t-27 -81 q2 0 9.5 -0.5t13.5 -0.5q27 -1 103 -1q74 0 74 -3q0 30 -1 44t-5.5 32t-15 25t-29 12.5t-47.5 5.5z" />
<glyph unicode="f" horiz-adv-x="384" d="M184 572v-72h49h11q16 0 46 -2h7q4 -1 13 -1q2 0 7 -0.5t8 -0.5q8 -2 14 -14.5t6 -28.5q0 -44 -24 -45q-56 3 -99 3q-28 0 -38 -1v-395q0 -28 -46 -28q-20 0 -35.5 6.5t-16.5 14.5l1 397h-22q-35 0 -41.5 6t-6.5 38q0 45 18 45q10 -1 22 -1q24 0 29 1v43q0 8 0.5 23.5 t0.5 23.5q1 55 55 96.5t125 41.5q34 0 66 -10t32 -32q0 -19 -12.5 -41t-24.5 -21q-22 11 -55 11q-36 0 -62.5 -14.5t-26.5 -42.5z" />
<glyph unicode="g" horiz-adv-x="511" d="M248 498q60 0 110 -33q6 -1 18 -1q22 0 47 11t39 22l15 11q3 -33 3 -46q0 -76 -40 -105q5 -27 5 -58q0 -80 -57.5 -136t-139.5 -56q-31 0 -50 5l-6 -6l-6 -7q-2 -3 -3 -5l-6 -6q21 -7 95 -7q211 0 211 -171v-8q-4 -82 -76 -127t-170 -45q-95 0 -171 43.5t-76 114.5 q0 43 26 83t59 56q-15 15 -34 45l87 74q-76 69 -76 153q0 80 57.5 139.5t138.5 59.5zM89 -83q0 -7 1 -11h1q16 -37 59.5 -56.5t96.5 -19.5t91.5 19t39.5 53v4q0 45 -22.5 62.5t-81.5 17.5h-15q-2 0 -8 -0.5t-9 -0.5q-9 -1 -34 -1q-49 0 -82 12q-37 -42 -37 -79zM145 301 q0 -43 32 -74t76 -31q45 0 77 31t32 74q0 44 -32.5 78t-76.5 34t-76 -34.5t-32 -77.5z" />
<glyph unicode="h" horiz-adv-x="506" d="M160 376v-380q-22 -9 -49 -9q-12 0 -25 2.5t-20 4.5l-7 2v689q-1 3 0 7.5t14 12.5t38 9q47 -1 47 -26l2 -223q48 32 112 32q86 0 147.5 -61.5t65.5 -149.5v-290q-31 -9 -56 -9q-12 0 -23.5 2.5t-16.5 5.5l-5 3v287q-9 45 -50 78t-95 33q-42 0 -79 -20z" />
<glyph unicode="i" horiz-adv-x="224" d="M165 482l1 -466q0 -13 -15.5 -21t-35.5 -8t-34.5 6.5t-14.5 18.5l-1 468q0 7 20.5 16t39.5 9q37 0 40 -23zM65 592v22q0 17 12.5 29t29.5 12h22q17 0 29 -12t12 -29v-22q0 -17 -12 -29t-29 -12h-22q-17 0 -29.5 12t-12.5 29z" />
<glyph unicode="j" horiz-adv-x="223" d="M-104 -258l-1 1q-13 23 -13 42q0 18 13 43q47 0 81 23t49 51.5t23 67t8.5 54.5t0.5 29v1l-1 421q0 7 22.5 16t42.5 9q36 0 38 -25v-38q0 -8 0.5 -132.5t0.5 -250.5q0 -81 -18 -141.5t-43.5 -92.5t-60 -51t-59.5 -24t-51 -5zM57 583v21q0 18 11.5 30t29.5 12h20 q18 0 30 -12.5t12 -29.5v-21q0 -18 -12 -29.5t-30 -11.5h-20q-18 0 -29.5 11.5t-11.5 29.5z" />
<glyph unicode="k" horiz-adv-x="504" d="M186 289l-15 -3v-292q-34 -7 -57 -7q-22 0 -41 10l-1 693q0 7 21 16t41 9q37 0 37 -25l-1 -311q38 18 129 77q4 2 11 7t8 6q3 2 8 5l9 6l7 4h-1q22 16 28 16q12 0 34.5 -22t22.5 -36q0 -11 -50 -46.5t-98 -62.5l100 -138l104 -142q2 -9 -23 -38t-43 -29q-10 0 -17 9 l-119 164z" />
<glyph unicode="l" horiz-adv-x="218" d="M156 734l1 -719q0 -13 -16 -21t-36 -8q-21 0 -35.5 7t-14.5 18l-1 721q0 7 21 16t41 9q37 0 40 -23z" />
<glyph unicode="m" horiz-adv-x="849" d="M141 329v-324q0 -17 -45 -17q-21 0 -38.5 5t-17.5 12v460q0 17 48 25q24 0 37 -7t14.5 -11.5t1.5 -7.5v-34q54 68 134 68q117 0 165 -99q32 40 77 69.5t88 29.5q42 0 74 -10.5t63.5 -38.5t49 -87.5t17.5 -147.5v-209q0 -7 -14.5 -12t-34.5 -5t-36.5 5t-16.5 12v242 q0 149 -114 149q-35 0 -72 -16t-57 -49q9 -36 9 -117l-1 -209q0 -9 -14 -14t-32 -5q-20 0 -37.5 5.5t-17.5 12.5v243q0 149 -107 149q-32 0 -67.5 -17.5t-55.5 -49.5z" />
<glyph unicode="n" horiz-adv-x="530" d="M148 0l-2 2q-10 -14 -48 -14q-21 0 -36.5 5.5t-15.5 14.5l1 459q18 22 61 22q17 0 27 -6.5t11 -12.5l2 -7v-34q55 69 141 69q32 0 58.5 -5.5t55 -24t47.5 -48.5t31.5 -83t12.5 -124l-2 -205q0 -20 -44 -20q-21 0 -39 5.5t-18 14.5v239q0 148 -114 148q-32 0 -70 -17 t-59 -49v-329z" />
<glyph unicode="o" horiz-adv-x="551" d="M134 248q0 -78 39 -127.5t104 -49.5q73 0 111.5 45.5t38.5 131.5q0 73 -44 116t-106 43q-59 0 -101 -46.5t-42 -112.5zM35 251q0 107 71 177t174 70t174 -70t71 -177q0 -130 -69.5 -201.5t-176.5 -71.5q-106 0 -175 72.5t-69 200.5z" />
<glyph unicode="p" horiz-adv-x="525" d="M49 -232v687q10 5 27.5 12t73 19t111.5 12q116 0 179 -61.5t63 -177.5q0 -127 -74 -204t-194 -77q-45 0 -82 8v-222q0 -3 -1.5 -7.5t-14.5 -12.5t-36 -8q-6 0 -14.5 1t-23 9t-14.5 22zM256 407q-65 0 -105 -16q0 -99 1 -150q0 -26 0.5 -75t0.5 -74q42 -13 83 -13 q65 0 110 39.5t45 140.5q0 78 -37 113t-98 35z" />
<glyph unicode="q" horiz-adv-x="520" d="M472 -238q-1 -3 -3.5 -7t-16 -11.5t-33.5 -7.5q-35 0 -49 25l-3 231q-62 -14 -119 -14q-106 0 -165 56.5t-59 169.5q0 143 77 218.5t199 75.5q59 0 102 -11.5t56 -22.5l14 -12v-690zM368 86v312q-26 13 -63 13q-24 0 -40 -1q-56 -6 -96 -58t-40 -132q0 -147 148 -147 q16 0 39 3.5t38 6.5z" />
<glyph unicode="r" horiz-adv-x="409" d="M277 397q-34 0 -70.5 -20.5t-51.5 -51.5v-311q-16 -30 -47 -30q-19 0 -35.5 9t-16.5 17v453q1 3 3 7.5t16 12t36 7.5q17 0 28 -6t13 -12l3 -5v-34q46 65 128 65q32 0 74 -20t42 -43q0 -19 -15 -42t-28 -22q-42 26 -79 26z" />
<glyph unicode="s" horiz-adv-x="408" d="M277 129q0 61 -66 61q-56 0 -92 12.5t-51 36.5t-19.5 45t-4.5 53q0 75 53 119t127 44t132 -54q6 -6 6 -16q0 -17 -13.5 -43.5t-26.5 -26.5q-40 51 -97 51q-36 0 -59 -18.5t-23 -55.5q0 -33 15 -47.5t62 -14.5q84 0 120 -36.5t36 -108.5q0 -79 -46.5 -117t-117.5 -38 q-100 0 -164 56h1q-9 5 -9 15q0 18 22.5 41.5t31.5 23.5q19 -18 50.5 -30t62.5 -12q30 0 50 15t20 45z" />
<glyph unicode="t" horiz-adv-x="343" d="M191 387l1 -213q0 -62 16.5 -83.5t78.5 -21.5q18 0 18 -32q0 -17 -6.5 -32t-17.5 -15h-10q-96 0 -124 24q-4 3 -8.5 7.5t-13.5 17.5t-16 29t-12 44t-5 60l-2 214h-1q-1 0 -3.5 -0.5t-4.5 -0.5h-9q-36 0 -43 4.5t-7 28.5q0 67 19 67q24 -1 42 -1h8h1v100q0 2 1.5 5.5 t14.5 10t37 8.5q46 0 46 -24v-99h27q5 0 14 0.5t13 0.5h40q27 0 33 -8t6 -41q0 -51 -19 -51q-45 1 -82 1h-32z" />
<glyph unicode="u" horiz-adv-x="543" d="M394 471l2 4q8 14 48 14q20 0 36 -5t16 -14l1 -465q-19 -19 -62 -19q-17 0 -27 6.5t-12 13.5l-1 6v42q-27 -38 -60 -57.5t-85 -19.5q-32 0 -57.5 5.5t-54 23.5t-47 48.5t-31 85.5t-12.5 130l2 199q0 20 44 20q19 0 38 -6.5t19 -13.5v-233q0 -83 26 -119t89 -36 q30 0 68 20.5t60 53.5v316z" />
<glyph unicode="v" horiz-adv-x="487" d="M134 461l102 -318q11 30 33.5 87t26.5 68l66 170q16 23 43 23q31 0 44 -13t13 -27l-182 -446q-22 -14 -47 -14q-10 0 -23 3.5t-20 7.5l-8 3l-158 449q0 3 0.5 5.5t3.5 9t8 11t16.5 8t27.5 3.5q44 0 54 -30z" />
<glyph unicode="w" horiz-adv-x="735" d="M497 149l74 286q1 2 3 6.5t2 6.5q21 38 58 38q15 0 26 -3.5t16 -8t8 -11t3 -9.5v-4l-138 -445q-28 -14 -49 -14q-11 0 -25 3.5t-23 6.5l-8 3l-83 278l-39 -130q-35 -112 -45 -147q-28 -14 -49 -14q-11 0 -25 3.5t-22 6.5l-8 3l-134 442l-1 2v4q0 7 3.5 14.5t17 15 t35.5 7.5q16 0 27.5 -6.5t15 -11.5t4.5 -9l84 -311q5 22 38 142l44 164q15 31 59 31q39 0 49 -34z" />
<glyph unicode="x" horiz-adv-x="525" d="M388 -9l-135 176l-118 -152q-12 -16 -18 -23q-2 -2 -18 -2q-20 0 -45 14.5t-25 27.5q0 11 173 219l-64 89l-67 92q-5 10 -5 16q0 16 20.5 29t41.5 13q20 0 31 -14l58 -79l54 -72l60 74l69 86q5 5 19 5q19 0 39 -15.5t20 -34.5q0 -11 -7 -21l-150 -181l71 -95l73 -97v1 q4 -4 4 -15q0 -14 -23 -27.5t-43 -13.5h-15z" />
<glyph unicode="y" horiz-adv-x="512" d="M52 -258l-1 1q-13 23 -13 42q0 15 14 42q37 0 66 14.5t45.5 35.5t28 49.5t16 50t6.5 43.5l-99 216l-98 215q-4 4 -4 11q0 2 4 7.5t20 12.5t40 7q15 0 26 -6t15 -12l3 -6q2 -4 6 -14t6 -14l135 -297q12 27 18 45l110 293q2 14 24 14q20 0 44 -12.5t24 -25.5q0 -5 -1 -8 q-75 -195 -132 -360q-50 -142 -96 -241q-49 -104 -180 -104z" />
<glyph unicode="z" horiz-adv-x="418" d="M379 82h1q19 -1 19 -35q0 -20 -9 -38.5t-21 -18.5q-27 -3 -70 -3.5t-105 0.5t-79 1q-54 0 -73 10t-19 43q0 26 18 56q76 126 212 267q29 28 34 35h-35q-64 0 -159 -5h-4q-31 0 -31 30q0 33 5 43t19 15q57 6 123 6q73 0 164 -7q11 -1 22 -17t11 -38q0 -33 -27 -61 q-32 -37 -78.5 -83t-83.5 -90.5t-80 -113.5h55z" />
<glyph unicode="{" horiz-adv-x="392" d="M29 349q0 38 25 40q6 1 13.5 4t21 10.5t22.5 24.5t9 40v242q3 32 15.5 55t28 34.5t40 18t42.5 8t43 1.5q26 0 34.5 -8t8.5 -40q0 -31 -18 -31q-52 0 -72.5 -11.5t-21.5 -44.5v-113q0 -19 0.5 -57t0.5 -56q-2 -38 -18 -62t-31 -30l-16 -5q-4 0 -4 -19q0 -21 2 -21 q3 0 7 -1t15.5 -6.5t20 -15.5t16 -31t8.5 -50v-257q0 -33 20.5 -44.5t72.5 -11.5q18 0 18 -32t-9 -39.5t-36 -7.5q-26 0 -44.5 1.5t-43.5 8.5t-40.5 20t-27 38.5t-11.5 61.5v264q0 22 -6.5 39t-16 24.5t-19.5 12.5t-16 5l-7 1q-12 1 -19 13t-7 27z" />
<glyph unicode="|" horiz-adv-x="344" d="M207 692l1 -674q0 -13 -14.5 -21t-33.5 -8t-32.5 6.5t-13.5 18.5l-1 676q0 7 19 16t37 9q35 0 38 -23z" />
<glyph unicode="}" horiz-adv-x="379" d="M240 468q0 -30 16 -49.5t28.5 -24t21.5 -5.5q24 -2 24 -40t-25 -40q-3 0 -7 -0.5t-15.5 -5.5t-20 -12.5t-15.5 -24.5t-7 -39v-264q0 -36 -11.5 -61.5t-27 -38.5t-41 -20t-43.5 -8.5t-45 -1.5t-35.5 7.5t-8.5 39.5t18 32q52 0 72.5 11.5t20.5 44.5v257q1 45 18 71t33 30 l16 3q2 0 2 21q0 19 -4 19q-2 0 -6.5 1.5t-15 8t-19 16.5t-16 28.5t-8.5 42.5v226q0 33 -20.5 44.5t-72.5 11.5q-18 0 -18 31q0 17 6 32t17 16q86 0 120 -14q64 -25 69 -103v-242z" />
<glyph unicode="~" horiz-adv-x="354" d="M327 265h-1q-40 -53 -96 -53q-22 0 -74 24q-44 20 -54 20q-12 0 -22 -5t-14 -10l-4 -5q-12 -6 -14 -6q-15 0 -31.5 24t-16.5 41q0 11 13 24v-3q28 23 63 23q47 0 106 -38q16 -9 27 -9q28 0 54 38v-1q6 12 13 12q14 0 34.5 -23t20.5 -39q0 -10 -4 -14z" />
<glyph unicode="&#xa1;" horiz-adv-x="317" d="M105 449v22q0 17 12.5 29t29.5 12h22q17 0 29 -12t12 -29v-22q0 -17 -12 -29t-29 -12h-22q-17 0 -29.5 12t-12.5 29zM205 339l1 -521q0 -13 -15.5 -21t-35.5 -8t-34.5 6.5t-14.5 18.5l-1 523q0 7 20.5 16t39.5 9q37 0 40 -23z" />
<glyph unicode="&#xa2;" horiz-adv-x="537" d="M343 -8v-68q0 -13 -14.5 -21t-33.5 -8t-32.5 6.5t-13.5 18.5l-1 77q-83 21 -135.5 92.5t-52.5 164.5q0 90 53 156t135 85v107q0 7 19 16t37 9q35 0 38 -23v-102q40 -2 79 -16t39 -40q0 -49 -46 -65q-27 26 -72 29v-319q32 7 72 38l7 1q13 0 28.5 -20.5t15.5 -39.5 q0 -26 -40 -48t-82 -30zM160 251q0 -52 23.5 -92t64.5 -57v296q-40 -16 -64 -56t-24 -91z" />
<glyph unicode="&#xa3;" horiz-adv-x="544" d="M51 -10h-4q-9 0 -15 14t-6 34q0 36 17 42q37 17 73 17q28 70 36 186h-8q-45 0 -53.5 5t-8.5 32v20q-1 24 3 28t29 4h37v104q0 18 0.5 54t0.5 54q0 55 57 92t127 37q33 0 63.5 -9.5t30.5 -32.5q0 -19 -12.5 -41t-24.5 -21q-28 14 -65 14q-33 0 -56 -13t-23 -38v-193h49h11 q16 0 46 -2h7q4 -1 13 -1q2 0 7 -0.5t8 -0.5q8 -2 14 -14.5t6 -28.5q0 -44 -24 -45q-54 3 -98 3q-28 0 -38 -1q-20 -136 -20 -184q0 -38 56 -38q60 0 191 46q16 0 24.5 -16t8.5 -35q0 -27 -13 -31q-139 -48 -220 -48q-36 0 -86 13q-37 11 -60 11q-29 0 -80 -17z" />
<glyph unicode="&#xa4;" horiz-adv-x="677" d="M428 597l74 94q2 8 13 8q16 0 42.5 -16.5t26.5 -35.5q0 -5 -6 -17l-71 -91q60 -66 60 -166q0 -97 -56 -167q5 -7 16.5 -21t16.5 -21q30 -40 35 -45v1q3 -3 3 -13q0 -15 -23 -35t-41 -20q-11 0 -18 9l-33 42q-24 30 -30 39q-51 -30 -116 -30q-69 0 -121 33l-19 -26 q-41 -52 -44 -57q-2 -2 -14 -2q-17 0 -40.5 20.5t-23.5 34.5q0 5 4 11q13 18 34 44l32 41q-52 71 -52 162q0 95 55 161l-68 88q-6 12 -6 17q0 20 33.5 39t43.5 12l75 -97q51 27 112 27q59 0 106 -23zM176 370q0 -68 40 -117t103 -49q72 0 111 44t39 122q0 73 -44 116 t-106 43q-59 0 -101 -46.5t-42 -112.5z" />
<glyph unicode="&#xa5;" horiz-adv-x="640" d="M238 74h-137q-14 0 -21.5 15t-7.5 36q0 19 7 34t18 15h141v62h-132q-14 0 -21.5 15t-7.5 36q0 19 7 34t18 15h136v25l-90 147l-92 152q-3 8 24.5 31.5t45.5 23.5q11 0 19 -10l143 -244l102 123l113 135q2 2 12 2q17 0 40.5 -30t21.5 -39l-239 -287v-29h75q13 0 40 0.5 t41 0.5q7 0 16 -20.5t9 -39.5q0 -37 -23 -40l-158 -1v-62h73q13 0 39 0.5t39 0.5q7 0 16 -20.5t9 -39.5q0 -37 -23 -40l-153 -1v-79q-35 -7 -58 -7t-42 10v76z" />
<glyph unicode="&#xa6;" horiz-adv-x="224" d="M156 695l1 -339q0 -13 -15 -21t-34 -8q-20 0 -34 7t-14 18l-1 341q0 7 19.5 16t38.5 9q36 0 39 -23zM156 248l1 -339q0 -13 -15 -21t-34 -8q-20 0 -34 7t-14 18l-1 341q0 7 19.5 16t38.5 9q36 0 39 -23z" />
<glyph unicode="&#xa7;" horiz-adv-x="458" d="M300 72q0 43 -19 75t-55 32q-97 0 -134 41t-37 131q0 45 44 84q-44 50 -44 160q0 57 55 91.5t126 34.5q40 0 82 -13.5t42 -39.5q0 -18 -16 -41.5t-26 -23.5q-29 26 -85 26q-35 0 -59.5 -11.5t-24.5 -33.5q0 -53 18.5 -77t77.5 -24q69 0 106.5 -42t37.5 -109 q0 -72 -38 -110q38 -46 38 -149q0 -77 -46 -113t-117 -36q-99 0 -165 50h1q-9 4 -9 14q0 18 22.5 42t31.5 24q50 -37 118 -37q75 0 75 55zM300 331q0 19 -4.5 30.5t-16 16t-20 5.5t-26.5 1q-35 0 -59.5 -11t-24.5 -33q0 -39 6 -52q36 -12 69 -12t54.5 13.5t21.5 41.5z" />
<glyph unicode="&#xa8;" horiz-adv-x="519" d="M108 607v6q0 23 15 38t38 15h6q22 0 36.5 -15t14.5 -38v-6q0 -22 -14.5 -37t-36.5 -15h-6q-23 0 -38 15t-15 37zM280 607v6q0 23 15 38t38 15h6q22 0 36.5 -15t14.5 -38v-6q0 -23 -14.5 -37.5t-36.5 -14.5h-6q-23 0 -38 15t-15 37z" />
<glyph unicode="&#xa9;" horiz-adv-x="729" d="M43 354q0 149 94 254t228 105t228 -105t94 -254t-94 -254t-228 -105t-228 105t-94 254zM594 355q0 112 -68.5 192.5t-161.5 80.5q-92 0 -160 -82t-68 -194q0 -111 67.5 -188.5t160.5 -77.5t161.5 79t68.5 190zM466 436q-7 0 -13 5q-29 16 -61 16q-40 0 -67.5 -26.5 t-27.5 -71.5q0 -44 27.5 -73.5t63.5 -29.5q35 0 66 31q3 3 11 3q11 0 23.5 -20.5t12.5 -38.5q0 -28 -41.5 -45.5t-72.5 -17.5q-73 0 -127 56.5t-54 136.5q0 81 55 131.5t130 50.5q25 0 69.5 -13.5t44.5 -33.5q0 -14 -13.5 -37t-25.5 -23z" />
<glyph unicode="&#xaa;" horiz-adv-x="396" d="M321 579q0 -19 -4 -49q-1 -2 -1 -7t-1 -7q-3 -20 -3 -37q0 -57 60 -96q-56 -33 -82 -33q-30 0 -52 26q-47 -25 -89 -25q-49 0 -86.5 27.5t-37.5 94.5q0 60 54 98t120 38q26 0 37 -2q1 7 1 22q0 48 -45 48t-80 -25h1q-3 -3 -12 -3q-11 0 -25.5 22.5t-14.5 34.5 q0 14 48.5 33t76.5 19q27 0 42 -1.5t35.5 -9.5t31.5 -23t19 -44.5t8 -72.5q0 -2 -0.5 -4t-0.5 -3v-21zM143 439h2q4 -1 12 -1q28 0 70 13v15q0 23 1 32v14q0 3 0.5 8.5t0.5 7.5t-22 2q-91 0 -91 -51q0 -37 27 -40z" />
<glyph unicode="&#xab;" horiz-adv-x="474" d="M32 232h1q-4 5 -4 19q0 10 2 16l144 189q8 11 23 11q19 0 38.5 -17.5t17.5 -27.5l-137 -171q8 -9 22.5 -27.5t22.5 -27.5l89 -109q2 -8 -18 -28t-38 -20q-14 0 -22 11zM212 232h1q-4 5 -4 19q0 10 2 16l144 189q8 11 23 11q19 0 38.5 -17.5t17.5 -27.5l-137 -171 q8 -9 22.5 -27.5t22.5 -27.5l89 -109q2 -8 -18 -28t-38 -20q-14 0 -22 11z" />
<glyph unicode="&#xac;" horiz-adv-x="576" d="M432 230h-369q-14 0 -21.5 12.5t-7.5 31.5t6.5 32t18.5 13l396 1h11q39 0 45.5 -7.5t6.5 -52.5v-15l1 -142q0 -8 -17 -16.5t-34 -8.5q-32 0 -35 23z" />
<glyph unicode="&#xad;" horiz-adv-x="495" d="M432 289l-369 -1q-14 0 -21.5 15t-7.5 36q0 19 7 34t18 15l371 1q7 0 16 -20.5t9 -39.5q0 -37 -23 -40z" />
<glyph unicode="&#xae;" horiz-adv-x="741" d="M43 354q0 149 94 254t228 105t228 -105t94 -254t-94 -254t-228 -105t-228 105t-94 254zM594 355q0 112 -68.5 192.5t-161.5 80.5q-92 0 -160 -82t-68 -194q0 -111 67.5 -188.5t160.5 -77.5t161.5 79t68.5 190zM247 206v318q47 19 105 19q63 0 106 -29t43 -93 q0 -43 -21.5 -69.5t-56.5 -35.5l5 -6q4 -6 7 -9l69 -84q0 -10 -19 -27t-41 -17q-13 0 -23 10l-84 103q-2 2 -4 5q0 -9 0.5 -23t0.5 -24v-64q-20 -8 -45 -8q-42 0 -42 34zM334 458l1 -72h17q60 0 60 30q0 45 -50 45q-13 0 -28 -3z" />
<glyph unicode="&#xaf;" horiz-adv-x="376" d="M343 598l-304 -1q-15 0 -22 7.5t-7 28.5q0 41 25 41l306 1q9 0 17 -10t8 -30q0 -34 -23 -37z" />
<glyph unicode="&#xb0;" horiz-adv-x="382" d="M138 618q0 -29 11 -45t20.5 -18t22.5 -2q9 0 15.5 1.5t14.5 7t12 20t4 37.5q0 21 -5 34.5t-15.5 18t-16.5 5.5t-17 1h-7q-2 0 -11 -3t-14 -8.5t-9.5 -18t-4.5 -30.5zM56 619q0 135 132 135q27 0 48 -5t42.5 -18.5t33 -41.5t11.5 -70q0 -81 -37.5 -114t-92.5 -33 q-137 0 -137 147z" />
<glyph unicode="&#xb1;" horiz-adv-x="592" d="M480 74l-369 -1q-14 0 -21.5 15t-7.5 36q0 19 7 34t18 15l371 1q7 0 16 -20.5t9 -39.5q0 -37 -23 -40zM236 536v127q0 14 15 21.5t36 7.5q18 0 33.5 -7t15.5 -18v-131h68q13 0 37.5 0.5t36.5 0.5q7 0 16 -20.5t9 -39.5q0 -37 -23 -40l-144 -1v-68q0 -12 0.5 -36t0.5 -36 q0 -8 -20.5 -16.5t-39.5 -8.5q-37 0 -40 23l-1 142h-125q-14 0 -21.5 15t-7.5 36q0 19 7 34t18 15h129z" />
<glyph unicode="&#xb2;" horiz-adv-x="463" d="M69 658q6 6 26.5 18t61 26t80.5 14q28 0 52.5 -6t49.5 -21t39.5 -45.5t14.5 -73.5q0 -32 -9 -56t-30.5 -43t-35.5 -28t-45 -26q-29 -15 -39 -21t-29 -21.5t-26.5 -33.5t-8.5 -42h207q9 -27 9 -45q0 -8 -3 -19.5t-7 -18.5l-3 -7h-275q-35 0 -35 82q0 33 10 60t21 43.5 t35 35t37 25.5l42 22q29 15 44 24t28.5 25.5t13.5 35.5q0 66 -53 66q-32 0 -58.5 -10t-37.5 -20l-11 -11q-5 -5 -14 -5q-14 0 -34 27t-20 39q0 7 3 10z" />
<glyph unicode="&#xb3;" horiz-adv-x="437" d="M279 571q0 55 -72 55q-45 0 -85 -32h1q-7 -7 -15 -7q-10 0 -33 27.5t-22 39.5q83 60 154 60q21 0 44.5 -5.5t53 -19t48.5 -45.5t19 -78q0 -91 -43 -121q50 -37 50 -117q0 -61 -48 -105.5t-122 -44.5q-83 0 -163 59l1 11q0 18 20 43t36 25q0 -1 2 -3q3 -4 8.5 -10.5 t29 -18.5t52.5 -16q38 2 65.5 21t27.5 49q0 63 -100 63q-17 0 -41 -3q-8 0 -15 17.5t-7 35.5q0 36 20 37l86 3q19 0 33.5 22t14.5 58z" />
<glyph unicode="&#xb4;" horiz-adv-x="320" d="M251 615l-170 -71q-11 0 -26.5 14.5t-15.5 32.5q0 22 26 36l147 76q7 3 29.5 -21.5t22.5 -42.5q0 -12 -13 -24z" />
<glyph unicode="&#xb5;" horiz-adv-x="622" d="M120 498h98v-364q43 -60 143 -60q31 0 58 10t37 24q9 24 9 161q0 90 -1 131q0 9 -0.5 27.5t-0.5 26.5v44h103q3 -94 3 -188q0 -222 -25 -262q-56 -73 -189 -73q-83 0 -137 43v-117q0 -22 0.5 -64t0.5 -63q0 -36 -53 -36q-19 0 -32.5 6t-13.5 16v738z" />
<glyph unicode="&#xb6;" horiz-adv-x="643" d="M48 521q0 105 57 149.5t162 44.5l220 1q4 0 8 -4.5t8.5 -24t4.5 -50.5v-585q0 -32 19 -50t38 -20l19 -3q8 0 13.5 -10t5.5 -22q0 -15 -6 -27t-15 -12q-6 0 -17 1.5t-38 10.5t-47.5 23t-37.5 42.5t-17 66.5q-3 138 -3 330q0 132 3 248q-16 2 -28 2q-15 0 -28 -3v-575 q0 -42 7.5 -73t18.5 -45.5t22.5 -23t18.5 -9.5l8 -1q19 -1 19 -35q0 -36 -22 -36q-6 0 -17 1t-38 13t-47.5 33t-37.5 67t-17 109v249q-6 -1 -28 -1q-25 0 -49 4t-54.5 18t-52.5 36.5t-37 64t-15 96.5z" />
<glyph unicode="&#xb7;" horiz-adv-x="216" d="M28 279v9q0 29 20 49t50 20h9q28 0 48 -20t20 -49v-9q0 -30 -20 -50t-48 -20h-9q-30 0 -50 19.5t-20 50.5z" />
<glyph unicode="&#xb8;" horiz-adv-x="254" d="M91 38h77l9 -54q39 -13 39 -47q0 -32 -30.5 -55.5t-61.5 -32t-51 -8.5q-10 0 -21 18t-11 29q0 13 29 17q57 14 65 27q2 3 2 7q0 8 -12.5 17.5t-25.5 15.5l-13 6z" />
<glyph unicode="&#xb9;" horiz-adv-x="415" d="M317 200l-1 -6q-7 -7 -40 -7q-39 0 -54 7v364q-14 -11 -17 -13q-8 -7 -24 -19l-90 -71q-10 2 -31.5 22t-21.5 36q0 9 7 16l166 142l36 31q12 4 31 4q38 0 39 -24v-482z" />
<glyph unicode="&#xba;" horiz-adv-x="474" d="M123 555q0 -46 30 -80.5t74 -34.5q43 0 74 34.5t31 80.5t-31 80.5t-74 34.5q-44 0 -74 -34.5t-30 -80.5zM32 559q0 85 57 141t139 56q81 0 137.5 -56t56.5 -141q0 -87 -57 -148t-137 -61q-82 0 -139 61t-57 148z" />
<glyph unicode="&#xbb;" horiz-adv-x="544" d="M483 227l-138 -177q-8 -11 -23 -11q-18 0 -37.5 20t-17.5 28l135 164l-68 83q-46 56 -70 88q-2 9 17.5 27t37.5 18q16 0 24 -11l144 -189q1 -3 1 -16q0 -14 -5 -24zM303 227l-138 -177q-8 -11 -23 -11q-18 0 -37.5 20t-17.5 28l135 164l-68 83q-46 56 -70 88 q-2 9 17.5 27t37.5 18q16 0 24 -11l144 -189q1 -3 1 -16q0 -14 -5 -24z" />
<glyph unicode="&#xbc;" horiz-adv-x="1034" d="M317 200l-1 -6q-7 -7 -40 -7q-39 0 -54 7v364q-14 -11 -17 -13q-8 -7 -24 -19l-90 -71q-10 2 -31.5 22t-21.5 36q0 9 7 16l166 142l36 31q12 4 31 4q38 0 39 -24v-482zM604 130l-9 9l6 70l229 293q16 4 34 4q42 0 42 -28v-255h65q6 -34 6 -53t-11 -40h-60v-137 q-30 -7 -53 -7q-20 0 -39 10v134h-210zM721 671l-340 -681q-5 -9 -21 -9q-19 0 -42.5 16t-23.5 29q0 8 5 10l185 371l149 298q2 13 19 13q24 0 46.5 -13.5t22.5 -33.5zM722 218l92 5v113l-17 -23l-33 -41z" />
<glyph unicode="&#xbd;" horiz-adv-x="1016" d="M317 200l-1 -6q-7 -7 -40 -7q-39 0 -54 7v364q-14 -11 -17 -13q-8 -7 -24 -19l-90 -71q-10 2 -31.5 22t-21.5 36q0 9 7 16l166 142l36 31q12 4 31 4q38 0 39 -24v-482zM712 664l-340 -672q-8 -11 -21 -11q-19 0 -42.5 16t-23.5 29q0 8 4 10l168 331l168 333l-1 -2 q0 13 19 13q24 0 46.5 -13.5t22.5 -33.5zM644 440q6 6 26.5 18t61 26t80.5 14q28 0 52.5 -6t49.5 -21t39.5 -45.5t14.5 -73.5q0 -32 -9 -56t-30.5 -43t-35.5 -28t-45 -26q-29 -15 -39 -21t-29 -21.5t-26.5 -33.5t-8.5 -42h207q9 -27 9 -45q0 -8 -3.5 -19.5t-6.5 -18.5l-3 -7 h-275q-35 0 -35 82q0 33 10 60t21 43.5t35 35t37 25.5l42 22q29 15 44 24t28.5 25.5t13.5 35.5q0 66 -53 66q-32 0 -58.5 -10t-37.5 -20l-11 -11q-5 -5 -14 -5q-14 0 -34 27t-20 39q0 7 3 10z" />
<glyph unicode="&#xbe;" horiz-adv-x="1094" d="M304 571q0 55 -72 55q-45 0 -85 -32h1q-7 -7 -15 -7q-10 0 -33 27.5t-22 39.5q83 60 154 60q21 0 44.5 -5.5t53 -19t48.5 -45.5t19 -78q0 -91 -43 -121q50 -37 50 -117q0 -61 -48 -105.5t-122 -44.5q-83 0 -163 59l1 11q0 18 20 43t36 25q0 -1 2 -3q3 -4 8.5 -10.5 t29 -18.5t52.5 -16q38 2 65.5 21t27.5 49q0 63 -100 63q-17 0 -41 -3q-8 0 -15 17.5t-7 35.5q0 36 20 37l86 3q19 0 33.5 22t14.5 58zM664 130l-9 9l6 70l229 293q16 4 34 4q42 0 42 -28v-255h65q6 -34 6 -53t-11 -40h-60v-137q-30 -7 -53 -7q-20 0 -39 10v134h-210z M781 671l-340 -681q-5 -9 -21 -9q-19 0 -42.5 16t-23.5 29q0 8 5 10l185 371l149 298q2 13 19 13q24 0 46.5 -13.5t22.5 -33.5zM785 223h89q0 21 -1 55.5t-1 55.5l-27 -35q-55 -70 -60 -76z" />
<glyph unicode="&#xbf;" horiz-adv-x="444" d="M237 319q10 16 42 16q50 0 50 -28v-7q0 -2 -0.5 -5t-0.5 -4q-1 -6 -1 -17q0 -5 2 -21q2 -10 2 -19q0 -34 -16.5 -61t-33 -39.5t-50.5 -33.5q-33 -19 -49.5 -31.5t-33 -39t-16.5 -59.5q0 -96 92 -96q82 0 130 58q11 0 33 -22t22 -39q0 -24 -61.5 -53.5t-118.5 -29.5 q-83 0 -137 45t-54 144q0 32 7.5 58t16 41.5t27 30.5t29 21.5t33.5 18.5q29 15 43 25t28 34t14 58q0 6 -1 11q-1 2 -1 3q-2 12 -2 21q0 14 5 20zM335 459v-6q0 -23 -15.5 -38t-37.5 -15h-6q-22 0 -37 15.5t-15 37.5v6q0 23 15 38t37 15h6q23 0 38 -15t15 -38z" />
<glyph unicode="&#xc0;" horiz-adv-x="678" d="M395 756l-168 69q-15 10 -15 26q0 18 22.5 42.5t29.5 21.5l147 -76q26 -14 26 -36q0 -18 -15.5 -32.5t-26.5 -14.5zM48 28l278 672q9 16 53 16q36 0 43 -15l230 -675h-1q3 -6 3 -9q0 -27 -43 -27q-49 0 -59 23l-62 198h-258l-38 -93q-32 -76 -37 -89q-23 -40 -52 -40 q-22 0 -39.5 13t-17.5 26zM456 306l-91 234l-43 -104l-53 -130h187z" />
<glyph unicode="&#xc1;" horiz-adv-x="678" d="M507 827l-170 -71q-11 0 -26.5 14.5t-15.5 32.5q0 22 26 36l147 76q7 3 29.5 -21.5t22.5 -42.5q0 -12 -13 -24zM48 28l278 672q9 16 53 16q36 0 43 -15l230 -675h-1q3 -6 3 -9q0 -27 -43 -27q-49 0 -59 23l-62 198h-258l-38 -93q-32 -76 -37 -89q-23 -40 -52 -40 q-22 0 -39.5 13t-17.5 26zM456 306l-91 234l-43 -104l-53 -130h187z" />
<glyph unicode="&#xc2;" horiz-adv-x="675" d="M377 917h12l133 -73q7 -6 7 -19q0 -18 -19 -37.5t-27 -17.5l-107 61q-18 -10 -56 -29l-60 -32q-8 -2 -23.5 18t-15.5 37q0 15 7 21l131 68q6 3 18 3zM48 28l278 672q9 16 53 16q36 0 43 -15l230 -675h-1q3 -6 3 -9q0 -27 -43 -27q-49 0 -59 23l-62 198h-258l-38 -93 q-32 -76 -37 -89q-23 -40 -52 -40q-22 0 -39.5 13t-17.5 26zM456 306l-91 234l-43 -104l-53 -130h187z" />
<glyph unicode="&#xc3;" horiz-adv-x="678" d="M534 816h-1q-40 -53 -96 -53q-22 0 -74 24q-44 20 -54 20q-12 0 -22 -5t-14 -10l-4 -5q-12 -6 -14 -6q-15 0 -31.5 24t-16.5 41q0 11 13 24v-3q28 23 63 23q47 0 106 -38q16 -9 27 -9q28 0 54 38v-1q6 12 13 12q14 0 34.5 -23t20.5 -39q0 -10 -4 -14zM48 28l278 672 q9 16 53 16q36 0 43 -15l230 -675h-1q3 -6 3 -9q0 -27 -43 -27q-49 0 -59 23l-62 198h-258l-38 -93q-32 -76 -37 -89q-23 -40 -52 -40q-22 0 -39.5 13t-17.5 26zM456 306l-91 234l-43 -104l-53 -130h187z" />
<glyph unicode="&#xc4;" horiz-adv-x="678" d="M230 819v6q0 23 15 38t38 15h6q22 0 36.5 -15t14.5 -38v-6q0 -22 -14.5 -37t-36.5 -15h-6q-23 0 -38 15t-15 37zM402 819v6q0 23 15 38t38 15h6q22 0 36.5 -15t14.5 -38v-6q0 -23 -14.5 -37.5t-36.5 -14.5h-6q-23 0 -38 15t-15 37zM48 28l278 672q9 16 53 16q36 0 43 -15 l230 -675h-1q3 -6 3 -9q0 -27 -43 -27q-49 0 -59 23l-62 198h-258l-38 -93q-32 -76 -37 -89q-23 -40 -52 -40q-22 0 -39.5 13t-17.5 26zM456 306l-91 234l-43 -104l-53 -130h187z" />
<glyph unicode="&#xc5;" horiz-adv-x="657" d="M36 28l278 672q9 16 53 16q36 0 43 -15l230 -675h-1q3 -6 3 -9q0 -27 -43 -27q-49 0 -59 23l-62 198h-258l-38 -93q-32 -76 -37 -89q-23 -40 -52 -40q-22 0 -39.5 13t-17.5 26zM238 875q0 53 37 90t90 37t90 -37t37 -90t-37 -89.5t-90 -36.5t-90 37t-37 89zM427 350 l-74 190l-43 -104l-53 -130h187zM315 875q0 -20 15 -34.5t36 -14.5q20 0 35.5 15t15.5 34q0 21 -15.5 36t-35.5 15q-21 0 -36 -15t-15 -36z" />
<glyph unicode="&#xc6;" horiz-adv-x="1010" d="M623 618v-195h263q32 0 32 -44q0 -20 -8.5 -37t-20.5 -17l-266 -1v-235q0 -6 132 -6l183 5q27 0 27 -44q0 -22 -7.5 -37.5t-19.5 -15.5h-14q-4 0 -17 -0.5t-22 -0.5q-94 -2 -182 -2q-163 0 -171 22l-33 102l-32 99h-258q-34 -85 -38 -93l-36 -90q-20 -38 -49 -38 q-23 0 -38 9t-19 16.5t-4 12.5l278 674q20 14 45 14q11 0 23 -3t19 -5l7 -3l126 -368v335q0 41 221 41q55 0 129 -2q25 -1 65 -1q17 -8 17 -55q0 -32 -16 -32q-99 1 -190 1q-126 0 -126 -6zM416 350l-74 190l-43 -104l-53 -130h187z" />
<glyph unicode="&#xc7;" horiz-adv-x="601" d="M503 556q-8 0 -12 7l1 -1q-25 28 -55 40t-77 12q-89 0 -153 -77.5t-64 -185.5t64 -185.5t153 -77.5q78 0 134 53h-1q3 3 11 3q15 0 29.5 -22.5t14.5 -42.5q0 -35 -61.5 -62t-126.5 -27h-9q0 -1 1 -3.5t1 -3.5q1 -3 1 -5v-5q40 -14 40 -47q0 -32 -30.5 -55.5t-61.5 -32 t-51 -8.5q-10 0 -21 18t-11 29q0 13 29 17q57 14 65 27q2 3 2 7q0 8 -12.5 18t-25.5 16l-13 5l2 38q-97 34 -159 129.5t-62 216.5q0 150 92 255t223 105q65 0 123 -31.5t58 -56.5q0 -13 -13.5 -40t-24.5 -27z" />
<glyph unicode="&#xc8;" horiz-adv-x="524" d="M308 756l-168 69q-15 10 -15 26q0 18 22.5 42.5t29.5 21.5l147 -76q26 -14 26 -36q0 -18 -15.5 -32.5t-26.5 -14.5zM138 423h263q32 0 32 -44q0 -20 -8.5 -37t-20.5 -17l-266 -1v-235q0 -6 132 -6l183 5q27 0 27 -44q0 -22 -7.5 -37.5t-19.5 -15.5q-27 0 -50 -1 q-4 0 -14 -0.5t-16 -0.5q-68 -2 -124 -2q-210 0 -210 36l-1 649q0 41 221 41q55 0 129 -2q25 -1 65 -1q17 -8 17 -55q0 -32 -16 -32q-99 1 -190 1q-126 0 -126 -6v-195z" />
<glyph unicode="&#xc9;" horiz-adv-x="531" d="M432 827l-170 -71q-11 0 -26.5 14.5t-15.5 32.5q0 22 26 36l147 76q7 3 29.5 -21.5t22.5 -42.5q0 -12 -13 -24zM145 423h263q32 0 32 -44q0 -20 -8.5 -37t-20.5 -17l-266 -1v-235q0 -6 132 -6l183 5q27 0 27 -44q0 -22 -7.5 -37.5t-19.5 -15.5q-27 0 -50 -1 q-4 0 -14 -0.5t-16 -0.5q-68 -2 -124 -2q-210 0 -210 36l-1 649q0 41 221 41q55 0 129 -2q25 -1 65 -1q17 -8 17 -55q0 -32 -16 -32q-99 1 -190 1q-126 0 -126 -6v-195z" />
<glyph unicode="&#xca;" horiz-adv-x="521" d="M273 917h12l133 -73q7 -6 7 -19q0 -18 -19 -37.5t-27 -17.5l-107 61q-18 -10 -56 -29l-60 -32q-8 -2 -23.5 18t-15.5 37q0 15 7 21l131 68q6 3 18 3zM143 423h263q32 0 32 -44q0 -20 -8.5 -37t-20.5 -17l-266 -1v-235q0 -6 132 -6l183 5q27 0 27 -44q0 -22 -7.5 -37.5 t-19.5 -15.5q-27 0 -50 -1q-4 0 -14 -0.5t-16 -0.5q-68 -2 -124 -2q-210 0 -210 36l-1 649q0 41 221 41q55 0 129 -2q25 -1 65 -1q17 -8 17 -55q0 -32 -16 -32q-99 1 -190 1q-126 0 -126 -6v-195z" />
<glyph unicode="&#xcb;" horiz-adv-x="518" d="M106 819v6q0 23 15 38t38 15h6q22 0 36.5 -15t14.5 -38v-6q0 -22 -14.5 -37t-36.5 -15h-6q-23 0 -38 15t-15 37zM278 819v6q0 23 15 38t38 15h6q22 0 36.5 -15t14.5 -38v-6q0 -23 -14.5 -37.5t-36.5 -14.5h-6q-23 0 -38 15t-15 37zM136 423h263q32 0 32 -44 q0 -20 -8.5 -37t-20.5 -17l-266 -1v-235q0 -6 132 -6l183 5q27 0 27 -44q0 -22 -7.5 -37.5t-19.5 -15.5q-27 0 -50 -1q-4 0 -14 -0.5t-16 -0.5q-68 -2 -124 -2q-210 0 -210 36l-1 649q0 41 221 41q55 0 129 -2q25 -1 65 -1q17 -8 17 -55q0 -32 -16 -32q-99 1 -190 1 q-126 0 -126 -6v-195z" />
<glyph unicode="&#xcc;" horiz-adv-x="222" d="M152 756l-168 69q-15 10 -15 26q0 18 22.5 42.5t29.5 21.5l147 -76q26 -14 26 -36q0 -18 -15.5 -32.5t-26.5 -14.5zM160 695l1 -680q0 -13 -15 -21t-34 -8q-20 0 -34 7t-14 18l-1 682q0 7 19.5 16t38.5 9q36 0 39 -23z" />
<glyph unicode="&#xcd;" horiz-adv-x="273" d="M293 827l-170 -71q-11 0 -26.5 14.5t-15.5 32.5q0 22 26 36l147 76q7 3 29.5 -21.5t22.5 -42.5q0 -12 -13 -24zM181 695l1 -680q0 -13 -15 -21t-34 -8q-20 0 -34 7t-14 18l-1 682q0 7 19.5 16t38.5 9q36 0 39 -23z" />
<glyph unicode="&#xce;" horiz-adv-x="340" d="M182 917h12l133 -73q7 -6 7 -19q0 -18 -19 -37.5t-27 -17.5l-107 61q-18 -10 -56 -29l-60 -32q-8 -2 -23.5 18t-15.5 37q0 15 7 21l131 68q6 3 18 3zM222 695l1 -680q0 -13 -15 -21t-34 -8q-20 0 -34 7t-14 18l-1 682q0 7 19.5 16t38.5 9q36 0 39 -23z" />
<glyph unicode="&#xcf;" horiz-adv-x="297" d="M14 819v6q0 23 15 38t38 15h6q22 0 36.5 -15t14.5 -38v-6q0 -22 -14.5 -37t-36.5 -15h-6q-23 0 -38 15t-15 37zM186 819v6q0 23 15 38t38 15h6q22 0 36.5 -15t14.5 -38v-6q0 -23 -14.5 -37.5t-36.5 -14.5h-6q-23 0 -38 15t-15 37zM201 695l1 -680q0 -13 -15 -21t-34 -8 q-20 0 -34 7t-14 18l-1 682q0 7 19.5 16t38.5 9q36 0 39 -23z" />
<glyph unicode="&#xd0;" horiz-adv-x="689" d="M125 313h-69q-14 0 -21.5 15t-7.5 36q0 19 7 34t18 15h73v274q0 9 60 16t88 7q195 0 286 -91.5t91 -268.5q0 -187 -86.5 -273.5t-293.5 -86.5h-40q-5 0 -15 -0.5t-15 -0.5q-74 0 -74 17zM223 617v-204h92q16 0 48.5 0.5t49.5 0.5q7 0 16 -20.5t9 -39.5q0 -37 -23 -40 l-192 -1v-116q0 -20 0.5 -58.5t0.5 -58.5h36h12q138 0 209 64.5t71 205.5q0 269 -270 269q-39 0 -59 -2z" />
<glyph unicode="&#xd1;" horiz-adv-x="672" d="M487 816h-1q-40 -53 -96 -53q-22 0 -74 24q-44 20 -54 20q-12 0 -22 -5t-14 -10l-4 -5q-12 -6 -14 -6q-15 0 -31.5 24t-16.5 41q0 11 13 24v-3q28 23 63 23q47 0 106 -38q16 -9 27 -9q28 0 54 38v-1q6 12 13 12q14 0 34.5 -23t20.5 -39q0 -10 -4 -14zM602 684l1 -660 q0 -19 -17 -28t-40 -9q-29 0 -38 11l-368 523v-511q0 -9 -17 -16t-37 -7q-46 0 -46 28v661q0 16 15.5 25.5t37.5 9.5q34 0 48 -20l362 -513v507q0 8 20 17.5t39 9.5q40 0 40 -28z" />
<glyph unicode="&#xd2;" horiz-adv-x="652" d="M378 756l-168 69q-15 10 -15 26q0 18 22.5 42.5t29.5 21.5l147 -76q26 -14 26 -36q0 -18 -15.5 -32.5t-26.5 -14.5zM37 352q0 151 85 260.5t204 109.5q88 0 154.5 -51t100.5 -134.5t34 -184.5q0 -152 -84.5 -263t-204.5 -111q-119 0 -204 111t-85 263zM136 369v-2 q-1 -9 -1 -25q0 -104 60 -185.5t136 -81.5q77 0 131.5 87t54.5 203q0 104 -54 181.5t-130 77.5q-71 0 -128 -76.5t-69 -178.5z" />
<glyph unicode="&#xd3;" horiz-adv-x="662" d="M488 827l-170 -71q-11 0 -26.5 14.5t-15.5 32.5q0 22 26 36l147 76q7 3 29.5 -21.5t22.5 -42.5q0 -12 -13 -24zM50 352q0 151 85 260.5t204 109.5q88 0 154.5 -51t100.5 -134.5t34 -184.5q0 -152 -84.5 -263t-204.5 -111q-119 0 -204 111t-85 263zM149 369v-2 q-1 -9 -1 -25q0 -104 60 -185.5t136 -81.5q77 0 131.5 87t54.5 203q0 104 -54 181.5t-130 77.5q-71 0 -128 -76.5t-69 -178.5z" />
<glyph unicode="&#xd4;" horiz-adv-x="669" d="M342 917h12l133 -73q7 -6 7 -19q0 -18 -19 -37.5t-27 -17.5l-107 61q-18 -10 -56 -29l-60 -32q-8 -2 -23.5 18t-15.5 37q0 15 7 21l131 68q6 3 18 3zM43 352q0 151 85 260.5t204 109.5q88 0 154.5 -51t100.5 -134.5t34 -184.5q0 -152 -84.5 -263t-204.5 -111 q-119 0 -204 111t-85 263zM142 369v-2q-1 -9 -1 -25q0 -104 60 -185.5t136 -81.5q77 0 131.5 87t54.5 203q0 104 -54 181.5t-130 77.5q-71 0 -128 -76.5t-69 -178.5z" />
<glyph unicode="&#xd5;" horiz-adv-x="659" d="M494 816h-1q-40 -53 -96 -53q-22 0 -74 24q-44 20 -54 20q-12 0 -22 -5t-14 -10l-4 -5q-12 -6 -14 -6q-15 0 -31.5 24t-16.5 41q0 11 13 24v-3q28 23 63 23q47 0 106 -38q16 -9 27 -9q28 0 54 38v-1q6 12 13 12q14 0 34.5 -23t20.5 -39q0 -10 -4 -14zM39 352 q0 151 85 260.5t204 109.5q88 0 154.5 -51t100.5 -134.5t34 -184.5q0 -152 -84.5 -263t-204.5 -111q-119 0 -204 111t-85 263zM138 369v-2q-1 -9 -1 -25q0 -104 60 -185.5t136 -81.5q77 0 131.5 87t54.5 203q0 104 -54 181.5t-130 77.5q-71 0 -128 -76.5t-69 -178.5z" />
<glyph unicode="&#xd6;" horiz-adv-x="659" d="M206 819v6q0 23 15 38t38 15h6q22 0 36.5 -15t14.5 -38v-6q0 -22 -14.5 -37t-36.5 -15h-6q-23 0 -38 15t-15 37zM378 819v6q0 23 15 38t38 15h6q22 0 36.5 -15t14.5 -38v-6q0 -23 -14.5 -37.5t-36.5 -14.5h-6q-23 0 -38 15t-15 37zM46 352q0 151 85 260.5t204 109.5 q88 0 154.5 -51t100.5 -134.5t34 -184.5q0 -152 -84.5 -263t-204.5 -111q-119 0 -204 111t-85 263zM145 369v-2q-1 -9 -1 -25q0 -104 60 -185.5t136 -81.5q77 0 131.5 87t54.5 203q0 104 -54 181.5t-130 77.5q-71 0 -128 -76.5t-69 -178.5z" />
<glyph unicode="&#xd7;" horiz-adv-x="454" d="M304 349l85 -85q1 -1 3 -4.5t2 -4.5l5 -13q0 -18 -23 -40t-39 -22q-10 0 -13 6v-2l-92 92l-48 -48l-51 -52q-3 -3 -11 -3q-13 0 -39.5 20.5t-26.5 38.5q0 3 6 15l99 101l-104 104q0 13 21.5 41.5t38.5 28.5q7 0 20 -8l95 -93l41 41l21 20l25 25q7 7 17 7q18 0 40.5 -23 t22.5 -39q0 -8 -5 -13z" />
<glyph unicode="&#xd8;" horiz-adv-x="699" d="M471 546l-183 -453q22 -6 36 -6q82 0 142.5 80.5t60.5 194.5q0 110 -56 184zM204 149l185 458q-23 6 -42 6q-81 0 -141.5 -83t-60.5 -197q0 -110 59 -184zM249 1l-27 -63q-6 -15 -27 -15q-20 0 -43.5 14.5t-23.5 27.5l1 7l36 83q-54 50 -86 127.5t-32 165.5 q0 150 84.5 255.5t204.5 105.5q50 0 89 -16q6 10 12 22q3 5 7 14t7 14q5 9 21 9q25 0 46.5 -12t21.5 -34l-33 -67q54 -50 86 -127t32 -164q0 -151 -84 -256.5t-205 -105.5q-45 0 -87 15z" />
<glyph unicode="&#xd9;" horiz-adv-x="675" d="M408 756l-168 69q-15 10 -15 26q0 18 22.5 42.5t29.5 21.5l147 -76q26 -14 26 -36q0 -18 -15.5 -32.5t-26.5 -14.5zM342 -22h-3q-126 1 -208 77t-82 200v434q0 7 21 15.5t41 8.5q37 0 37 -24v-439q0 -78 57.5 -126.5t136.5 -50.5q74 1 120 55.5t46 123.5l1 434 q0 24 36 24q20 0 41.5 -8.5t21.5 -15.5v-430q0 -118 -74 -196.5t-192 -81.5z" />
<glyph unicode="&#xda;" horiz-adv-x="682" d="M485 827l-170 -71q-11 0 -26.5 14.5t-15.5 32.5q0 22 26 36l147 76q7 3 29.5 -21.5t22.5 -42.5q0 -12 -13 -24zM342 -22h-3q-126 1 -208 77t-82 200v434q0 7 21 15.5t41 8.5q37 0 37 -24v-439q0 -78 57.5 -126.5t136.5 -50.5q74 1 120 55.5t46 123.5l1 434q0 24 36 24 q20 0 41.5 -8.5t21.5 -15.5v-430q0 -118 -74 -196.5t-192 -81.5z" />
<glyph unicode="&#xdb;" horiz-adv-x="652" d="M337 917h12l133 -73q7 -6 7 -19q0 -18 -19 -37.5t-27 -17.5l-107 61q-18 -10 -56 -29l-60 -32q-8 -2 -23.5 18t-15.5 37q0 15 7 21l131 68q6 3 18 3zM342 -22h-3q-126 1 -208 77t-82 200v434q0 7 21 15.5t41 8.5q37 0 37 -24v-439q0 -78 57.5 -126.5t136.5 -50.5 q74 1 120 55.5t46 123.5l1 434q0 24 36 24q20 0 41.5 -8.5t21.5 -15.5v-430q0 -118 -74 -196.5t-192 -81.5z" />
<glyph unicode="&#xdc;" horiz-adv-x="675" d="M187 819v6q0 23 15.5 38t37.5 15h6q22 0 36.5 -15t14.5 -38v-6q0 -22 -14.5 -37t-36.5 -15h-6q-23 0 -38 15t-15 37zM399 819v6q0 23 15.5 38t37.5 15h6q22 0 36.5 -15t14.5 -38v-6q0 -23 -14.5 -37.5t-36.5 -14.5h-6q-23 0 -38 15t-15 37zM356 -9h-3q-128 1 -209 71 t-81 193v434q0 7 21 15.5t41 8.5q37 0 37 -24v-439q0 -77 56.5 -119.5t137.5 -44.5q75 1 120.5 50.5t45.5 115.5l1 434q0 24 36 24q20 0 41.5 -8.5t21.5 -15.5v-430q0 -117 -73.5 -189.5t-192.5 -75.5z" />
<glyph unicode="&#xdd;" horiz-adv-x="615" d="M439 827l-170 -71q-11 0 -26.5 14.5t-15.5 32.5q0 22 26 36l147 76q7 3 29.5 -21.5t22.5 -42.5q0 -12 -13 -24zM215 -2v321l-102 167l-104 171q-3 8 24.5 31.5t45.5 23.5q11 0 19 -10l168 -282l115 137l121 143q8 8 17 8q17 0 40.5 -30t21.5 -39l-266 -315v-329 q-35 -7 -58 -7t-42 10z" />
<glyph unicode="&#xde;" horiz-adv-x="551" d="M108 693q35 0 38 -23l1 -233q67 58 140 58q78 0 131 -63t53 -158q0 -135 -72 -209t-185 -74q-38 0 -66 17q0 -15 -0.5 -44.5t-0.5 -43.5v-98q0 -13 -14.5 -21t-33.5 -8t-32.5 6.5t-13.5 18.5l-1 850q0 7 19 16t37 9zM150 345l-2 -219q35 -41 98 -41q50 0 87.5 44.5 t37.5 113.5q0 71 -26 112t-73 41q-28 0 -58.5 -13t-47.5 -25z" />
<glyph unicode="&#xdf;" horiz-adv-x="506" d="M238 448q81 27 81 102q0 83 -107 83l-70 -9q0 -26 -1 -76t-1 -76q-2 -102 -2 -154q-2 -105 -4 -313q0 -16 -35 -16q-25 0 -44.5 8t-19.5 26v160q0 26 0.5 80t0.5 81q1 109 1 333q5 4 15.5 10.5t58 17.5t111.5 11q54 0 94 -15.5t60.5 -41t30 -52t9.5 -53.5 q0 -38 -15 -81.5t-45 -68.5q46 -22 84 -68.5t38 -123.5q0 -106 -62 -164.5t-170 -60.5q-10 0 -16.5 13t-6.5 32q0 18 6 31.5t16 14.5q56 0 93 31.5t37 99.5q0 72 -50 105t-110 33q-17 0 -23 9t-6 33t8.5 40t19.5 16q3 -1 4 -1q9 0 20 4z" />
<glyph unicode="&#xe0;" horiz-adv-x="457" d="M382 271q-1 -21 -5 -55q-6 -50 -6 -75q0 -86 67 -128q-48 -35 -84 -35q-38 0 -63 35q-75 -36 -126 -36q-55 0 -100 39.5t-45 124.5q0 71 63.5 114.5t145.5 43.5q33 0 62 -7v10q0 2 0.5 5t0.5 4q0 95 -52 97q-66 -2 -130 -28q-14 0 -25 24t-11 41q0 23 49 38t95 15 q31 0 50.5 -2t43.5 -12t38 -29t23.5 -55t9.5 -87q0 -28 -1 -42zM163 68q4 -1 12 -1q38 0 105 28q1 1 5 3q-1 1 -1 2q-1 7 -1 24q0 12 2 50v6q2 24 2 36q-20 3 -58 3q-109 0 -114 -78q2 -67 48 -73zM283 544l-168 69q-15 10 -15 26q0 18 22.5 42.5t29.5 21.5l147 -76 q26 -14 26 -36q0 -18 -15.5 -32.5t-26.5 -14.5z" />
<glyph unicode="&#xe1;" horiz-adv-x="456" d="M383 615l-170 -71q-11 0 -26.5 14.5t-15.5 32.5q0 22 26 36l147 76q7 3 29.5 -21.5t22.5 -42.5q0 -12 -13 -24zM389 271q-1 -21 -5 -55q-6 -50 -6 -75q0 -86 67 -128q-48 -35 -84 -35q-38 0 -63 35q-75 -36 -126 -36q-55 0 -100 39.5t-45 124.5q0 71 63.5 114.5 t145.5 43.5q33 0 62 -7v10q0 2 0.5 5t0.5 4q0 95 -52 97q-66 -2 -130 -28q-14 0 -25 24t-11 41q0 23 49 38t95 15q31 0 50.5 -2t43.5 -12t38 -29t23.5 -55t9.5 -87q0 -28 -1 -42zM170 68q4 -1 12 -1q38 0 105 28q1 1 5 3q-1 1 -1 2q-1 7 -1 24q0 12 2 50v6q2 24 2 36 q-20 3 -58 3q-109 0 -114 -78q2 -67 48 -73z" />
<glyph unicode="&#xe2;" horiz-adv-x="470" d="M241 705h12l133 -73q7 -6 7 -19q0 -18 -19 -37.5t-27 -17.5l-107 61q-18 -10 -56 -29l-60 -32q-8 -2 -23.5 18t-15.5 37q0 15 7 21l131 68q6 3 18 3zM393 271q-1 -21 -5 -55q-6 -50 -6 -75q0 -86 67 -128q-48 -35 -84 -35q-38 0 -63 35q-75 -36 -126 -36q-55 0 -100 39.5 t-45 124.5q0 71 63.5 114.5t145.5 43.5q33 0 62 -7v10q0 2 0.5 5t0.5 4q0 95 -52 97q-66 -2 -130 -28q-14 0 -25 24t-11 41q0 23 49 38t95 15q31 0 50.5 -2t43.5 -12t38 -29t23.5 -55t9.5 -87q0 -28 -1 -42zM174 68q4 -1 12 -1q38 0 105 28q1 1 5 3q-1 1 -1 2q-1 7 -1 24 q0 12 2 50v6q2 24 2 36q-20 3 -58 3q-109 0 -114 -78q2 -67 48 -73z" />
<glyph unicode="&#xe3;" horiz-adv-x="464" d="M407 604h-1q-40 -53 -96 -53q-22 0 -74 24q-44 20 -54 20q-12 0 -22 -5t-14 -10l-4 -5q-12 -6 -14 -6q-15 0 -31.5 24t-16.5 41q0 11 13 24v-3q28 23 63 23q47 0 106 -38q16 -9 27 -9q28 0 54 38v-1q6 12 13 12q14 0 34.5 -23t20.5 -39q0 -10 -4 -14zM391 271 q-1 -21 -5 -55q-6 -50 -6 -75q0 -86 67 -128q-48 -35 -84 -35q-38 0 -63 35q-75 -36 -126 -36q-55 0 -100 39.5t-45 124.5q0 71 63.5 114.5t145.5 43.5q33 0 62 -7v10q0 2 0.5 5t0.5 4q0 95 -52 97q-66 -2 -130 -28q-14 0 -25 24t-11 41q0 23 49 38t95 15q31 0 50.5 -2 t43.5 -12t38 -29t23.5 -55t9.5 -87q0 -28 -1 -42zM172 68q4 -1 12 -1q38 0 105 28q1 1 5 3q-1 1 -1 2q-1 7 -1 24q0 12 2 50v6q2 24 2 36q-20 3 -58 3q-109 0 -114 -78q2 -67 48 -73z" />
<glyph unicode="&#xe4;" horiz-adv-x="459" d="M100 607v6q0 23 15 38t38 15h6q22 0 36.5 -15t14.5 -38v-6q0 -22 -14.5 -37t-36.5 -15h-6q-23 0 -38 15t-15 37zM272 607v6q0 23 15 38t38 15h6q22 0 36.5 -15t14.5 -38v-6q0 -23 -14.5 -37.5t-36.5 -14.5h-6q-23 0 -38 15t-15 37zM392 271q-1 -21 -5 -55q-6 -50 -6 -75 q0 -86 67 -128q-48 -35 -84 -35q-38 0 -63 35q-75 -36 -126 -36q-55 0 -100 39.5t-45 124.5q0 71 63.5 114.5t145.5 43.5q33 0 62 -7v10q0 2 0.5 5t0.5 4q0 95 -52 97q-66 -2 -130 -28q-14 0 -25 24t-11 41q0 23 49 38t95 15q31 0 50.5 -2t43.5 -12t38 -29t23.5 -55t9.5 -87 q0 -28 -1 -42zM173 68q4 -1 12 -1q38 0 105 28q1 1 5 3q-1 1 -1 2q-1 7 -1 24q0 12 2 50v6q2 24 2 36q-20 3 -58 3q-109 0 -114 -78q2 -67 48 -73z" />
<glyph unicode="&#xe5;" horiz-adv-x="452" d="M384 271q-1 -21 -5 -55q-6 -50 -6 -75q0 -86 67 -128q-48 -35 -84 -35q-38 0 -63 35q-75 -36 -126 -36q-55 0 -100 39.5t-45 124.5q0 71 63.5 114.5t145.5 43.5q33 0 62 -7v10q0 2 0.5 5t0.5 4q0 95 -52 97q-66 -2 -130 -28q-14 0 -25 24t-11 41q0 23 49 38t95 15 q31 0 50.5 -2t43.5 -12t38 -29t23.5 -55t9.5 -87q0 -28 -1 -42zM165 68q4 -1 12 -1q38 0 105 28q1 1 5 3q-1 1 -1 2q-1 7 -1 24q0 12 2 50v6q2 24 2 36q-20 3 -58 3q-109 0 -114 -78q2 -67 48 -73zM203 662q0 -20 15 -34.5t36 -14.5q20 0 35.5 15t15.5 34q0 21 -15.5 36 t-35.5 15q-21 0 -36 -15t-15 -36zM126 662q0 53 37 90t90 37t90 -37t37 -90t-37 -89.5t-90 -36.5t-90 37t-37 89z" />
<glyph unicode="&#xe6;" horiz-adv-x="770" d="M96 482l6 4v-2q4 4 16 7q85 23 148 23q91 0 117 -62q64 53 153 53q93 0 149.5 -42.5t56.5 -136.5q0 -99 -70 -99h-270q19 -148 131 -148q79 0 125 23q20 12 27 12q35 0 35 -73q0 -27 -71 -40t-131 -13h-5q-50 2 -80.5 16t-63.5 51q-121 -69 -194 -69q-57 0 -102.5 38 t-45.5 123q0 72 62 116.5t146 44.5q34 0 68 -8q6 24 6 50q0 68 -50 68q-30 0 -66 -6t-57 -12l-22 -7q-22 30 -22 59zM287 146q0 47 7 80h-4q-28 4 -58 4q-45 0 -78 -20t-33 -62q0 -39 19 -57.5t51 -18.5q49 0 98 23q-2 24 -2 51zM417 310l211 -3q14 6 14 41q0 63 -102 63 q-39 0 -76.5 -31.5t-46.5 -69.5z" />
<glyph unicode="&#xe7;" horiz-adv-x="471" d="M392 383l-8 1q-28 27 -108 27q-59 0 -101.5 -47t-42.5 -113q0 -67 42.5 -114.5t101.5 -47.5q36 0 58.5 8t51.5 32l7 1q13 0 28.5 -20.5t15.5 -39.5q0 -30 -47 -53t-92 -27v-5q40 -13 40 -48q0 -32 -30.5 -55.5t-61.5 -32t-51 -8.5q-10 0 -21 18t-11 29q0 13 29 17 q57 14 65 27q2 3 2 7q0 8 -12.5 18t-25.5 15l-13 6l2 22q-79 24 -128.5 93.5t-49.5 160.5q0 108 71.5 178t175.5 70q50 0 86 -8t67 -35v-13q0 -50 -40 -63z" />
<glyph unicode="&#xe8;" horiz-adv-x="479" d="M425 251q-3 -35 -168 -35l-127 3q4 -76 44 -112.5t100 -36.5q45 0 103 21q1 0 3 1h2q15 0 27 -23t12 -42q0 -27 -55.5 -38t-116.5 -11q-118 0 -170 77.5t-52 200.5q0 112 52 177.5t152 65.5q111 0 154 -44t43 -141q0 -28 -3 -63zM233 416q-51 0 -75 -33t-27 -81 q2 0 9.5 -0.5t13.5 -0.5q27 -1 103 -1q74 0 74 -3q0 30 -1 44t-5.5 32t-15 25t-29 12.5t-47.5 5.5zM290 544l-168 69q-15 10 -15 26q0 18 22.5 42.5t29.5 21.5l147 -76q26 -14 26 -36q0 -18 -15.5 -32.5t-26.5 -14.5z" />
<glyph unicode="&#xe9;" horiz-adv-x="466" d="M368 615l-170 -71q-11 0 -26.5 14.5t-15.5 32.5q0 22 26 36l147 76q7 3 29.5 -21.5t22.5 -42.5q0 -12 -13 -24zM416 251q-2 -35 -168 -35l-127 3q4 -76 44 -112.5t100 -36.5q45 0 103 21l2 1h3q15 0 27 -23t12 -42q0 -27 -55.5 -38t-116.5 -11q-118 0 -170 77.5 t-52 200.5q0 112 52 177.5t152 65.5q111 0 154 -44t43 -141q0 -28 -3 -63zM224 416q-51 0 -75 -33t-27 -81q2 0 9.5 -0.5t13.5 -0.5q27 -1 103 -1q74 0 74 -3q0 30 -1 44t-5.5 32t-15 25t-29 12.5t-47.5 5.5z" />
<glyph unicode="&#xea;" horiz-adv-x="483" d="M253 705h12l133 -73q7 -6 7 -19q0 -18 -19 -37.5t-27 -17.5l-107 61q-18 -10 -56 -29l-60 -32q-8 -2 -23.5 18t-15.5 37q0 15 7 21l131 68q6 3 18 3zM428 251q-2 -35 -168 -35l-127 3q4 -76 44 -112.5t100 -36.5q45 0 103 21l2 1h3q15 0 27 -23t12 -42q0 -27 -55.5 -38 t-116.5 -11q-118 0 -170 77.5t-52 200.5q0 112 52 177.5t152 65.5q111 0 154 -44t43 -141q0 -28 -3 -63zM236 416q-51 0 -75 -33t-27 -81q2 0 9.5 -0.5t13.5 -0.5q27 -1 103 -1q74 0 74 -3q0 30 -1 44t-5.5 32t-15 25t-29 12.5t-47.5 5.5z" />
<glyph unicode="&#xeb;" horiz-adv-x="477" d="M428 251q-2 -35 -168 -35l-127 3q4 -76 44 -112.5t100 -36.5q45 0 103 21l2 1h3q15 0 27 -23t12 -42q0 -27 -55.5 -38t-116.5 -11q-118 0 -170 77.5t-52 200.5q0 112 52 177.5t152 65.5q111 0 154 -44t43 -141q0 -28 -3 -63zM236 416q-51 0 -75 -33t-27 -81q2 0 9.5 -0.5 t13.5 -0.5q27 -1 103 -1q74 0 74 -3q0 30 -1 44t-5.5 32t-15 25t-29 12.5t-47.5 5.5zM107 607v6q0 23 15.5 38t37.5 15h6q22 0 36.5 -15t14.5 -38v-6q0 -22 -14.5 -37t-36.5 -15h-6q-23 0 -38 15t-15 37zM279 607v6q0 23 15.5 38t37.5 15h6q22 0 36.5 -15t14.5 -38v-6 q0 -23 -14.5 -37.5t-36.5 -14.5h-6q-23 0 -38 15t-15 37z" />
<glyph unicode="&#xec;" horiz-adv-x="273" d="M194 482l1 -466q0 -13 -15.5 -21t-35.5 -8t-34.5 6.5t-14.5 18.5l-1 468q0 7 20.5 16t39.5 9q37 0 40 -23zM193 544l-168 69q-15 10 -15 26q0 18 22.5 42.5t29.5 21.5l147 -76q26 -14 26 -36q0 -18 -15.5 -32.5t-26.5 -14.5z" />
<glyph unicode="&#xed;" horiz-adv-x="259" d="M174 482l1 -466q0 -13 -15.5 -21t-35.5 -8t-34.5 6.5t-14.5 18.5l-1 468q0 7 20.5 16t39.5 9q37 0 40 -23zM241 615l-170 -71q-11 0 -26.5 14.5t-15.5 32.5q0 22 26 36l147 76q7 3 29.5 -21.5t22.5 -42.5q0 -12 -13 -24z" />
<glyph unicode="&#xee;" horiz-adv-x="342" d="M173 705h12l133 -73q7 -6 7 -19q0 -18 -19 -37.5t-27 -17.5l-107 61q-18 -10 -56 -29l-60 -32q-8 -2 -23.5 18t-15.5 37q0 15 7 21l131 68q6 3 18 3zM222 482l1 -466q0 -13 -16 -21t-35 -8q-20 0 -34.5 6.5t-14.5 18.5l-1 468q0 7 20.5 16t39.5 9q37 0 40 -23z" />
<glyph unicode="&#xef;" horiz-adv-x="281" d="M183 482l1 -466q0 -13 -15.5 -21t-35.5 -8t-34.5 6.5t-14.5 18.5l-1 468q0 7 20.5 16t39.5 9q37 0 40 -23zM14 607v6q0 23 15 38t38 15h6q22 0 36.5 -15t14.5 -38v-6q0 -22 -14.5 -37t-36.5 -15h-6q-23 0 -38 15t-15 37zM159 607v6q0 23 15.5 38t37.5 15h6q22 0 36.5 -15 t14.5 -38v-6q0 -23 -14.5 -37.5t-36.5 -14.5h-6q-23 0 -38 15t-15 37z" />
<glyph unicode="&#xf0;" horiz-adv-x="563" d="M221 473q-1 0 -3 -1q-15 0 -24.5 17.5t-9.5 36.5t6 25.5t23 6.5q67 0 99 10q-1 2 -1 5q-2 2 -2 4q-7 14 -11 20.5t-22.5 18.5t-47.5 19q-13 6 -13 19q0 16 17 38t29 22l9 -3l-1 1q36 -8 60.5 -19.5t38.5 -28.5t19 -26t14 -29l3 -12l1 -1q26 17 81 17q48 0 48 -63 q0 -23 -18 -23q-68 9 -79 -13q32 -90 32 -293q0 -112 -67.5 -175t-157.5 -63q-87 0 -149.5 56.5t-62.5 156.5q0 68 19.5 115.5t53.5 70t67.5 31.5t72.5 9q21 0 39 -3t25 -6l7 -3q21 -6 21 -50q0 -16 -8.5 -28t-22.5 -12q0 1 -5 4t-21.5 6t-38.5 3q-48 0 -79 -43.5t-31 -98.5 q0 -49 29 -86.5t84 -37.5q53 0 94.5 46t41.5 103q0 73 -6 140.5t-11.5 100.5t-7.5 32q-46 -16 -134 -16z" />
<glyph unicode="&#xf1;" horiz-adv-x="543" d="M431 604h-1q-40 -53 -96 -53q-22 0 -74 24q-44 20 -54 20q-12 0 -22 -5t-14 -10l-4 -5q-12 -6 -14 -6q-15 0 -31.5 24t-16.5 41q0 11 13 24v-3q28 23 63 23q47 0 106 -38q16 -9 27 -9q28 0 54 38v-1q6 12 13 12q14 0 34.5 -23t20.5 -39q0 -10 -4 -14zM154 0l-2 2 q-10 -14 -48 -14q-21 0 -36.5 5.5t-15.5 14.5l1 459q18 22 61 22q17 0 27 -6.5t11 -12.5l2 -7v-34q55 69 141 69q32 0 58.5 -5.5t55 -24t47.5 -48.5t31.5 -83t12.5 -124l-2 -205q0 -20 -44 -20q-21 0 -39 5.5t-18 14.5v239q0 148 -114 148q-32 0 -70 -17t-59 -49v-329z" />
<glyph unicode="&#xf2;" d="M139 248q0 -78 39 -127.5t104 -49.5q73 0 111.5 45.5t38.5 131.5q0 73 -44 116t-106 43q-59 0 -101 -46.5t-42 -112.5zM40 251q0 107 71 177t174 70t174 -70t71 -177q0 -130 -69.5 -201.5t-176.5 -71.5q-106 0 -175 72.5t-69 200.5zM334 544l-168 69q-15 10 -15 26 q0 18 22.5 42.5t29.5 21.5l147 -76q26 -14 26 -36q0 -18 -15.5 -32.5t-26.5 -14.5z" />
<glyph unicode="&#xf3;" d="M401 615l-170 -71q-11 0 -26.5 14.5t-15.5 32.5q0 22 26 36l147 76q7 3 29.5 -21.5t22.5 -42.5q0 -12 -13 -24zM139 248q0 -78 39 -127.5t104 -49.5q73 0 111.5 45.5t38.5 131.5q0 73 -44 116t-106 43q-59 0 -101 -46.5t-42 -112.5zM40 251q0 107 71 177t174 70t174 -70 t71 -177q0 -130 -69.5 -201.5t-176.5 -71.5q-106 0 -175 72.5t-69 200.5z" />
<glyph unicode="&#xf4;" d="M292 705h12l133 -73q7 -6 7 -19q0 -18 -19 -37.5t-27 -17.5l-107 61q-18 -10 -56 -29l-60 -32q-8 -2 -23.5 18t-15.5 37q0 15 7 21l131 68q6 3 18 3zM139 248q0 -78 39 -127.5t104 -49.5q73 0 111.5 45.5t38.5 131.5q0 73 -44 116t-106 43q-59 0 -101 -46.5t-42 -112.5z M40 251q0 107 71 177t174 70t174 -70t71 -177q0 -130 -69.5 -201.5t-176.5 -71.5q-106 0 -175 72.5t-69 200.5z" />
<glyph unicode="&#xf5;" d="M442 604h-1q-40 -53 -96 -53q-22 0 -74 24q-44 20 -54 20q-12 0 -22 -5t-14 -10l-4 -5q-12 -6 -14 -6q-15 0 -31.5 24t-16.5 41q0 11 13 24v-3q28 23 63 23q47 0 106 -38q16 -9 27 -9q28 0 54 38v-1q6 12 13 12q14 0 34.5 -23t20.5 -39q0 -10 -4 -14zM139 248 q0 -78 39 -127.5t104 -49.5q73 0 111.5 45.5t38.5 131.5q0 73 -44 116t-106 43q-59 0 -101 -46.5t-42 -112.5zM40 251q0 107 71 177t174 70t174 -70t71 -177q0 -130 -69.5 -201.5t-176.5 -71.5q-106 0 -175 72.5t-69 200.5z" />
<glyph unicode="&#xf6;" d="M139 248q0 -78 39 -127.5t104 -49.5q73 0 111.5 45.5t38.5 131.5q0 73 -44 116t-106 43q-59 0 -101 -46.5t-42 -112.5zM40 251q0 107 71 177t174 70t174 -70t71 -177q0 -130 -69.5 -201.5t-176.5 -71.5q-106 0 -175 72.5t-69 200.5zM147 607v6q0 23 15.5 38t37.5 15h6 q22 0 36.5 -15t14.5 -38v-6q0 -22 -14.5 -37t-36.5 -15h-6q-23 0 -38 15t-15 37zM319 607v6q0 23 15.5 38t37.5 15h6q22 0 36.5 -15t14.5 -38v-6q0 -23 -14.5 -37.5t-36.5 -14.5h-6q-23 0 -38 15t-15 37z" />
<glyph unicode="&#xf7;" horiz-adv-x="494" d="M431 289l-369 -1q-14 0 -21.5 15t-7.5 36q0 19 7 34t18 15l371 1q7 0 16 -20.5t9 -39.5q0 -37 -23 -40zM179 187v7q0 26 18 44.5t44 18.5h8q25 0 43 -18.5t18 -44.5v-7q0 -27 -17.5 -44.5t-43.5 -17.5h-8q-26 0 -44 17.5t-18 44.5zM179 485v8q0 26 18 44t44 18h8 q26 0 43.5 -18t17.5 -44v-8q0 -27 -17.5 -44.5t-43.5 -17.5h-8q-26 0 -44 17.5t-18 44.5z" />
<glyph unicode="&#xf8;" horiz-adv-x="569" d="M395 356l-180 -273q1 0 9 -2q29 -12 49 -12q63 0 110 52t47 129q0 57 -35 106zM160 148l163 253q-21 6 -40 6q-61 0 -105 -46.5t-44 -117.5q0 -55 26 -95zM176 16l-39 -61v1q-7 -12 -22 -12q-17 0 -36 15t-19 28q0 9 4 12q20 32 22 34q3 6 11 16.5t10 14.5 q-69 74 -69 180q0 113 72 183.5t172 70.5q44 0 92 -15q12 21 25 38l29 43q4 5 9 5q19 0 40.5 -12.5t21.5 -29.5q0 -5 -3 -11l-49 -88q75 -80 75 -176q0 -111 -73.5 -186.5t-171.5 -75.5q-43 0 -101 26z" />
<glyph unicode="&#xf9;" horiz-adv-x="549" d="M286 544l-168 69q-15 10 -15 26q0 18 22.5 42.5t29.5 21.5l147 -76q26 -14 26 -36q0 -18 -15.5 -32.5t-26.5 -14.5zM399 471l2 4q8 14 48 14q20 0 36 -5t16 -14l1 -465q-19 -19 -62 -19q-17 0 -27 6.5t-11 13.5l-2 6v42q-27 -38 -60 -57.5t-85 -19.5q-32 0 -57.5 5.5 t-54 23.5t-47 48.5t-31 85.5t-12.5 130l2 199q0 20 44 20q19 0 38 -6.5t19 -13.5v-233q0 -83 26 -119t89 -36q30 0 68 20.5t60 53.5v316z" />
<glyph unicode="&#xfa;" horiz-adv-x="549" d="M427 615l-170 -71q-11 0 -26.5 14.5t-15.5 32.5q0 22 26 36l147 76q7 3 29.5 -21.5t22.5 -42.5q0 -12 -13 -24zM399 471l2 4q8 14 48 14q20 0 36 -5t16 -14l1 -465q-19 -19 -62 -19q-17 0 -27 6.5t-11 13.5l-2 6v42q-27 -38 -60 -57.5t-85 -19.5q-32 0 -57.5 5.5 t-54 23.5t-47 48.5t-31 85.5t-12.5 130l2 199q0 20 44 20q19 0 38 -6.5t19 -13.5v-233q0 -83 26 -119t89 -36q30 0 68 20.5t60 53.5v316z" />
<glyph unicode="&#xfb;" horiz-adv-x="548" d="M283 705h12l133 -73q7 -6 7 -19q0 -18 -19 -37.5t-27 -17.5l-107 61q-18 -10 -56 -29l-60 -32q-8 -2 -23.5 18t-15.5 37q0 15 7 21l131 68q6 3 18 3zM399 471l2 4q8 14 48 14q20 0 36 -5t16 -14l1 -465q-19 -19 -62 -19q-17 0 -27 6.5t-11 13.5l-2 6v42 q-27 -38 -60 -57.5t-85 -19.5q-32 0 -57.5 5.5t-54 23.5t-47 48.5t-31 85.5t-12.5 130l2 199q0 20 44 20q19 0 38 -6.5t19 -13.5v-233q0 -83 26 -119t89 -36q30 0 68 20.5t60 53.5v316z" />
<glyph unicode="&#xfc;" horiz-adv-x="541" d="M125 607v6q0 23 15.5 38t37.5 15h6q22 0 36.5 -15t14.5 -38v-6q0 -22 -14.5 -37t-36.5 -15h-6q-23 0 -38 15t-15 37zM317 607v6q0 23 15.5 38t37.5 15h6q22 0 36.5 -15t14.5 -38v-6q0 -23 -14.5 -37.5t-36.5 -14.5h-6q-23 0 -38 15t-15 37zM393 471l2 4q8 14 48 14 q20 0 36 -5t16 -14l1 -465q-19 -19 -62 -19q-17 0 -27 6.5t-11 13.5l-2 6v42q-27 -38 -60 -57.5t-85 -19.5q-32 0 -57.5 5.5t-54 23.5t-47 48.5t-31 85.5t-12.5 130l2 199q0 20 44 20q19 0 38 -6.5t19 -13.5v-233q0 -83 26 -119t89 -36q30 0 68 20.5t60 53.5v316z" />
<glyph unicode="&#xfd;" horiz-adv-x="548" d="M417 615l-170 -71q-11 0 -26.5 14.5t-15.5 32.5q0 22 26 36l147 76q7 3 29.5 -21.5t22.5 -42.5q0 -12 -13 -24zM74 -258l-1 1q-13 23 -13 42q0 15 14 42q37 0 66 14.5t45.5 35.5t28 49.5t16 50t6.5 43.5l-99 216l-98 215q-4 4 -4 11q0 2 4 7.5t20 12.5t40 7q15 0 26 -6 t15 -12l3 -6q2 -4 6 -14t6 -14l135 -297q12 27 18 45l110 293q2 14 24 14q20 0 44 -12.5t24 -25.5q0 -5 -1 -8q-75 -195 -132 -360q-50 -142 -96 -241q-49 -104 -180 -104z" />
<glyph unicode="&#xfe;" horiz-adv-x="514" d="M115 693q35 0 38 -23l1 -233q67 58 140 58q78 0 131 -63t53 -158q0 -135 -72 -209t-185 -74q-38 0 -66 17q0 -15 -0.5 -44.5t-0.5 -43.5v-98q0 -13 -14.5 -21t-33.5 -8t-32.5 6.5t-13.5 18.5l-1 850q0 7 19 16t37 9zM157 345l-2 -219q35 -41 98 -41q50 0 87.5 44.5 t37.5 113.5q0 71 -26 112t-73 41q-28 0 -58.5 -13t-46.5 -25z" />
<glyph unicode="&#xff;" horiz-adv-x="527" d="M57 -258l-1 1q-13 23 -13 42q0 15 14 42q37 0 66 14.5t45.5 35.5t28 49.5t16 50t6.5 43.5l-99 216l-98 215q-4 4 -4 11q0 2 4 7.5t20 12.5t40 7q15 0 26 -6t14 -12l4 -6q2 -4 6 -14t6 -14l135 -297q12 27 18 45l110 293q2 14 24 14q20 0 44 -12.5t24 -25.5q0 -5 -1 -8 q-75 -195 -132 -360q-50 -142 -96 -241q-49 -104 -180 -104zM133 607v6q0 23 15.5 38t37.5 15h6q22 0 36.5 -15t14.5 -38v-6q0 -22 -14.5 -37t-36.5 -15h-6q-23 0 -38 15t-15 37zM305 607v6q0 23 15.5 38t37.5 15h6q22 0 36.5 -15t14.5 -38v-6q0 -23 -14.5 -37.5 t-36.5 -14.5h-6q-23 0 -38 15t-15 37z" />
<glyph unicode="&#x123;" horiz-adv-x="569" d="M338 749v-8q0 -24 -13.5 -41.5t-35.5 -22.5q15 -48 53 -58q1 -1 4.5 -2t4.5 -2v1q15 -6 17 -13q1 -3 1 -7v-35q-46 0 -80 15.5t-50.5 36t-26 49.5t-11 45.5t-1.5 34.5q0 31 17 52t47 21h8q28 0 47 -19t19 -47zM280 490q60 0 110 -33q6 -1 18 -1q22 0 47 11t39 22l15 11 q3 -33 3 -46q0 -76 -40 -105q5 -23 5 -50q0 -80 -57.5 -136t-139.5 -56q-31 0 -50 6l-12 -15v1q-2 -3 -5 -6l-5 -5q27 -8 112 -8q195 0 195 -170v-8q-4 -82 -76 -127t-170 -45q-95 0 -171 43.5t-76 114.5q0 43 26 83t59 56q-15 15 -34 45l87 74q-76 69 -76 153q0 79 57 135 t139 56zM121 -83q0 -7 1 -11h1q16 -37 59.5 -56.5t96.5 -19.5t91.5 19t39.5 53v4q0 45 -22.5 62.5t-81.5 17.5h-15q-2 0 -8 -0.5t-9 -0.5q-9 -1 -34 -1q-49 0 -82 12q-37 -42 -37 -79zM177 301q0 -43 32 -74t76 -31q45 0 77 31t32 74t-32 73.5t-77 30.5q-44 0 -76 -30.5 t-32 -73.5z" />
<glyph unicode="&#x131;" horiz-adv-x="239" d="M170 482l1 -466q0 -13 -15.5 -21t-35.5 -8t-34.5 6.5t-14.5 18.5l-1 468q0 7 20.5 16t39.5 9q37 0 40 -23z" />
<glyph unicode="&#x141;" horiz-adv-x="567" d="M158 288v-188q0 -14 156 -14l173 5q13 0 21 -18.5t8 -40.5q0 -32 -15 -35q-65 -9 -234 -9q-207 0 -207 25v682q26 18 60 18q38 0 38 -25v-300h147q25 0 76 0.5t76 0.5q7 0 16 -20.5t9 -39.5q0 -37 -23 -40z" />
<glyph unicode="&#x142;" horiz-adv-x="499" d="M197 288h-135q-14 0 -21.5 15t-7.5 36q0 19 7 34t18 15h139v344q0 7 21 16t41 9q37 0 40 -23v-346h62q12 0 34.5 0.5t33.5 0.5q7 0 16 -20.5t9 -39.5q0 -37 -23 -40l-132 -1v-134q0 -24 0.5 -70t0.5 -69q0 -13 -16 -21t-36 -8q-21 0 -35.5 7t-14.5 18z" />
<glyph unicode="&#x152;" horiz-adv-x="1021" d="M640 487v-62h206q32 0 32 -44q0 -20 -8.5 -37t-20.5 -17l-209 -1v-159q0 -82 215 -82l98 5q29 0 29 -44q0 -19 -7.5 -36t-18.5 -17q-14 0 -26 -1q-40 -2 -81 -2q-58 0 -112 9t-106.5 35t-75.5 66q-83 -108 -207 -108q-120 0 -204.5 105.5t-84.5 256.5q0 150 84.5 255.5 t204.5 105.5q64 0 121 -34t98 -92q17 30 44.5 53t63.5 36t66.5 21.5t72 11.5t62 3.5t53.5 0.5q22 0 32.5 -12t10.5 -46q0 -32 -16 -32h-23q-2 0 -6 0.5t-6 0.5q-44 0 -85 -4.5t-89.5 -16t-78 -39t-29.5 -66.5q0 -8 1 -13zM158 371q-2 -22 -2 -32q0 -102 52 -174t128 -72 q82 0 142.5 80.5t60.5 194.5q0 103 -52 177t-128 74t-134 -72t-67 -176z" />
<glyph unicode="&#x153;" horiz-adv-x="901" d="M717 227h-174q4 -78 51.5 -119t109.5 -41q61 0 100 24l6 1q15 0 27 -23t12 -42q0 -27 -55.5 -38t-116.5 -11q-55 0 -105 28t-84 73q-35 -46 -87 -74t-109 -28q-105 0 -174.5 73t-69.5 201q0 107 71 177t174 70q57 0 108 -24t85 -66q33 45 83.5 71t108.5 26 q184 0 184 -173q0 -32 -15 -54.5t-39.5 -32.5t-46 -14t-44.5 -4zM147 248q0 -79 39 -129t104 -50q71 0 110 49.5t40 129.5q0 73 -44 116t-106 43q-59 0 -101 -46.5t-42 -112.5zM543 310h175q50 0 50 49q0 57 -102 57q-39 0 -76.5 -33.5t-46.5 -72.5z" />
<glyph unicode="&#x160;" horiz-adv-x="515" d="M265 631q-58 -1 -84.5 -39.5t-26.5 -97.5q0 -97 120 -97q95 0 151 -50.5t56 -137.5q0 -103 -65 -167t-160 -64q-142 0 -202 60q-8 5 -8 15q0 16 20.5 40.5t35.5 24.5q2 0 16 -7q19 -13 32.5 -20t41 -13.5t64.5 -6.5q58 0 95 37.5t37 99.5q0 97 -126 97q-210 0 -210 191 q0 97 51 161.5t156 64.5q101 0 179 -40q8 -5 8 -15q0 -15 -16 -42t-27 -27q-52 33 -138 33zM237 771l-126 70q-7 6 -7 18q0 18 19 38t27 18l106 -62l26 13l30 17l59 32q8 2 24.5 -18.5t16.5 -37.5q0 -14 -7 -20l-139 -72h-10q-14 0 -19 4z" />
<glyph unicode="&#x161;" horiz-adv-x="406" d="M185 560l-126 70q-7 6 -7 18q0 18 19 38t27 18l106 -62q6 3 26 14l30 16l59 32q8 2 24.5 -18.5t16.5 -37.5q0 -14 -7 -20l-139 -72h-10q-14 0 -19 4zM284 129q0 61 -66 61q-56 0 -92 12.5t-51 36.5t-19.5 45t-4.5 53q0 75 53 119t127 44t132 -54q6 -6 6 -16 q0 -17 -13.5 -43.5t-26.5 -26.5q-40 51 -97 51q-36 0 -59 -18.5t-23 -55.5q0 -33 15 -47.5t62 -14.5q84 0 120 -36.5t36 -108.5q0 -79 -46.5 -117t-117.5 -38q-100 0 -164 56h1q-9 5 -9 15q0 18 22.5 41.5t31.5 23.5q19 -18 51 -30t62 -12t50 15t20 45z" />
<glyph unicode="&#x178;" horiz-adv-x="628" d="M156 819v6q0 23 15 38t38 15h6q22 0 36.5 -15t14.5 -38v-6q0 -22 -14.5 -37t-36.5 -15h-6q-23 0 -38 15t-15 37zM328 819v6q0 23 15 38t38 15h6q22 0 36.5 -15t14.5 -38v-6q0 -23 -14.5 -37.5t-36.5 -14.5h-6q-23 0 -38 15t-15 37zM237 -2v321l-102 167l-104 171 q-3 8 24.5 31.5t45.5 23.5q11 0 19 -10l168 -282l115 137l121 143q8 8 17 8q17 0 40.5 -30t21.5 -39l-266 -315v-329q-35 -7 -58 -7t-42 10z" />
<glyph unicode="&#x17d;" horiz-adv-x="559" d="M478 84q22 0 22 -43q0 -19 -6 -34t-14 -16h-51q-16 0 -57.5 -0.5t-62.5 -0.5q-210 0 -241 5q-14 2 -24 18t-10 40q0 21 7 42q223 344 360 521q-38 4 -88 4l-196 -5q-5 0 -10 0.5t-13.5 9.5t-8.5 26q0 23 8.5 38t15 18.5t9.5 3.5l4 -1q3 0 15.5 0.5t20.5 0.5q34 1 142 1 q98 0 195 -3q18 -2 28 -19t10 -37t-10 -32l-129 -184l-250 -357q13 -2 103 -2zM279 771l-126 70q-7 6 -7 18q0 18 19 38t27 18l106 -62l26 13l30 17l59 32q8 2 24.5 -18.5t16.5 -37.5q0 -14 -7 -20l-139 -72h-10q-14 0 -19 4z" />
<glyph unicode="&#x17e;" horiz-adv-x="475" d="M229 560l-126 70q-7 6 -7 18q0 18 19 38t27 18l106 -62q6 3 26 14l30 16l59 32q8 2 24.5 -18.5t16.5 -37.5q0 -14 -7 -20l-139 -72h-10q-14 0 -19 4zM398 82h1q19 -1 19 -35q0 -20 -9 -38.5t-21 -18.5q-27 -3 -70 -3.5t-105 0.5t-79 1q-54 0 -73 10t-19 43q0 26 18 56 q76 126 212 267q28 28 34 35h-35q-64 0 -159 -5h-4q-31 0 -31 30q0 33 5 43t19 15q57 6 123 6q73 0 164 -7q11 -1 22 -17t11 -38q0 -33 -27 -61q-32 -37 -78.5 -83t-83.5 -90.5t-80 -113.5h55z" />
<glyph unicode="&#x192;" horiz-adv-x="399" d="M-51 -246q-13 23 -13 41q0 14 14 41q32 0 58 12t41.5 28t26.5 42t16 43t7.5 43t2.5 31v16l-2 233h-18q-36 0 -42.5 6t-6.5 38q0 45 18 45q10 -1 22 -1q24 0 29 1v103q0 18 0.5 54t0.5 54q0 54 54.5 91.5t125.5 37.5q34 0 66 -10t32 -32q0 -19 -12.5 -41t-24.5 -21 q-28 14 -65 14q-33 0 -56 -13t-23 -38v-193h49h11q16 0 46 -2h7q4 -1 13 -1q2 0 7 -0.5t8 -0.5q8 -2 14 -14.5t6 -28.5q0 -44 -24 -45q-54 3 -98 3q-28 0 -38 -1v-238q0 -78 -17.5 -136t-41.5 -88t-57.5 -48.5t-57 -23t-47.5 -4.5z" />
<glyph unicode="&#x2c6;" horiz-adv-x="424" d="M224 705h12l133 -73q7 -6 7 -19q0 -18 -19 -37.5t-27 -17.5l-107 61q-18 -10 -56 -29l-60 -32q-8 -2 -23.5 18t-15.5 37q0 15 7 21l131 68q6 3 18 3z" />
<glyph unicode="&#x2dc;" horiz-adv-x="395" d="M359 604h-1q-40 -53 -96 -53q-22 0 -74 24q-44 20 -54 20q-12 0 -22 -5t-14 -10l-4 -5q-12 -6 -14 -6q-15 0 -31.5 24t-16.5 41q0 11 13 24v-3q28 23 63 23q47 0 106 -38q16 -9 27 -9q28 0 54 38v-1q6 12 13 12q14 0 34.5 -23t20.5 -39q0 -10 -4 -14z" />
<glyph unicode="&#x2000;" horiz-adv-x="501" />
<glyph unicode="&#x2001;" horiz-adv-x="1002" />
<glyph unicode="&#x2002;" horiz-adv-x="501" />
<glyph unicode="&#x2003;" horiz-adv-x="1002" />
<glyph unicode="&#x2004;" horiz-adv-x="334" />
<glyph unicode="&#x2005;" horiz-adv-x="250" />
<glyph unicode="&#x2006;" horiz-adv-x="167" />
<glyph unicode="&#x2007;" horiz-adv-x="167" />
<glyph unicode="&#x2008;" horiz-adv-x="125" />
<glyph unicode="&#x2009;" horiz-adv-x="200" />
<glyph unicode="&#x200a;" horiz-adv-x="55" />
<glyph unicode="&#x2010;" horiz-adv-x="400" d="M322 289l-261 -1q-14 0 -21.5 15t-7.5 36q0 19 7 34t18 15l263 1q7 0 16 -20.5t9 -39.5q0 -37 -23 -40z" />
<glyph unicode="&#x2011;" horiz-adv-x="400" d="M322 289l-261 -1q-14 0 -21.5 15t-7.5 36q0 19 7 34t18 15l263 1q7 0 16 -20.5t9 -39.5q0 -37 -23 -40z" />
<glyph unicode="&#x2013;" horiz-adv-x="489" d="M422 289l-369 -1q-14 0 -21.5 15t-7.5 36q0 19 7 34t18 15l371 1q7 0 16 -20.5t9 -39.5q0 -37 -23 -40z" />
<glyph unicode="&#x2014;" horiz-adv-x="604" d="M542 289l-489 -1q-14 0 -21.5 15t-7.5 36q0 19 7 34t18 15l491 1q7 0 16 -20.5t9 -39.5q0 -37 -23 -40z" />
<glyph unicode="&#x2018;" horiz-adv-x="314" d="M198 643v-8q0 -24 -13.5 -41.5t-35.5 -22.5q15 -48 53 -58q1 -1 4.5 -2t4.5 -2v1q15 -6 17 -13q1 -3 1 -7v-35q-46 0 -80 15.5t-50.5 36t-26 49.5t-11 45.5t-1.5 34.5q0 31 17 52t47 21h8q28 0 47 -19t19 -47z" />
<glyph unicode="&#x2019;" horiz-adv-x="308" d="M95 635v8q0 28 19 47t47 19h8q27 0 45.5 -19t18.5 -47q0 -168 -136 -186q-15 -2 -31 -2q-3 9 -3 19v15q0 5 1.5 11t4 8t7.5 2q7 0 18 4t27 19t24 38q-22 5 -36 23t-14 41z" />
<glyph unicode="&#x201a;" horiz-adv-x="168" d="M41 41v6q0 23 15.5 38t37.5 15h6q26 0 40 -19t14 -52q0 -19 -1 -29q-4 -37 -43 -75.5t-93 -38.5q-5 10 -5 15l1 27q3 0 14.5 5t25.5 21t16 38q-28 14 -28 49z" />
<glyph unicode="&#x201c;" horiz-adv-x="349" d="M320 570v-8q0 -28 -19 -47t-47 -19h-8q-27 0 -45.5 19t-18.5 47q0 188 169 188v-35q0 -14 -15 -19q-2 -1 -3 -1v1q-1 0 -5 -2t-5 -2q-37 -12 -52 -58q22 -5 35.5 -22.5t13.5 -41.5zM162 570v-8q0 -28 -19 -47t-47 -19h-8q-27 0 -45.5 19t-18.5 47q0 188 169 188v-35 q0 -14 -15 -19q-2 -1 -3 -1v1q-1 0 -5 -2t-5 -2q-37 -12 -52 -58q22 -5 35.5 -22.5t13.5 -41.5z" />
<glyph unicode="&#x201d;" horiz-adv-x="366" d="M46 676v8q0 28 19 47t47 19h8q27 0 45.5 -19t18.5 -47q0 -168 -136 -186q-15 -2 -31 -2q-3 9 -3 19v15q0 5 1.5 11t4 8t7.5 2q7 0 18 4t27 19t24 38q-22 5 -36 23t-14 41zM204 676v8q0 28 19 47t47 19h8q27 0 45.5 -19t18.5 -47q0 -168 -136 -186q-15 -2 -31 -2 q-3 9 -3 19v15q0 5 1.5 11t4 8t7.5 2q7 0 18 4t27 19t24 38q-22 5 -36 23t-14 41z" />
<glyph unicode="&#x201e;" horiz-adv-x="347" d="M191 41v6q0 23 15.5 38t37.5 15h6q26 0 40 -19t14 -52q0 -19 -1 -29q-4 -37 -43 -75.5t-93 -38.5q-5 10 -5 15l1 27q3 0 14.5 5t25.5 21t16 38q-28 14 -28 49zM58 41v6q0 23 15 38t38 15h6q26 0 40 -19t14 -52q0 -19 -1 -29q-4 -37 -43 -75.5t-93 -38.5q-5 10 -5 15l1 27 q3 0 14.5 5t25.5 21t16 38q-28 14 -28 49z" />
<glyph unicode="&#x2020;" horiz-adv-x="479" d="M190 394h-137q-14 0 -21.5 15t-7.5 36q0 19 7 34t18 15h141v202q0 7 19 16t37 9q35 0 38 -23v-204h65q12 0 36 0.5t35 0.5q7 0 16 -20.5t9 -39.5q0 -37 -23 -40l-138 -1v-135q0 -24 0.5 -70.5t0.5 -69.5l-40 -170h-16q-38 160 -38 170z" />
<glyph unicode="&#x2021;" horiz-adv-x="501" d="M199 168h-137q-14 0 -21.5 15t-7.5 36q0 19 7 34t18 15h141v130h-137q-14 0 -21.5 15t-7.5 36q0 19 7 34t18 15h141v198q0 7 19 16t37 9q35 0 38 -23v-200h65q12 0 36 0.5t35 0.5q7 0 16 -20.5t9 -39.5q0 -37 -23 -40l-138 -1v-130h65q12 0 36 0.5t35 0.5q7 0 16 -20.5 t9 -39.5q0 -37 -23 -40l-138 -1v-73q0 -13 0.5 -39t0.5 -38q0 -13 -14.5 -21t-33.5 -8t-32.5 6.5t-13.5 18.5z" />
<glyph unicode="&#x2022;" horiz-adv-x="292" d="M47 341v12q0 40 27.5 67t67.5 27h12q38 0 65 -27t27 -67v-12q0 -41 -26.5 -68t-65.5 -27h-12q-41 0 -68 26.5t-27 68.5z" />
<glyph unicode="&#x2026;" horiz-adv-x="936" d="M666 53v8q0 28 19 47t47 19h8q27 0 45.5 -19t18.5 -47v-8q0 -28 -18.5 -46.5t-45.5 -18.5h-8q-28 0 -47 18.5t-19 46.5zM392 53v8q0 28 19 47t47 19h8q27 0 45.5 -19t18.5 -47v-8q0 -28 -18.5 -46.5t-45.5 -18.5h-8q-28 0 -47 18.5t-19 46.5zM115 53v8q0 28 19 47t47 19 h8q27 0 45.5 -19t18.5 -47v-8q0 -28 -18.5 -46.5t-45.5 -18.5h-8q-28 0 -47 18.5t-19 46.5z" />
<glyph unicode="&#x202f;" horiz-adv-x="200" />
<glyph unicode="&#x2030;" horiz-adv-x="1103" d="M591 663l-359 -661q-7 -12 -22 -12q-19 0 -43 17t-24 30q0 10 5 11l179 328l183 335q3 1 11 1q19 0 45 -13.5t26 -32.5v-1q-1 -1 -1 -2zM492 158q0 -30 19.5 -52.5t46.5 -22.5t47 22.5t20 52.5t-20 52.5t-47 22.5t-46.5 -22.5t-19.5 -52.5zM402 161q0 69 45.5 113.5 t111.5 44.5t111 -44.5t45 -113.5q0 -70 -45.5 -118.5t-110.5 -48.5q-66 0 -111.5 48.5t-45.5 118.5zM128 549q0 -30 19.5 -52.5t46.5 -22.5t47 22.5t20 52.5t-20 52.5t-47 22.5t-46.5 -22.5t-19.5 -52.5zM38 552q0 69 45.5 113.5t111.5 44.5t111 -44.5t45 -113.5 q0 -70 -45.5 -118.5t-110.5 -48.5q-66 0 -111.5 48.5t-45.5 118.5zM832 158q0 -30 19.5 -52.5t46.5 -22.5t47 22.5t20 52.5t-20 52.5t-47 22.5t-46.5 -22.5t-19.5 -52.5zM742 161q0 69 45.5 113.5t111.5 44.5t111 -44.5t45 -113.5q0 -70 -45.5 -118.5t-110.5 -48.5 q-66 0 -111.5 48.5t-45.5 118.5z" />
<glyph unicode="&#x2039;" horiz-adv-x="352" d="M71 232h1q-4 5 -4 19q0 10 2 16l144 189q8 11 23 11q19 0 38.5 -17.5t17.5 -27.5l-137 -171q8 -9 22.5 -27.5t22.5 -27.5l89 -109q2 -8 -18 -28t-38 -20q-14 0 -22 11z" />
<glyph unicode="&#x203a;" horiz-adv-x="295" d="M260 227l-138 -177q-8 -11 -23 -11q-18 0 -37.5 20t-17.5 28l135 164l-68 83q-46 56 -70 88q-2 9 17.5 27t37.5 18q16 0 24 -11l144 -189q1 -3 1 -16q0 -14 -5 -24z" />
<glyph unicode="&#x2044;" horiz-adv-x="391" d="M368 666l-267 -663q-7 -15 -26 -15t-43.5 14.5t-24.5 27.5q0 3 2 7h-1l132 328l130 321q14 26 29 26q23 0 46 -12t23 -34z" />
<glyph unicode="&#x205f;" horiz-adv-x="250" />
<glyph unicode="&#x20ac;" horiz-adv-x="693" d="M137 388l-65 -1q-13 0 -21 13t-8 30q0 18 6.5 30.5t18.5 12.5l78 1q21 123 81 185.5t149 62.5q53 0 112.5 -17.5t92.5 -34.5l33 -18l-3 -86l-37 16q-24 9 -87.5 25t-116.5 16q-42 0 -74.5 -39.5t-47.5 -109.5h224q2 0 6.5 -7.5t8 -19.5t3.5 -22q0 -24 -14 -37l-240 -3 q-1 -13 -1 -42v-25h245q10 -28 10 -52q0 -21 -14 -34h-232q29 -155 126 -155q51 0 95 5.5t69.5 12.5t44 14.5t25.5 12.5l7 6v-91q-2 -2 -7 -6t-24.5 -14.5t-43.5 -18t-67 -14t-93 -6.5q-202 0 -234 254q-6 0 -17 -0.5t-16 -0.5h-37q-13 0 -21 13t-8 30q0 18 6.5 30.5 t18.5 12.5l68 1v35q0 3 0.5 8t0.5 8v19z" />
<glyph unicode="&#x2122;" horiz-adv-x="509" d="M275 477l-26 5v209q0 20 29 20q21 0 25 -15l-1 1l31 -56l27 -49l27 50v-1l31 57q7 13 26 13q14 0 25 -11v-215q-8 -8 -30 -8q-7 0 -25 6v104l-40 -71q-2 -2 -18 -2q-17 0 -20 13l1 -1l-11 18q-7 10 -9 14q-2 3 -11 20v-93q0 -1 -4 -3t-11.5 -3.5t-15.5 -1.5zM47 666l-1 4 q-2 3 -2 9q0 14 8 27l4 2q7 1 80 1q69 0 78 -1h13l1 -12q1 -4 1 -17l-4 -24h-62v-158q0 -19 -26 -19q-29 0 -29 19v158h-45q-7 0 -16 11z" />
<glyph unicode="&#x2212;" horiz-adv-x="514" d="M439 289l-369 -1q-14 0 -21.5 15t-7.5 36q0 19 7 34t18 15l371 1q7 0 16 -20.5t9 -39.5q0 -37 -23 -40z" />
<glyph unicode="&#x221a;" horiz-adv-x="1032" d="M233 306l-105 -57q-7 0 -27 27t-20 44q0 13 17 24q39 18 44 21q107 51 138 51q32 0 48 -35l158 -493l178 453l185 468v-1q4 14 21 14q18 0 51 -23t33 -30l-434 -1068q-12 -6 -29 -6q-15 0 -31 2q-1 0 -6.5 0.5t-8.5 0.5z" />
<glyph unicode="&#x221e;" horiz-adv-x="887" d="M54 388q0 85 57 141t139 56q63 0 115.5 -28t72.5 -72q20 45 72.5 72.5t121.5 27.5q81 0 137.5 -56t56.5 -141q0 -86 -59.5 -147.5t-139.5 -61.5q-57 0 -109.5 32t-77.5 70q-21 -39 -72 -70.5t-118 -31.5q-82 0 -139 61t-57 148zM492 398l-1 -25q10 -108 137 -108 q43 0 75.5 36.5t32.5 82.5t-31 80.5t-74 34.5q-67 0 -101 -28t-38 -73zM392 370l-1 32q-11 41 -46.5 69t-95.5 28q-44 0 -74 -34.5t-30 -80.5t30 -80.5t74 -34.5q62 0 97.5 29.5t45.5 71.5z" />
<glyph unicode="&#x2248;" horiz-adv-x="396" d="M352 210h-1q-40 -53 -96 -53q-22 0 -74 24q-44 20 -54 20q-28 0 -42 -20q-6 -6 -12 -6q-15 0 -31.5 24t-16.5 41q0 11 13 24v-3q28 23 63 23q47 0 106 -38q16 -9 27 -9q28 0 54 38v-1q6 12 13 12q14 0 34.5 -23t20.5 -39q0 -10 -4 -14zM352 357h-1q-40 -53 -96 -53 q-22 0 -74 24q-44 20 -54 20q-28 0 -42 -20q-6 -6 -12 -6q-15 0 -31.5 24t-16.5 41q0 11 13 24v-3q28 23 63 23q47 0 106 -38q16 -9 27 -9q28 0 54 38v-1q6 12 13 12q14 0 34.5 -23t20.5 -39q0 -10 -4 -14z" />
<glyph unicode="&#xf643;" horiz-adv-x="590" d="M147 233q0 -65 42.5 -111.5t101.5 -46.5q142 0 142 158q0 86 -39 128.5t-101 42.5q-21 0 -42.5 -6.5t-46.5 -23t-41 -53t-16 -88.5zM48 236q0 121 68.5 191.5t173.5 70.5q107 0 177.5 -68.5t70.5 -193.5q0 -131 -67.5 -194.5t-177.5 -63.5q-108 0 -176.5 66t-68.5 192z " />
<glyph unicode="&#xf644;" horiz-adv-x="327" d="M273 465v-470q-33 -8 -59 -8q-25 0 -42 8v351l-18 -13l-40 -27q-27 -17 -31 -20q-8 0 -32.5 22t-24.5 38v13l172 129q20 4 34 4q41 0 41 -27z" />
<glyph unicode="&#xf645;" horiz-adv-x="431" d="M58 437q5 5 32 18.5t73 28t86 14.5q28 0 52.5 -6t49.5 -21t39.5 -45.5t14.5 -73.5q0 -27 -10 -51.5t-22 -40.5t-36 -34t-39.5 -27t-43.5 -24q-46 -24 -72 -45.5t-31 -48.5h234q9 -27 9 -45q0 -8 -3 -19.5t-7 -18.5l-3 -7h-303q-35 0 -35 82q0 29 12 53.5t39 46t45 33 t56 32.5q37 20 56 32t37 32.5t18 41.5q0 66 -53 66q-15 0 -30 -2t-27 -5t-22.5 -7t-18 -7.5t-13 -6.5t-8.5 -5l-2 -2q-14 -14 -23 -14q-14 0 -34 27t-20 39q0 7 3 10z" />
<glyph unicode="&#xf646;" horiz-adv-x="446" d="M315 34q0 52 -21 71t-60 19q-26 0 -52 -3q-8 -2 -15 -2q-4 -1 -15 -1q-18 0 -18 38q0 54 24 57q30 4 51.5 8.5t43.5 14.5t33.5 28t11.5 43q0 99 -108 99q-65 0 -104 -29h1q-4 -4 -12 -4q-13 0 -29 22t-16 39q0 21 61 42.5t99 21.5q22 0 44 -3t53 -15t53.5 -32t39 -58.5 t16.5 -89.5q1 -3 1.5 -9t-1 -22.5t-6.5 -31t-18.5 -30.5t-33.5 -25q73 -32 73 -148q-1 -54 -26 -98t-62 -70.5t-83 -44.5t-85.5 -25t-73.5 -7q-11 1 -25 21t-14 39q0 9 3 16q5 11 52 16q218 33 218 153z" />
<glyph unicode="&#xf647;" horiz-adv-x="519" d="M40 -9l-8 4q-8 17 -8 39q0 28 12 46l284 408q20 4 38 4q43 0 43 -27v-375h76q2 0 5.5 -12.5t7 -31t3.5 -31.5q0 -17 -8 -20.5t-46 -3.5h-38v-191q-31 -8 -56 -8t-42 8v191h-263zM303 299l-143 -215l69 3q12 0 35.5 1t38.5 2v209z" />
<glyph unicode="&#xf648;" horiz-adv-x="495" d="M345 62q-4 96 -94 96q-35 0 -107 -18q-40 -11 -57 -11q-23 0 -23 19q0 8 -1 15q0 1 -0.5 5t-0.5 6t-0.5 6t-0.5 6q-5 68 -5 109q0 89 15 159q10 30 257 30l86 -1q11 -16 11 -39q0 -21 -9 -41l-253 -5q-7 -51 -7 -119q0 -27 1 -38q48 15 102 15q78 0 129.5 -44t55.5 -148 q0 -128 -92 -201.5t-229 -73.5q-15 0 -26.5 19.5t-11.5 38.5q0 14 17 24q12 0 22.5 1t37 5.5t48 11.5t48 21.5t44.5 33.5t30.5 50t12.5 68z" />
<glyph unicode="&#xf649;" horiz-adv-x="518" d="M401 607l-8 -2q-63 0 -111 -16t-73 -38t-40.5 -52.5t-20 -52t-4.5 -42.5q56 43 127 43q36 0 71.5 -15t66.5 -44t50.5 -79.5t19.5 -115.5q0 -102 -62.5 -158.5t-149.5 -56.5t-152.5 56t-72.5 156q-4 64 -4 93q0 97 15.5 167t51.5 125.5t102 83.5t162 28q15 0 26.5 -19.5 t11.5 -38.5q0 -16 -6 -22zM136 278h-1v-30q0 -79 30.5 -131.5t98.5 -52.5q57 0 86.5 38.5t29.5 92.5q0 63 -31.5 113t-79.5 50q-41 0 -85 -24.5t-48 -55.5z" />
<glyph unicode="&#xf64a;" horiz-adv-x="512" d="M221 -191q-5 -9 -25 -15t-42 -6q-44 0 -44 22q0 8 5 10q183 335 248 586h-290q-6 0 -20 24.5t-14 42.5q0 20 18 26h375q20 -6 31.5 -22.5t11.5 -32.5q0 -8 -1 -11v1q-16 -96 -79.5 -252t-118.5 -264z" />
<glyph unicode="&#xf64b;" horiz-adv-x="534" d="M47 201q0 30 10 59.5t24.5 50t28.5 36.5t24 24l10 8q-40 35 -40 123q0 13 4.5 31.5t16 42t29 43t47 33t66.5 13.5q84 0 133.5 -46.5t49.5 -110.5q0 -85 -47 -129q43 -27 68 -66t25 -108q0 -104 -65.5 -165.5t-160.5 -61.5t-159 60t-64 163zM360 507q0 6 -3.5 16.5 t-12 24.5t-28 24t-46.5 10q-37 0 -55 -24.5t-18 -56.5q0 -83 73 -83q40 0 65 23t25 66zM152 201q0 -46 32 -87t89 -41q65 0 93 42t28 102q0 38 -28.5 77.5t-78.5 39.5q-67 0 -101 -46t-34 -87z" />
<glyph unicode="&#xf64c;" horiz-adv-x="505" d="M102 -131l8 2q65 -2 113.5 12.5t74 36.5t40.5 51.5t18.5 53t2.5 46.5q-56 -42 -127 -42q-36 0 -71.5 15t-66.5 44t-50.5 79.5t-19.5 115.5q0 102 62.5 158.5t149.5 56.5t152.5 -56t72.5 -156q4 -64 4 -93q0 -97 -15.5 -167t-51.5 -125.5t-102 -83.5t-162 -28 q-15 0 -26.5 19.5t-11.5 38.5q0 16 6 22zM234 118q41 0 85 24.5t48 55.5q1 10 1 30q0 79 -30.5 131.5t-98.5 52.5q-57 0 -86.5 -38.5t-29.5 -92.5q0 -63 31.5 -113t79.5 -50z" />
<glyph unicode="&#xfb06;" horiz-adv-x="740" d="M272 129q0 61 -66 61q-56 0 -92 12.5t-51 36.5t-19.5 45t-4.5 53q0 66 43.5 108t107.5 52q-41 48 -41 115q0 60 51 100.5t167 40.5q61 0 105.5 -15.5t67 -41.5t33 -53t11.5 -56l2 -102q11 1 88 1q31 0 38 -8.5t7 -42.5q0 -51 -19 -51q-45 1 -82 1h-32v-104q0 -19 0.5 -55 t0.5 -54q0 -62 16.5 -83.5t78.5 -21.5q18 0 18 -32q0 -17 -6.5 -32t-17.5 -15h-22q-82 0 -112 24q-4 3 -8.5 7.5t-13.5 17.5t-16 29t-12 44t-5 60l-2 214h-1q-1 0 -3.5 -0.5t-4.5 -0.5h-9q-36 0 -43 4.5t-7 28.5q0 67 19 67q24 -1 42 -1h8h1v85q0 42 -33.5 71.5t-110.5 29.5 q-58 0 -89 -30.5t-31 -73.5q0 -38 25 -66q50 -5 103 -52q6 -6 6 -16q0 -17 -13.5 -43.5t-26.5 -26.5q-40 51 -97 51q-36 0 -59 -18.5t-23 -55.5q0 -33 15 -47.5t62 -14.5q84 0 120 -36.5t36 -108.5q0 -79 -46.5 -117t-117.5 -38q-100 0 -164 56h1q-9 5 -9 15q0 15 21 40 t33 25q19 -18 51 -30t62 -12t50 15t20 45z" />
<glyph unicode="&#xfb07;" horiz-adv-x="809" d="M382 379l-8 1q-28 27 -108 27q-58 0 -96 -46.5t-38 -113.5q0 -69 37.5 -119.5t95.5 -50.5q36 0 58.5 8t51.5 32l7 1q13 0 28.5 -20.5t15.5 -39.5q0 -33 -56 -56.5t-102 -23.5q-101 0 -168.5 80t-67.5 192q0 102 61 170.5t156 76.5q-29 44 -29 111q0 62 51 103.5t169 41.5 q63 0 108.5 -15.5t67.5 -41.5t31.5 -52.5t9.5 -56.5v-100q11 1 88 1q31 0 38 -8.5t7 -42.5q0 -51 -19 -51q-45 1 -82 1h-32v-104q0 -19 0.5 -55t0.5 -54q0 -62 16.5 -83.5t78.5 -21.5q18 0 18 -32q0 -30 -8 -39t-38 -9q-82 0 -112 25q-4 3 -8.5 7.5t-13.5 17.5t-16 29 t-12 44t-5 60l-2 214h-1q-1 0 -3.5 -0.5t-4.5 -0.5h-9q-36 0 -43 4.5t-7 28.5q0 67 19 67q24 -1 42 -1h8h1v100q-1 12 -7 24t-20.5 26.5t-44.5 24t-72 9.5q-58 0 -89 -30t-31 -71q0 -50 17 -70h7q29 -2 39 -7q65 -19 65 -48q0 -50 -40 -63z" />
<glyph unicode="&#xfb08;" horiz-adv-x="831" d="M408 271q-1 -21 -5 -55q-6 -50 -6 -75q0 -86 67 -128q-48 -35 -84 -35q-38 0 -63 35q-75 -36 -126 -36q-55 0 -100 39.5t-45 124.5q0 71 63.5 114.5t145.5 43.5q33 0 62 -7v10q0 2 0.5 5t0.5 4q0 56 -20 83q-34 14 -66 14q-48 0 -100 -28q-12 0 -22 24t-10 41q0 23 49 38 t95 15h9q36 0 52 -3q-40 70 -40 129q0 66 52 102t141 36q56 0 97.5 -20.5t63.5 -55t32 -71.5t10 -77v-54q18 1 69 1h10q38 0 46 -7.5t8 -43.5q0 -18 -5.5 -32.5t-14.5 -14.5h-113v-216q0 -59 16 -78.5t76 -19.5q9 0 14.5 -12.5t5.5 -28.5q0 -30 -5.5 -36.5t-33.5 -6.5 q-89 0 -117 24q-8 6 -17.5 18.5t-21.5 51t-12 88.5v216h-53q-20 0 -20 47q0 48 20 48h53v59q0 68 -37.5 102t-88.5 34q-48 0 -73 -25t-25 -64q0 -17 25 -84h-1q1 -2 4.5 -10.5t4.5 -10.5q27 -74 30 -111q4 -21 4 -59q0 -28 -1 -42zM189 68q4 -1 12 -1q38 0 105 28q1 1 5 3 q-1 1 -1 2q-1 7 -1 24q0 12 2 50v6q2 24 2 36q-20 3 -58 3q-109 0 -114 -78q2 -67 48 -73z" />
<glyph horiz-adv-x="955" d="M390 379l-8 1q-29 27 -109 27q-58 0 -92 -46t-34 -114q0 -70 35 -120t92 -50q36 0 58.5 8t51.5 32l7 1q12 0 28 -20.5t16 -39.5q0 -33 -56.5 -56.5t-101.5 -23.5q-100 0 -165.5 79.5t-65.5 192.5q0 92 47 157t125 84q-31 36 -34 117q0 62 50.5 103.5t169.5 41.5 q62 0 107 -15t67.5 -40.5t32.5 -51.5t10 -55l-1 -212q38 18 129 77q4 2 11 7t8 6q3 2 8 5l9 6l7 4h-1q22 16 28 16q12 0 34.5 -21.5t22.5 -35.5q0 -11 -47.5 -46t-97.5 -65l99 -137l104 -143q0 -11 -24.5 -38.5t-41.5 -27.5q-13 0 -16 9l-109 148l-106 147l-3 -1h1 q-3 -1 -7 -1t-6 -1q0 -96 1 -143q0 -25 0.5 -75.5t0.5 -74.5q-34 -7 -57 -7q-20 0 -41 11l-4 587v-1q-1 12 -7 24t-20.5 26.5t-44.5 24t-72 9.5q-58 0 -89 -30t-31 -71q0 -50 16 -69q52 0 87 -8.5t68 -37.5l1 -7q0 -17 -10.5 -38t-29.5 -28z" />
</font>
</defs>
</svg>
